<mxfile host="app.diagrams.net" modified="2023-08-10T13:05:59.980Z" agent="Mozilla/5.0 (Windows NT 10.0; Win64; x64) AppleWebKit/537.36 (KHTML, like Gecko) Chrome/115.0.0.0 Safari/537.36" etag="EzlT-A2YTLMTcx9U_Po1" version="21.6.7" type="device">
  <diagram name="PÃ¡gina-1" id="hg0JDfmrkEuFZzfc4M5p">
    <mxGraphModel dx="413" dy="379" grid="1" gridSize="10" guides="1" tooltips="1" connect="1" arrows="1" fold="1" page="1" pageScale="1" pageWidth="827" pageHeight="1169" math="0" shadow="0">
      <root>
        <mxCell id="0" />
        <mxCell id="1" parent="0" />
        <mxCell id="jJhntovyl3X0jqXpgIId-15" style="edgeStyle=orthogonalEdgeStyle;rounded=0;orthogonalLoop=1;jettySize=auto;html=1;endArrow=none;endFill=0;" parent="1" source="jJhntovyl3X0jqXpgIId-1" target="jJhntovyl3X0jqXpgIId-14" edge="1">
          <mxGeometry relative="1" as="geometry" />
        </mxCell>
        <mxCell id="jJhntovyl3X0jqXpgIId-1" value="Usuario" style="rounded=0;whiteSpace=wrap;html=1;" parent="1" vertex="1">
          <mxGeometry x="439" y="515" width="130" height="70" as="geometry" />
        </mxCell>
        <mxCell id="jJhntovyl3X0jqXpgIId-2" value="TipoDeUsuario" style="rounded=0;whiteSpace=wrap;html=1;" parent="1" vertex="1">
          <mxGeometry x="52" y="515" width="130" height="70" as="geometry" />
        </mxCell>
        <mxCell id="jJhntovyl3X0jqXpgIId-3" value="Evento" style="rounded=0;whiteSpace=wrap;html=1;" parent="1" vertex="1">
          <mxGeometry x="439" y="985" width="130" height="70" as="geometry" />
        </mxCell>
        <mxCell id="jJhntovyl3X0jqXpgIId-4" value="TipoDeEvento" style="rounded=0;whiteSpace=wrap;html=1;" parent="1" vertex="1">
          <mxGeometry x="53" y="985" width="130" height="70" as="geometry" />
        </mxCell>
        <mxCell id="jJhntovyl3X0jqXpgIId-7" value="" style="shape=image;verticalLabelPosition=bottom;labelBackgroundColor=default;verticalAlign=top;aspect=fixed;imageAspect=0;image=data:image/png,iVBORw0KGgoAAAANSUhEUgAAAtEAAAF/CAYAAACPN5UEAAAAAXNSR0IArs4c6QAAAARnQU1BAACxjwv8YQUAAAAJcEhZcwAAEnQAABJ0Ad5mH3gAAO1lSURBVHhe7J0FuFTFG8YHuxEVWxEEMUHFRBTFVhQVMRADu7EFCwu7MBHFAAG7MP82iig2igHYmIit2POf37dnLucedvfuuRcQ5P09z8LdExPf1DvfmTNbzwecEEIIIYQQomJmSf4XQgghhBBCVIhEtBBCCCGEEDmRiBZCCCGEECInEtFCCCGEEELkRCJaCCGEEEKInEhECyGEEEIIkROJaCGEEEIIIXIiES2EEEIIIUROJKKFEEIIIYTISZ1F9C+//OJGjBjhHn74Yffcc8+5b7/9NjlTnbvuusvtsccebp999nGPPfaY0w8l/jeYOHGi22mnndwiiyziFltsMXf11VcnZ4QQQggh/rvUWkR/88037swzz3TLLbecW3fddd0222zjNtxwQ9ewYUPXqVMn9+6771YJ5X/++cf17NnTDRo0yN18882uV69e7vfff7dzeUG0f/nll278+PHu77//To7+98F+K664omvevLk7/PDD3R9//JGcmQQ27dq1q12z0koruZNOOsn9+eefydlJUB5HHHGEXdeiRQv3+OOPJ2fy89dff7kxY8a4CRMmuK+//tp9/vnnyRkhhBBCiP8utRLReJs7duzoTj/9dBPTaRBod955p3mdf/755+SomyKCF5G42267ubXWWss+d9xxR3Lmv8+nn37q3nvvPTd69Gh3//33V7Nt5PXXX3e33nqrXcMkZuDAge6nn35Kzk4CocuEhuveeuutWk9ohBBCCCFmVnKLaMTwxRdf7IYOHWqe5jnnnNN16dLFXXvtta53795ul112sUf7iLwonGeZZRbXvXt3e+y/6667uhNPPNHuywvhvf/+++6zzz5zn3zyif0/s8CkIYLXd+zYscm3ApTFQw895H777bfkiDNvPWI6y7Bhw9z3339vf7MEY80117S/hRBCCCFEZeQW0XgtWf8c2XbbbV3//v3dgQceaEsE8ITiEe3Ro4ebb775kquc22uvvcxDPXjwYLf11lu7evXqJWdEJay99tpVNvv1119NCKdBPLPWPA3rlZ944onkWwGeFDzwwAP2P6yzzjpu8cUXt7+FEEIIIURl5BbRrLH98ccfk2/OLbroolXijv/5LLXUUvYC4WyzzWbHAfGMkN53332riTg8qG+88YYdX3XVVd2SSy7plllmGRONxx57rMXFtZdddpmt9017n1mSsPvuu7s999zTvfLKK8nRAnisWTvcqlUrt/TSS9tn9dVXd/vvv78bNWpUctUkWKtNOMTJchVelsRz3rhxY7t34403dnfffbelBRtcddVVboMNNrC8Lr/88nYt+cjC2mWWnbAMpWXLlhYWeWTN8g477FBtQlKOpk2b2vrzyIMPPlhtvTPLalibnIWlH4jpCPaMtqKsNttss6ryA8rjnXfecYceeqjZK9pujTXWcIcddpj78MMPkytL88wzz7gOHTq4Jk2amH0oy/POO0/LRoQQQgjx3yGIplwEEeaDAOSNQfs0atTIv/baaz4IuuSK4my33XZV9+y9997+r7/+suPvvfeeD6K56lz6M+ecc/pnn33W//rrrz4I0KLXxM8ll1xi4QWR64NI9Msuu2zR6/gEMerffPNNuzYS0zf33HNbWPPOO+9k980666w+TAZ8EOd+lllmmex8EI3+448/TkL0Pgho36VLl8muS3/mmWce/9BDD1VLSykOPPDAqvsWWmghHyYUyRlvdsJenFtwwQUtrTH80aNHJ1cV7L3AAgvYubnmmss///zzyZmC7V599VUfRHNVPNnPYostZtdEqA9h8lN1fp111rE40/fwCULdH3300T4I6eROIYQQQogZl9ye6CC8zGMcCaLRvLR4kvH+hjCTMzXDGmeWffDSHOCBPuWUU+xYXL7ANXPMMYd5cYM4tPXVkSB47Rg7grDTBPAi3QEHHGBrpiGIfHfqqae6448/3tb/wkcffWRe57guOA3LIk4++WTbBYS40t500sKyFbzQeKRnn332al7cDz74wPXp06fKy05YL730kv1NOvGCX3DBBebRjUtdWJrBGvG0d78UO+64o8UJ3333XTXPc5jIVHmm8fjHJRqEHyYM9jdQRtEzHYR4Ne/2uHHjzKPO/0B5YAtsh43hq6++smOlwINPnBDTCtSLK664wj311FPJESGEEEKIGRiT0jkJwrCopzcIQ/OWvvHGG8mVkyjmiQ5CsMoLHYSyf+yxx5KrC15RPNw//PBDcsT7IGyrecEvuuii5MwkBg4c6IN4s/MLL7yweZwjw4cP9/PPP7+dw2s7dOjQ5Ez19OHF7dSpkw+C0weh7Tt06FB1jg/5xFtNekgjnu14btNNN/VBPFuYeF27d+/uL7/8ch/EvR2L9O3bt8pbjGd47NixyZnSfP75536JJZaoiqt37952HFuRXo7hXSZfG220UdV1YVJi18HZZ59tXmGOb7vtttU8w5deemnVPc2aNfNBTNtxwn/yySct35zDhqNGjbJzWU80YUfbBbFueU97psMEwu4TQgghhJiRye2JBnaKeOSRR2w9dBp25Aji0PaLDqIrOVqatKeXtcOsm43eYTy8rMkNAtO+VwIeYNY2R48s2+ylvearrbaardMFrnn77bft7yxt27a1lyW5tn79+u7II4+s8oDzfxDQ7uijj3ZBHFoaWf8bYT113JUED/q5555rL1ymX7IE1hhHTy17LUfvbTnwZqc9x7zACdjsxRdftL9Zb035pHfcSK8Xf/bZZ80rjH3ZppA0RtJe4q222soFwW5/cy02wX6At//555+3v7NgC9a/YzueWvBUIL2zSLF140IIIYQQMxq1EtHAi3G8oMcj+lVWWaXasgaWJuy8887u5ZdfTo4UB2GJ0I0ClZ0k+EERXhZ89NFHq8RopRBvWhgjLPfee++qz0EHHeS++OILO4fgZqu4YrCMIb0UgclC3JIP0YkATpOeTJBmRGoaloaw/Rw/MsMLeyx9OeOMM6q9GJi9pxikgWUukZEjR1o+2Os5/sgJQpdlLptssklVmVBOCG2WYsSlHQ0aNHCbbrqp/Q2Ew3KUCLt/8CJntB1/s3QnUmp7QerCrLPOmnwrLOmgrkRIgxBCCCHEjE6tRTSwHzQ7YLAe9/LLL7ddHCKs2WX3jHIgnlkPvN1221V5RBFZbJOHJ5T1x8V+LKQUrPVFsEYQ0XiU44cfH+FX9QCBmRbK5cBbHoV+MdLrptMgTPH84ollK0DWe19zzTXuxhtvtB1K8k4SSEO7du2qxDE7ZbB+mT278WZDFPiI7SjuyTNrsxHb/NojsIZ82WWXtb+B9dvpH3B59dVXq9mOT/rXCPEyVwJpXnjhhZNvhScOQgghhBAzOnUS0RHEKGL6nnvuseUPEYRYTeCNRtwOGTLEtWnTpppYvemmm8x7W4mXFrg3ekERmmwrd+GFFxb94EHn5cKpCQIXT3v8wROWYnTr1s2WrbAcpFIRn4afWI/imIkKApqX+SJs6Qe8RBn/xuNN2SDoEfZAOGlIS9qDzLKMYnbjw5IdlmlUAmWXFufp5SNCCCGEEDMqU0RER9gvOe7iAKU8tFnmnXdet8UWW5jIY10uPwACCD4ENmIxkl42Er2vEcJhmQIg3po1a+aOO+64oh92yJjaPzLCHs3pnS7IH/td433nVx4rtU8aBHRc0kEe2buafZ2B/K+88sr2NxMKdk2J9nr66act/kgxEc2a6whLMI455piitkNAs7NHMdivOu1hR8Dz8+KRuEOKEEIIIcSMTG4RzbpZPMYslch6iNk+Lf3IP76IVgrEFmtv02uDN9poI/PURo8lyzPij3TgKU17S1n/HD2rgFc7vWb4lltusRf9/i3ee++9KhvxYym89BdJv4CYB8Qxa5mjOObHWuIPoLAemR83iWCL6O1GyA4fPtz+ZilGsZ/6Tq9dZn06Szzycv3119sThJhvtuGL8UL6RU8hhBBCiBmV3CJ6/Pjx9sIgO3CwMwU7PPDrhNtss43bcsstq3aZYOcKXi4sB+tzWQ+93nrrufPPP9+EG7/ud9ppp1WtnV1hhRWqPKQI67QQ5WfEiYOlBywHAXbCmH/++e1vxOUuu+xiYppf0WNHkd69e7tOnTq59ddfv2p99NSClySj2H3hhRdsj2jy2LNnT1vmUdv1wYjj+KIjQjd65Fl3HY8DO2TE3U0Q7HF/6BYtWlRbDx3hFxRjelmKQ9liO5aMINbZlYR9pLmuFMRDGfDT7tgZwf/DDz/YOSYAlLcQQgghxAyPz8mYMWPsV+u4tdSHfYFPOeUU+8W+SLF9ooOI9osuumi1e9Mf9k9+9NFHkxAKsO9wEGOTXXvxxRfbeeI86KCD/GyzzTbZNekPe0h/+umndg8US1/knXfeqfoFQ/ZhZp/sNGECUHVvEKj+559/tuP8euFSSy1VdS79wUZhclD1d7G9tUvBLxUuvvji1cIjXcOGDUuuKBAmNL5NmzbVrgsi2Z977rnJFdVhf+s999yzRtutvPLKyR3V94meffbZfdOmTSe7ng9ltttuu1XtoS2EEEIIMSOT2xONd/O2225zrVu3rrY+OcLjes7jbU2/OMdLdSzFYCkBa6e5l909Lr300qLrZPGUsiwgvQ0b4MFt3759tbjxUOP1BeIMgtpdeeWVJdftchxvaXr9drH0RfDmsqYZTyppTe82AXjH8bxzP7+QGJecsFtJv379qu1aAlzPWu9dd93VrsXTnt1Huhysi2a7vuhlJs88GcgunyEvxx57rK39Jj/Exe4dbCFYDLzY7B7Cy4OUTTFI63777Zd8K6x7j3lmKcntt99uacNWEf7m1xqvvfbaap5yIYQQQogZlXoo6eTvXPDYnl0n2DaNF/8QdKypZalAFJGVwjZ2bMHGz3FD48aN7eVCXpQrBuugWR7BC3UINMQja3zTwg1YWsLSE5Z1sK6anUMQfKQR0TutYP9qlkSwfAUBzgt/8QXI6ZVYJvwke7Qd5cLPr9ckhKkb1At+WAXxzi4h8YVHIYQQQoj/ArUW0UIIIYQQQsys5BLRvLwXX+AToi6wxSBebSGEEEKIGZFcIvr000+3n6sWoq6wh7Z26hBCCCHEjEouEf3FF1/YR4i6wsub6V+3FEIIIYSYkdCaaCGEEEIIIXKSe4s7IYQQQgghZnYkooUQQgghhMiJRLQQQgghhBA5kYgWQgghhBAiJxLRQgghhBBC5EQiWgghhBBCiJxIRAshhBBCCJETiWghhBBCCCFyIhEthBBCCCFETiSihRBCCCGEyIlEtBBCCCGEEDmRiBZCCCGEECInEtFCCCGEEELkRCJaCCGEEEKInEhECyGEEEIIkROJaCGEEEIIIXIiES2EEEIIIUROJKKFEEIIIYTIiUS0EEIIIYQQOZGIFkIIIYQQIicS0UIIIYQQQuSkng8kf0+fTJzo3MiRIaX1nGvRwrm55kpOiGpQjB99VPg0b+7ckksmJ4QQQgghxJQmvycasfbdd5MEG59x45z74YfCuSnJqFHOrbKKc+utV/g8+aRzn3zi3IknOnfppc798Udy4RRgp52cW3hh5+64Izkwg/HBB86tv75z223n3NChycEy/PKLcxdeWLDl++8nB4UQQgghRCXkF9EI1333dW6ttQqftdcu/N+qlXPduzv3++/JhVMAhPKHHzq3zDLOHX64c4st5txDDzl30UXOnXaacx9/nFw4BWAiwOTgm2+SAzMY2OSrrwplsMsuycEyvPmmcyec4NwFFzh3yy1TfgIkhBBCCPEfJr+I/ucf5z77zLkJE5ybbz7n1l3XuUaNCh5ihNwhhzj322/JxXUAsf7KK4W/DzjAucsvLwh1PNKdOjm3337OLbVU4fzMDuL5p58Kovioo0KpVlCsTZo4t//+zu22m3Nbb11YLiOEEEIIISqibi8WbrGFcw884NywYc516VIQ2Dff7Nw77xTO493880/nnn/euZtucu7ZZwviOHo9+f/vv53766/CvXiWb7+9IAhZC80H5p23cA3Xt2xZ8JxefLFzc89dOM9xlifcd59z/fsXlpgQXownC8fxOt96q3NPP10IuxhcR/qfeca5G2907qWXSl8LXJ/OT4S/Oca5CNd++aVzgwcX8jx+/KT0FguDcxzjE6+LxxDRlAWTjF9/rX4+hsXfMT7iatjQuWuucW7AgMLThAjXkefnnnOuXz/nnniieplBNlwhhBBCiJkNXizMxa+/er/22kgn7w84IDkYuPHGwjE+jz3m/T//eH/ffd43bz7pOJ+mTb0fMqRwfuJE7zfc0PsFF/S+e3fv55uvcM0xx3i/8MLe16tX+D7bbN7Xr+/9iBHeP/GE9w0aeL/qqt7/9FMh7ksvLZyPcXD9GWd4//ffhfNZevXyfp55CtfOMov3a63l/eKLF+K7+urkosDgwd43ajQpXD7E++KLyQUZvvvO+5VX9n7eeb2/7bbkYODiiwvHdt658P2337w/6CDv55xzUrik5/77C+cPPrjw/dhjC9+BfGOfpZf2/pNPCsf69/e+SZNJduJDPIcdViinP/7wvlMn7xdYwPtzzvF+iSUK15x0kveffloIa/75vb/33kJ4f/7p/eWXF47H8PhQFued5/1ffxWu+/BD7xs3LpTDgAGFY0IIIYQQMxF180RH8JiOHVv4e9ZZnVtoocLa4mOPLRzffnvnrrrKuU02KbwAd9JJBW8zEu377wsfXnJbZBHn2rRxbqWVnGvXruCBBnab2Hzzwot/LBX5+efCPXhDWcvcq1fhxcaDDnKuTx/ndtih9PKEt98urAPGY8uShg02cG7MmIKXNg1LVo47rhB+587OXXllwdP71luFpSTEn4X0cByvOOFHSC/ff/yx8J0X/667rvA3a7svu8y51q0L9wO24Xr+j8R8k088xYCHf/bZnTv66EK+eTkS7z1ec/IU7Uu8p55asMlGGznXuHEhjG+/LcRBuPDYY4WwsAVLZvBEt29fWLrD/ZwnTPIX15B//nnhXiGEEEKImYi6iWiWEbBjBksrWBoAiFJEMIKLlwL5myUehx7q3KBBzi2+eOE4Sy7SIOxYNsHyiq5dnbvhhklrnlkTza4ZiN4sUbQiEBHaCGmWabA+uJiQRmAiRBs0cG7IEOeeesq5Rx8tLG9I07dvQUgj4BHQhx1WWHbBfUwE6vJS4xdfFCYec8xREL7duhVemNx22+SCCjn7bOdeeKGwFp18X399wb4IZOJIw4Tk7rsL+cW+xSB/CHkmOyzz4AVSwlx66UKYnCfdK6zg3MMPF5aGUDZCCCGEEDMZdRPR99/v3KabFgQr3k7+Zu0za5WHDy8IMryYCGjWTPPSG15P1tiyLjcNa3oRzXiy+VQK4hsvLh5S4ujQoSCOEdBZEU287EoBiHtEOXHxcuRyyxWOA9e9+GLhb0Q6O4MQ9sknF86xFhghXlvwtpNuvMAIVjzbxDfbbMkFFYIwHjGiIKYRs6QzertJYxryuPrqhZcOS9n3vfcK/2PPOecs/L3oogUPPPDyKOHi/aaseSmRSYUQQgghxExG3UT0Gms416OHc717O/fuu849/nhBHEJc7vD114UX/u65pyBuEWFsVYd3Mw3CrJjnuCYQknhEt9yy4C1F2O+4o3Onn179xTxAaMdlFtxXahcL7sO7DXjb7723kH7CJgy81uShHFxXCsQ7nmeEPHbC677xxs7ddVf1+8qFwTmWgpDvnj0L3n7SGdOdBa93Tbt2sBSEMogvbALf55+/8HdcbiKEEEIIMZNTNxHN/tDnnOPckUc6t/zyycGEKKa5hvXRiLv4waPJMokpBaIWUfrqq87tuWdBLLJ0Ia71jeDpjcs2WFISz+O9TXuWEfRRJJN+vObp9LMeuFj6EZzRyxvXMyM8WfqRFcQrrujc668XllfgJeY61knj6Y5ilzXHkezaY9LM5IE8sfSEa/H6s91gbWHNOelkPXUEYc06clhiiUn543g6fUIIIYQQMxF1E9Hl4MVAPJq8iMc2eKzR5YU1PNasl44vx9UVBN8ppxT+Z+nBZpsVhF7WCw0cx3OLSGVNNi/OsT0fv/I3enRyUYDreBmS//nJcdb/4pEmD+QHjzpiNwvebV6OBAQuW+LxQh5LXNI8+GDhZULWXDdr5tw66xSOR6FNPgA73XlnwQtOHtPwoza8bIhwZ79uRDVrwfH81xYmDED+eGmRPON9f+ONgi222abwP5MIvOmkk3XSQgghhBAzGVNPRONd5UU/PLd77FFYV8sHwXjEEVPmB1mA5RC8WMePsBD+wQcXBDprrOeZJ7koBTttsDaYZSX85DVrktm/OutJ33XXwrpfPK6sh15zzUL4xBPXdmdhHTG/Foiw5YU/1hafd15BnKbXO3/6aWHnEmzBuauvLgh77mXZRRT6eMdJx847F8R5/fpJAAG+s5yGvLIemrQdeGDh/trC/axLR4iTBsLkJUQmJNiAHTvIG7t6cA02THuthRBCCCFmEmY9PZD8XRmIKEQVohNvbdOmyYkMLInAc8l2dwjCueYqeC4RjYg+hCxeTcIjLHam4H++Q4yHnSA4F3fq4Diftm0LH3ajYOkFohwRy/W8yMjPXxNnFkQm4pblFqz15cdbWJLCC4m8JMev9xEXohchjpeXvwmbeLiXF/i4Ly67SLPaaoXrOcfLimwZR1rIK4Id4YsXl7QhgPFec4z1zQjVeB/5QMATJ3ZmB5QFFijYD287Xn4EfVz+wTIOXnxkez+WXWy1VWF5BvGy/pyyIG3RvhzH883kgG3sWOZC/jt2LITHh0kI9/ArlIQdJyXYjWtJNyJbLxcKIYQQYiajHptFJ38LIYQQQgghKiCfiGb3B3baECLNJZfIGy2EEEKImYp8Ipof3uBlPCHS8PJh9sdqhBBCCCH+w2g5hxBCCCGEEDmZJflfCCGEEEIIUSES0UIIIYQQQuREIloIIYQQQoicSEQLIYQQQgiRE4loIYQQQgghciIRLYQQQgghRE4kooUQQgghhMiJRLQQQgghhBA5kYgWQgghhBAiJxLRQgghhBBC5EQiWgghhBBCiJxIRAshhBBCCJETiWghhBBCCCFyIhEthBBCCCFETiSihRBCCCGEyIlEtBBCCCGEEDmRiBZCCCGEECInEtFiquO9dz/++KP7559/kiNCCCGEEDM2EtFiqvLzzz+7PfbYw6299trus88+S44KIYQQQszYSESLqcYff/zhjj32WDdy5Eh37733uqWXXjo5I4QQQggxYzNDi+hvvvnG3XTTTe7zzz9PjojIxIkT3cCBA92oUaOSI9OeDz74wM0zzzzunnvucSuttJKrV69ecmbG47HHHnNDhgxJvonpiY8//tj1798/+TZj8/XXX7t+/fq5L774IjkihBBieqXWIpp1rn/99ZcbMGCA69Wrl/v111+TM7Xjtddec0ceeaR5LCtl7Nix7uCDD3avvPJKcqT2PPHEE26++eZzgwYNSo5UxnPPPecWWmghd+eddyZHysO64D///NPsNzX57rvv3BFHHGEC9t/i008/tTry1VdfJUdmTCirCy64wJ122mnJkbpx6KGHumWWWcaNGzcuOVIzv//+u9thhx1cq1atzMNfE7F9/v3338mRKUOp+nvhhRe6+vXruzfeeCM5Mu14/vnnzab/Bd5991130EEHubfffjs5IoQQYnql1iL61VdfdZtvvrnr2rWru/baa90vv/ySnMkPA/OZZ57prrrqKtejR486C/LaMMsss7jlllvOzTHHHMmRymnUqJGbbbbZkm/lefjhh219MBOA/zKIt549e7qrr77anXDCCe63335LzogFFljARHQezzyidcEFF3SLL754RS9oYu8OHTrYcpopCZPF9dZbzyZIaeaee25rP7QjIYQQYmYg94jHYI53c8sttzQRsPrqqydnas97771nHl3E1ieffGKPzotB3OzyMH78ePOylQOhMWHCBLs+wv0//fSTHc966DbZZBP31ltvuZ133jk5Uh3uY/lINt42bdqYFx0vYRpeqOPRbHZygYd4zJgxttyiFNybTSMTC8Lj/mIiirxxDbbBa1kOPJnkhTjK2ZEwuYb08HcemGSRz+OPP969/vrr7qWXXkrOTA5hf//99/ZJx8Pf5Jc84f0sBnnhPPkpdU0W7MM93377bUlPLWERJvWnprzH8NJ2J1zup95kOe+888x7utRSSyVHJkF5FIt3rrnmsqVLDz74oP0doS6QD+5JlyXxv//++5OJ3TSEX6x8STNPD4rlnesJN1vHDj/8cPNCr7baasmRyoh1EftV4mEH8kxdybaRLLWpG4RHuHyKtQ3sQZumLZZqF7Gtcj4L12PXUudLEetjtpyFEEL8i4ROPRdhAPN9+/b1t956qw9C0AfR6ZdZZhkfBoXkinyEQcv37NnTN27c2IeB24dB2G+66aYWdpowIPrTTz/dN2nSxC+99NIW76OPPurnnHNOf//999s1b7/9tt9qq638yJEjfRDkftlll/XNmjXzV111lQ8Dj7/jjjv8CiusYOnt2LGjDwOl3QfvvPOO33zzzX0Q8/b9t99+83vuuad/6qmn/BVXXOGbNm1q8e66664+DKJ2DXz00Ue+Q4cOPghp+x4GO9+nTx+/4oor+iWXXNLiw17k8+ijj/bNmzf3s8wyi19jjTV8EOB+wIABZtN+/fr5gw46yAex6cPExOwxdOhQH0SkP/bYY+2+ILosT126dPFhILb4Ivfdd59feeWV7ZpWrVr5Bx54wDdo0MCfddZZyRUFHn74YYubvGCHLbbYwuwVCQLA77vvvj4INt+9e3eLr23btj6IFrPvNttsY2GXA1vvtddeft111/VffPGFpYm8cTzNxRdf7E866SQrF/KLzcaOHWvnvvzyS9+5c2ffqFEjSyt5evbZZ+0cUD8uu+wysxXn+Wy22Wb+448/Tq6YnCD8/DnnnFNlJ/IfJoOT3TNu3Dg7Tpik68orr7SwiStyzTXX+AMPPNCPGDHCypFr27Vr54NotbLZb7/9LHzKH1tS/hHqxy677OKD+LXvQRj7rl27+iCQrF7GeKk3Ee7v1auXP/TQQ5Mj3trLTjvtZPFwT5gIWn0Mkxf7e+655/YLL7ywpY/v5LNc+XLv7rvvbm2Musv/lA9tj88hhxzil19+eT/rrLNaeRAubQuGDBlidQPbvfjii9YOsU2aIL79dttt559++mlrJzfeeKOFQ9r5bLjhhv7NN99Mri4OdYi2Tb0g37TR66+/3s8777zJFbWrG/DBBx9YWyZcPtiFfiHNXXfd5VdddVWrP9iHeCKkjTzF89iKPgvbAf1GmGxY2WJf+qbTTjvNyiTyzDPPmH0ff/zx5Ii3ekC/GPOy/vrr+zAxTc4WGDVqlJVBup4JIYSYuuT2RON9PuCAA1wQk9U8YrWFx86PPPKIPSJmbTEe7pdfftmFAT25ouB5YqkHHry11lrL1k7jfQsDaDUPE14nvNhBkLgXXnjBvGNhMHTHHXecrZlkTWsQCbYMJYhOFwbA5M7CCz1PPvlklecuDIguDGguiFB38803uyBc3Y477uiCgLR12Hi5AM9QGPCq7gtCzx1zzDEuTATc5Zdf7vbee2+7hjwEwWLeRx55hwHWXrZbZJFFzDvFGsi7777bBVFkyz2CCLNzQcS7IErM3qQliCx7EhDEjXnNuJc8YwvsR56DSHRB4FXzdBH/Lbfc4oJ4s3APO+wwSxveYvL14Ycf2nXke9iwYbbGFRuRDuzFcpUgKNz//vc/e2pQDl6K4jrKkjSRH2yZ9bzhwb/99tttKc9uu+1meeRFRDx95CeIMHfiiSe6888/3y222GJWBqQXeHrRv39/F4SrC0LFBYFnL1F26tSp2tOHNKw3pfyCkLM4yT8eYZY8kG8I4t0FMWhhhYmApYt6Qp1Mw3nKizCCaHL777+/2YewsSc2oCxYJ8za9PQLnjzxoFzj0wjyFCaCbtttt7W6QdmQX7z4MV7Kj3oQbU+5n3LKKWYjlkBhoyDYrR6HiaULky5bmsTSEeoZH76XK1/qB55/6s7ZZ5/t1llnHXfJJZe4IByt3Qfx55ZYYgkXRJ4Lk0oLk+UlgHeadoCHmLTznsINN9xQ5SkmvWHibe1j0UUXtTzTnlu3bu1OPfVUFyaYtgUi9Z88FIO2ztOqMKmxcqcdUm9ZNpSmNnWDcqfceEmZvNPWSDvtLbZt6gp1gr4Ku1BOeJ0jgwcPtjRhJ/JD/cd2P/zwg/VX5A0btG/f3upcmMy6c8891/qlWP+ykJ4gzK0/4TrixNbUqXgPfSjx0rfxMq8QQohpRBjc6kRdPdFhcPNhoDcPDzzxxBPmqU174fBm4lHDaxoGDjuGtymIDp6lVnmi8eLwHS8YnmTAYxMEgm/YsGGVVwnPT4sWLcwjG4keoDAQ2vcg+MxLR97wLkbIL2GFAd++B5FjXrCYBryr5AevVjHwPAeh6N94443kSMHLiLeZtIfB0TzT5cBbiacLLzVeru23397SiicTCA8PNOFFT/RPP/1k3iy8w2lPOp73IK58EP72HS8qXm+82Hie02CTIODNA1qOe++9188+++w+iDX7HgSNPTHAq58Gjzpp7N27d3Kk8KQjTFr8fPPN54MQS456H4SIeR+DWE2OTE4QklaGNXkz0wRRYuUZ88QTAcK47bbb7DuECZkPE8Zqnmg8itSrQYMGJUe8eRXJD15oygDCBMfqc5go2nfg3nQdwpvJfWGyZx5aCOLQyoD6ABynnKm3QHniuS9VXzhPOeKpTlOufLNwLU9giDdy9dVX+zAx8KNHj06OFCAP1KMwQbC2x9MkPP6EAbTXjTbayAcBWs3zmoZ6gJ1pU8XAk73gggvaE4oIbQBvdtoTXYxydQP7BTFrYYeJVnK04Jmm3+HpBfBEgnpZzG60qVVWWcW3bNnS2kmEekD4eKipLwMHDkzOFM7tscce1h/QD0IxT3QWnkhQBrFfIpwwYTe7pNu2EEKIqcu/+hZQiN9df/315rliTTKEAdE1a9bMdsmIXmZewsNDxotSYYCxY3jB8cDhdUvDebxF8Tie3yAYzMsXRIcd4yWoIIgszJrAs0gYEcJgPWj0ImbBA8h5PJ1svZUHPHR42oq9cMY6VTy3eCI5TxzYBy8UXj3Wos4///x2Ld7MffbZx15Ei+AZZb05XkfyH8Gzj+caz3Gatm3bmrcxTRAqtvabdJaCMsXbRphB8NmxMKmxMr7iiism87hxHO94hPN47/CW48EbOnSofVhXTTmmPbqAHTiGXbg+CJay680Bm7F3dbQlTxU4BqzrJZ/UwwiedDymWUhPEIbJN2f1Fm8vHnPKAHj6QF0MQse+l4Ky4gkLHmHgPmyDh7QYlCH2xfuJxze2lUopVr4Rnpywhp117WEyVNJ7WwpsQFul/sfyIh946mmH6TZLuvEc4x0nXupPqbzgdcbzG/sKwG5HHXVU8q06ldYNruOpwtJLL23tJNY50sWTkejdjW0b7zZ5Ia2RMKmw9NHuqD8R6gF1DC82u/+sv/76yZnCOZ6aUed5clYOriFO7ER95Xv0ghMOnmm2tCS9Qgghpg3/qohmYEUsM5gzaPF4+emnn3YtW7a0QQXRCDwKZSBCVKSJgjpLWoQiShACUdREGOhqEjYQB8EIYTF4MiAXg0fIiCF24UBwd+vWzbYySw+4pSDs9AAMCH2Wo7ADyBZbbGFLHlj+Qnh8yAPLJBo2bFjNHtl0Y0OEIuIsfRxBwyN5XqRKw4Cfvq5SEBwIcgQe2wZSpggIBCbp5lF0GiZDaVGPgOIRNo/2EaM8oo4fluvEOoAYYokPy2I23HBDs8s111xT1s7knyUE2AAhxj1s0QjxPuyAEEmXA3bI1p9I2kaIR0gfi3WvpvLPxsHf3FuqjlLWLDlA2CGg+P+2224zkVcJxcqXJVS8WMtyBJYcdO7c2cqrprRnIdztt9/e7Ih9aSu8EEnZEj55QwjS9qkX6667rk2kWKZRDpaKYI/sJC7bD+StG9QL+iIm6/y6ZqxvLHUh7SxJgo033tiWeiBk11xzTbfvvvtW1WfqDXminRaDuovNs+2b+ky94UXOYpBfHA0sS2Mix5IUJqOQt1yEEEJMWf5VEY1wZv0jgxIemfhBhCEG8LIxiDFIMmBUKhD+TRCECDXWsiJyWM+IZzx6OvPCuurevXvbmlc8g6w1ZZ1uGuxD+OUGVa5BvKTXcAL2xcvNAF9XiJ8t0BA7/DBJukzxbBI362bLgQBDVDRp0sTymv5gU9anw0MPPWRrzxE9TLY4d8YZZ1QTolnwkONFZJKDLbmHMNJgJ8ReJROsfxsEKG2FdsRElPXZ/FBHbSC/iHHK54477qiyzyqrrJJckQ9EH08gqA94aEkX3m/SDKSbesGTnhgX+82Xg7KhftTUD+StGxynzjF5L1bnWIsMTMiZ0FKXL774YrMTE714jrRl21eE88XqFYIfrzJr54vB+w5MxBHPMU3nnHNOclYIIcS/yVQT0YgzvCt4Z0qBd4oXlXjhC09p/OCJ5LEnnkxeMuMxKwNoeps0BiM8nAxA0xsMyqSZgZyXMHlpMA6u5AOxWeqRdRZeQMOjhmcMYYLXOC0GGPxZ+oAXLdqa8FmukH50veSSS9pAjYc/HTfeR+7FY1cT2JzH3aXKFCFPmfLiFWWYLlMeRZMGXuwrJ/bxjMelNsRHftMfXpQD6gJ24IU+vH/Uo/QygWLw8h6eP174i/dkhRV7HVPnWPoSwUsZXy6bnkC04e1lSQ6CjrTz8mGEvJVrf2koI2zKy3WIX5YwLbzwwsnZSVB/ads11V/i5kU6wsWTSvkjBLkfEM4IS15iZMJEWdT0ojLXcM+bb76ZHCksxeDlyjR56wbeYZ6cUM6kL1vn0t5jwiU8XlZkkhyXq/B0g+VU9FlpocxSGPooJjksKWFCEaEdcD1xsmSoGLQX4ufly2gnnlBkoZxLvZAphBBi6pBbRNPxs3yANYB8EBwMEjzG59FmHEAY2HgsfPLJJ9v3LHgrGUB4RJp9PMtgytpdxB2DFLsO4CVi7ScigYGzb9++tn44PWBND/Tp08cEA4MaIpZBk8E1DnzkFXshZhGdNYkRRB/ClQGea/HwsvYxgq3YqxrRzK4d2IZ1vTyKTnvsENoM1AzKeBs5xwDPelL+ZjeBmsB7iCjh1/uKwRIMBA5LWrKCiHyww8Dw4cOr7bySBZHCDgTYhgkIYhpbxnxhWyA/2AP78j/H8WQi8ErBJITH7vEeJmHsUpGG+kh87MjBxAcb8dg+7goyvcASIdbd8xSB9LKemDYVhS+ikb/ZCYT6gz3L2YbyYn0x5UeesfdFF1002S8QUn+xC/WXa8rVX8Q9SyEuvfRSe0KTXlfOce6lLvA/E26eupQDIYq452kEkxziZwkIP+iTJm/dQMTihScNeJ3JHzbFZjwli/WVp0r0a7Fts04/vodAX7fZZpvZ8hU84aSN/nHrrbe2iQRrwWn39IeUFedphzwZoa9jeUgxqLOUMY4G8sI67exuJMD7IXj5s8ulhBBCTD1q5YlmvSFrMPmw9pdBGu8jW32x9g/wkjGQZ9cARnhMyWCFRyd6pyLci9eKgZct0PifAQxPJmtZ8cgw4CKqEWfRy4RQxVMV16YCYSEQsqKOMNPHsvci5vg7m37i4rqYZq7hE9PAgId4YD00W4AxCDNQxuUSbGuF14strhh42SoLuJ9wSG8atjlDcOApJlzEHQM+6SINpLN79+62nRYvNeGNRMTiBcejSz6B/LEshEfqrFclbq7lcTe2JK1A/KQD22TTQhjxXDEQD6SJda/ZezmOOGYSxouDQDikjzyk4aVE0sSjdOyIvRBQrAmPgoZ1rqylxUPP5IAlLngesQvlUwwexZNPxA73UAasccVDH+/ZYIMNbNsxJht4F5k0YH/sGW0JsczTaY91KB0/+c5el70XO/A91qkIx+KLYtiT+DkG/I/Xn3JkyQUijPYXX7IjLeQPwcZ5nowg6kqVL2IQzyoTV+oN4SHcWBKRbgO8SElbZ0s1bMNWi0CYfNJ5x4uLZ5uJbvRuR2jfTKpY6sRLnNidddjZMNJQDvzgDOcpR+Ln+3XXXVdtOURt6gYTUSYlrCtHjFLn6GcIi/4NENVMspjUEz8vI+IhjmA/8kLeqK/8TR2i7WMz+jBsSric5+VL6jR9QCz7WIfid+xMnGy7SHisHWdrQyZIXAu0KSaHfC/VNoUQQkx56oUOeIZ5OwXRzfIGPDqI6fhof3oCc7IrAR4rBkMGQAb/NHj62JOaaxESNeUDbz9eK8JDIKfFXAQvFZ5VJjEIAgRMMRA0eBvxzuF5RJxPifXQUwPKm/W+CAQeY7NvcTqt5IUXUfFWI4zTu5GUAg8i9yCIStmecsGjx/pTBBWiMiv0pwfwiOIRZqkJEyLsE4UVkA/KGY8pE14mcDXlA8HIbhbUH5ZUFROdPImiPiLCsXt2olkplB9xsQyBssi2k1LgcacfoB0wKSzWHmpTNwCvMXtZ0+YQ6QjXtDDFPkyMyTttO7vkBW93fNrCvUwC09D2CZ+lHdQrJow1QTnTDsg3/V42TiZKTEKYMLDXtxBCiGnDDCWihRBCVIf18Kzz5weNsqJdCCHE1GP6c68JIYSoGDzRvLwpAS2EENMWeaKFEEIIIYTIiTzRQgghhBBC5EQiWgghhBBCiJxIRAshhBBCCJETiWghhBBCCCFyIhEthBBCCCFETiSihRBCCCGEyIlEtBBCCCGEEDmRiBZCCCGEECInEtFCCCGEEELkRCJaCCGEEEKInEhECyGEEEIIkROJaCGEEEIIIXIiES2EEEIIIUROJKKFEEIIIYTIiUS0EEIIIYQQOZGIFkIIIYQQIicS0UIIIYQQQuREIloIIYQQQoicSEQLIYQQQgiRE4loIYQQQgghciIRLYQQQgghRE4komcy3nrrLffuu+8m34SYnNdff9198MEHybeZlz/++MO99NJL7quvvkqOCCGEEJOo5wPJ3xXz559/ukGDBrlbbrnFBpiVV17ZnXbaafZ/bfjtt9/cdddd5+666y73ww8/uBYtWrijjz7arb766skVMwfvv/++u+2229xff/3lZpllFrf44ou7TTbZxDVp0sTVq1cvuar2/PPPP65NmzZunnnmcY8//nhyVIhJUEdWXXVVt9Zaa7n+/fsnR2dOPvnkE7PDySef7Lp165YcFUIIIQrk9kT//vvvbrfddrOBZZFFFnErrLCCe/jhh93GG2/snnnmGZdXk48aNcptsMEGJsIbNGhgwvnjjz+28K644gob1GcW7rzzTnfKKae4wYMHuzvuuMNsgqBhAP/uu++Sq+oGAp1JkPhv8MYbb9hE65133kmO1J2///5bdSRAX4Yt+EwpxowZY33bc889lxyZdnz//fduu+22cxdeeGFyRAghRF3ILaLxiLZv394GbcQewo//8SBfeeWVJtIqBWG40047uQ8//NA8o/fcc4+78cYb3VNPPeVuvfVW9+OPPyZXFmBQiyKwJnHNwMe1aVHP35XcWwkxLemw4rFsvJVCWNgXbzTi6NNPP3UHHnig2fXmm29OrppEFDv8Xyo+wozXlCNv2rkmxl/KnjWdj9TFZsWIeU7HG/NXzlZZYjil0hbD5JpSYcZryuUvxlMubRwvlpZvvvnGjRgxwn377bfJkUlwXSyDSuLn/1LXQE32iHCOa2qydbwuxj01qMm2tU1DtGupe0rFSz9JeX355ZfJkcmJ96bDrjSdXEecxcoIB8grr7xiQr4Y6Tiy9wohhJic3CJ6jjnmcF27dnXzzz9/csS5tdde2y200ELm6SjXwWdBNLOEoVevXq5Vq1bJ0YJQ32qrrczbzbIGeO+990xQ4nXjc8ABB7g333zTzkWuvvpqE/TPPvus23nnne06vLmsbfziiy/cYYcd5tq2bes6d+5czXPHcpJTTz11siUOjzzyiDvxxBOrvMDPP/+8pZV8HnfccRZ+p06d3GuvvWaDz7XXXuu22GIL+2RF7/jx491JJ53knn766eRIzcw666yWZmzNwBv59ddf3VVXXWVepY022shtu+22JrTJZ5rRo0e7ffbZx9K5ww472JOCYmDb/fbbzzxkm266qXnDi4myCHklf9tss43Zs2PHjtU8a7/88ou7+OKL3dZbb23neXIxdOjQqoGZQR5b3XDDDe7RRx+1cDp06OA+//xzO58GsXHCCSfYpCLNfffdZ2UGhDtkyBB3/vnnWzkfccQRlpe9997b8kadvOyyy1y7du0sTUxSahIixBdtsvnmm1tclHvkp59+cmeddZadw77ENXbsWDtHveR66s25555rNqVOXHrppSZQ0lAmu+66q8VDnadcs+VIuIceeqjFs9lmm7njjz/e6hNlQL64Hu/iwQcfbEswyBvniTvWkS233NL17t3bbJ+GehXj33333W3NfDF42kRdpzzJM2WCrSMTJ050Z599tnvggQfsKQrX7Lvvvta2isFSCZZskR/iJg1PPvlkcrZQR/r27Wv5S0MZ0CZpc6WgD6BujRw50u25554W/i677OJeeOGF5IoCtEXaB+VDvvbaay/36quvlhWQ1H0m+tGu1H3qXtqurCmnjyFMyvSSSy6xMqLOnnfeefY3eaO8LrroIqsTlDH2IM0HHXSQlXW/fv2sLIcPH279HbYiTPIybNiwJLbCRIo6wfrt22+/3doTdZ3+JjoiyBd2Q8TTVom7R48e1laB9n766adbPcVe2C3b5oQQQlRnirxYSMfMYMnyDoRfpSCsWJ9Lh18OBofWrVu7J554wjVu3Ngtt9xyJr64L93Rs6aaAYsBB/GN+GSQYnBCALB0pGnTphbOjjvuaIMPMJBcf/315gFPgxjv06dPlXgiHYgcwmJAJi2IIMT9OeecYyJlmWWWMQGDkEsLSwaxCy64wOLJM9GYc845q9mUAReBduyxx5pnaY011rD0I2q6d+9eJcBYq046ET/LLrusDfIM7GkvFGIBkYkIJ33bb7+9rZlGgDBRKiWA7r77bsvzYostZnGQRmwDpI/JD4KKpT6II4QwQvrtt9+2a0gLEyiEH+KTcuKTFXiAUMPm2QkTZXjNNdfY3+SDcmD5D0KDeJo1a+YefPBBE0mkFUHSvHlz99FHH7nDDz/c8l0KJnZMOqgvTMbWXHNNqwdHHXVUlX2ZJFCe2B+7Ye+YP/4nLRwfMGCA2YGJD6Imlj9pJn3Eg9DBjtRNbIeYibb4+uuv7WnNvffea+cbNmxo9Zzy4kkFT3EIjxcBsdG4ceMsbPKLyF500UVN0DIxRUQxeYkiESFLuVCXsRdxcW16MkPYAwcOtHIkLpYXUVbYHqFFvoC6ctNNN1m5M/Fbcskl3VxzzVW0rtPuEJ+ESx3CPghPjjGRJX2IVSY7vHuRhokJk+VyIvqhhx6ythjrHnajfjKBiv0FbZSJCTZYd9113XrrrWd1ivqSfQIWIU30L8ccc4zZdY899rD6jg3/97//2TXYg7bDJJ0+huVppOfnn3+2uoxYJn+UHeVFXeM79ZJ8YTvSynsQtG+g3HgZmPXZpJPyIo44ued/ypWJPf0CacPZQfui/wP6MNJEHhDMxE2Y1DPqNMKdOr7OOuvYhJbJFPZLT5SEEEJkCB14nTnjjDP8bLPN5gcPHuzDoJkcrZmNNtrIB9Hpw+CdHClOEBh+4YUX9qFjt/D5BIHqw0Dh999//+Qq74Oo9nPPPbd/4IEHfBgsfBjg/DbbbGNp69mzpw8DnN3bq1cvHwZ4P2LECLsvDOp+8cUX90Hk2PcI3xdYYAEfBIp9v+yyy1Afft999/VhoPVhAPLXXXedDyLXr7jiij4MiBZ+GJh9GMh8GOjsPvjpp598EFA+DFwlbRSEuA/i34eBPjni/Y033mjhn3/++fY9iAxLO/kJwsXCmjhxog+CwM8+++z++eefr8pjmKD4MLhbOrEF8WML7A4cC0LIB5Hhg3CyY9zbt29fP9988/lXXnnFjmUJItQHYe6DcLTvhB8GfPs7TETs3v79+1sZEB7lG0SaD4OyXcO1W265paXlyiuvtHRwHZ8sQSxaPoIYTY4UCJMUqxNA/EE8mJ2CALVy5liYbPggHn0QHpY/wh82bJjZL4gLuzcLaaa+BcHtg4CwewiL/JAO6h1Q1zbddFMrAyAPQYzY37feeqvVkw033NAHEWdhhImmDyLIL7HEEnYsTHz8+uuv7zfZZBOrS0AYhxxyiNk2CB07dtZZZ1m8QeBVpSUIQKtP/E35cj5MSO1+jkEQVvaJNiWdxB8Eo9mHfIbJpm/QoIEPAtauox7FOhiEod1HXSbNQYBanFxHPGGiZe0viDe7jvQuv/zyPkyo/J133llV9jH+CMepqwsuuKAPYtDSyzXUkZVXXtkHkW7pJr3YeO21107uLEBbpH6FSUJyZHK6dOli9g8THSsTwn/ssccsbUGQ2jWkg/KNZcY11EVsiT0gCFu/0EILWThAu5x33nmtv8MGEMSpD0LZh8mbfX/55Zd9/fr1rR0A4VLW/M/nxRdftD4qTBCqlRfpw56UUSw3PkA7i/WMY2HyZXWY/2H06NE+TGzMfmGiY2FSHquttppv1aqVXcN9tAHKkj6TuLEBhEmZ3f/oo49WlUeYjPmlllrKH3300XaNEEKIyamzJxpvK145vG54MPB4VQoe1CD8ynqv8QrheeERI55EwueDV4YlINklCqussoo9CiXMINLsexi0XBhY7X/uDYOLeWSiFy0PYfA3TyHeOLzdQSiZxw3Pc9xFA2/00ksvbV7BSBj4bXlAzEMpQpnYTiVnnnmmeY7xmvLiJekPg5t5L8NAbmHhASYs4sdbyd94kMgbNiMdeK5IJ7bA68vOJ5EwMLsw6JtHHS8k9+J9xZMVBlPzDhaDcLmex+Z4wQgfzxfpYwkM6cL7jeeL8PDSYpv0khTAA4k3k7SR9nJ2qQS8mpQD5UyayDthU15BPFj4YbJjT0xY6lIM0opHkrqFx5T041nGA0ydwl5A+eLVvP/++82OxENdjpAGPIGkiXjDZMzeJcAziteRsEkDO9rwHdvjGcRuEyZMMO8gSyTw+uP95QkB4ZAv0k994m8+wP+kIX6nngYxZ20M7ycf7qE9UT/wjPKkBU9py5YtLWzqEcsCKKsIZUhaqV/cz3XEg+ccm7JEIQ3tAQ8stuJaPml4akUdYQkYHmDSyzXYl6cI2AIb1ZUgAM2rTJkQPm0eu7FcAkgfu9+QF7yt5JM6jG1KeaKDADbPc5gsWFlRZniUKZ/4FILyDkLcXX755RYmcfM92qJUeUV4ikbZxeuB9kg+sAvxcg8fyiUNyzx4Ssc5wqAO43WGdNz8TdzYgPzSjsOE1OIhH9R52jX2ybZZIYQQk6jeg+cAsce6UHaOYHBFSCMc8sD1PLKkIy8FnTmPIhEbdPwRhBqDWRwkItlBKQrnOCABYgEQfXlJD0bAAMlgxCcNcSCEagPLKRBgPLJm3S2PuHk8TnoR5ggyPmkQIdiHMsGeCDHWqadtRrrT6SR9iBpEI6KGZQt8EEiI6FLpZ6BHoPL4GCFMerk2po+4WRYQw+PDetesvak3aeFZV7LlzGSD7+k8Ex9iqdQEivqEiGIpQTr9TBKpq9EmLM0gfB7lI9CYzGGzCPFm88bkg+PUaQQQaeAROmInxsMa/pheRDQCD2FEmvOAeCaNCKGVVlrJlp2kJ5yETbuiXqWhjqTrN5MK8sWkIQ1lhyjlfBrEWLYNpiFd5D8bHpAW6i51uK5EkRihnSIsiRvov5gQIYApFyYTLO+AUv0CZUH5I87TdYO6EiFfrDVmCQf1gkki7YH4KgGbZkH4095IJxMe6iJ1J5vOtN2pZ+S5VF4i5IfdkPiwlCOdL+Kt6X4hhJiZKT3a1QADCi+wIMJ4mahRo0bJmcpBHDCQZwfiLAwODPppGJTwpkVBXBei8JoeBgzSgoeQwR5PFuu502IMWyBqsoMyHjLSj9giDD7lJifANYTHS2e8NIn3On7wQCEAisFWhKy1fuyxx+xe1lOybpPwEC4Ies6lw+OTXXNeCYQJlYqQukL6iZO8Z9OPJ5IXsoAnCniiWZ+M9xg7sN65HHisyQd1lniw/ZFHHjlZPLw0hhiN5cN9eWFtNd5QJmGIZ8LlpbQIYfMpNVGKRPtnr6OuMalAqOUhxkt9zUI+OZeeMEypcqfNECeTb2BNME8GEO68GEj9Zx17OSgz7metebbM0i8Ms66ZCTDrw2kHCODa/ngNT3yY1NKWqWvUDd4nyGv3UmBv8oVDIpsnPryoKIQQoji1EtF46+LLWbzQgpcrDrYRBr/oFS0Fb7cjjhnEsgKWQQ+BjWeGDwIm7T1EZPI4lcfzdYVBG88VYj6mg3Snl2NMCRD9aW9lKUhL2oMcQVBF73t2UKYsSDOeMAZFPJA8/iXOCN5PJj0R8o1tES945NJeKDxeeFpLgRBkiQ0vsOF1xvNG+niJC7HCY+10eHxYNpIXRAvhIiYi1ANeCJsaxPpG3cUG6fTjrWQZT4TlErwYyHaMLG3ABhHKmUf9UQRSr3hhDLux1IBH54SFOM3GQ1lQ/gglllbwCD9dblEQAraBbDtjwkJYhxxyiL2Uy9/p8iRsJju82JYWtJ999pl5iyPUJyZxtLU02J/6hRc9D+SZuskEMS3MsRP5xKaki3yRRupvTB825Jp0ektBvxK9zsCLhNShWAd5+kI+2TGFFw5ZHlaTI4DzpIGnQOny4sOLmRHSjvefF31pH3h547KI2E+W6xfTcB9LXNh5Bg80T4yIK5Z7Hoib+9J9EH0AaaVNMRnM5is+MaB8sFdtJnRCCPFfJXdPjPeJ3Q7wvOB5Q8TyNj+ftAjFS8fAFN8OLwY7H7BmOe5sEQcWBk52QmB9JiKqXbt2Npiw/jTC9QxOXbt2TY7UHsQFAwhrNdmBgDzyKDz9mLauYA8GJQbD2sIAiM0AbxfCABDQrPtFILAmFQHGVlU8LeCNf8qECQm7CaTXAiPo2N4L2/I0IQ2PcksNmP37969aRoOgQazEdZysnWXAxYOeFn7UjXI7YpQCTyGii90gEHgIL8JmbfjUAA8wdsLTzh7osT7zPxM5hARpYJuzKOawEx+Wz0SoQ9RN6hT2QNQSHut+eQLDtUw+8SoiKCOESXnQFqj7+++/v9VJdoVA/BAPHs648wvhED4eSv6PUKepH4hJjtN20rvFsBwj7sJAXsgfghpBiZ0jtE9EP+v0Y92hvFnSQ3mzBj0PiGjsS/2i3ZNf4ubXT5lMsyMEEzDqMGumSRPnuIY8spQC29YEgpmnBizN4V7ST32kXQBCmHJkogOUK577ctC2uI90x7YH9FdxkoE4T2/VRzshftoHcD+TXPLC8Zrgeuwc2w6TO576pCc6lYJgZnkb5RiFNGnhSRJ2YnlW+okfE3XqHjBhIv/YXwghREIYYHMRBgXbUYNbs5955pnHdh4AdgsIA6bv3r27fS8FO1rw5v/ss8/ug2CyN8x5uz0M3vaWfxho/NixY+1N/TAI2A4AxM81vDkeBpUkJO/DAGk7Ivz666/JEe/PPPNM24Eg7rAB7HRAWM8880xyxPuBAwfaW/8NGzb0QYzargBHHnmkvZ3PW/oQBKntuhF3sgDeYmeXCHYrSNO2bVtLT4RdHbBHt27dqt7Iz3LhhRfaDgJhQE6OTA726NOnj6WLD/bC7kGg284AkTAo+s6dO9uOFeSHdAcB7oPI9ZtvvnlylbedHtg1A3vwNn/r1q3Nvuw2EssySxCHlhdsxM4e5H/QoEHJWW+2ID7Ks02bNhYuZcDuBxBEkG/fvr3fYIMNqpVVKdgtJAz+FmajRo1sJ4QwwbLdAwB7Us84FwSeHYNnn33WdlOIOyUA9YW8pXd1yTJhwgSzE3YNQtd20cAm7NgRRJftlEDaSc96661n6cAO7IwC7M5BOQbB4YMgtPtIP2GNGTPGroE333zTwuFc3DmD+kddDyLJrgkCze++++5VdX/ppZe2tLBrCQTRY7ut0H5IA/kKAtx2E6GNtGjRwuoi5br99tv7li1bVrUZbMUuKdQRdk8hrdxPmvbee2+7hvpGO6GekSdst8gii9guD+wcEyEszrEzRk1Q5tgmCGXbiYR8kT92iqHeRoIQNvtyHekj79ShMAmZbLeWNKQBO1JPaCPUizBh9GHyX5V3ypi8U4+x96qrrmo7vlBn4w4s7ExCOFdccYV9B3bEaNKkidV57MTOHEHo+h49etj5u+++287Rf7Vq1crC32uvvaryRd2hbmFz8r3xxhubPaijpPG+++6z6yK0FXZKoY6wkwth0u/RpumzgP4xiHR/7rnn2vfIMcccY3UiQr1gVx9szf2k8ZtvvrFz3Et94Tj5orzJB30w0AdS5qRBCCFEgXr8EwTwvw5eZfZ+xkMSX3JLP7LEa4M3Fw8Oj3lZzxhETHJ2yoD3Cs8gnjd+JAFv2PQKHiO8xyw5ifvcZh/xYjO8p+wpzDU8eo+Pk7PgdWL9Jl4+riM8vFTFoMqw5pO122GgtSUNeDbTEA7eXDyJPBLG480yidpC/WC5RBjkzZs7LcqGHS2ok4DXmHoZ16fjQeVpDB5IlrDgwY1p4gkGPzQS7YMXmGU4rJvO2pT6Tvmw/jSIG9uJheUcWYgHLyf5Z1/vdDh4QtnFg0fy7IyBJxeozxzHk097KWYz6ghecpZJ8MSHJ0vF6kjMLzs34Eknv3jK6wJLQqgjxMf7FXHpQBo879RzvN/UM5Z61ATr2bE9dZQ+A9uxYw8vJ6fzRp7Y35m6hX14GlUJ3EdZYAtsjd14YhLhqQtppjw4l42XtkGdoHz40Zaa4qWM2FO/VD7ywo+3sAac5XTU6Qj1iKcBeJ0pY9LO8hohhBDFmW5EtBD/FdIimsmgmLZEEY2AlggUQggxtcj/dooQQgghhBAzORLRQkxhWBKx11572TIKMe1huQ8/TsSLs0IIIcTUQss5hBBCCCGEyIk80UIIIYQQQuREIloIIYQQQoicSEQLIYQQQgiRE4loIYQQQgghciIRLYQQQgghRE4kooUQQgghhMiJRLQQQgghhBA5kYgWQgghhBAiJxLRQgghhBBC5EQiWgghhBBCiJxIRAshhBBCCJETiWghhBBCCCFyIhEthBBCCCFETiSihRBCCCGEyIlEtBBCCCGEEDmRiBZCCCGEECInEtFCCCGEEELkRCJaCCGEEEKInEhECyGEEEIIkROJaCGEEEIIIXKSX0R779wffzj366+Tfzg+rfnnH+eGDHHunHOc+/TT5OC/wKWXOtewoXPHHVf4jp2efrqQrnffLXwvxu+/O7fTTs4tuqhzffsmB+vArrs6t9hizt1zT3JACCGEEEJMafKLaITyAQc417Klcy1aVP+ccEJy0TTkk0+c23tv504+2bk+fZKD/wJjxzr3zTfOjRtX+P711wVBS7pOPdW5v/8uHM/y55/OvfOOc+PHO/fxx8nBOvDhh4WwvvwyOSCEEEIIIaY0+UU0nl9EH6IRwfjdd5M+P/2UXDQNWXhh5zbf3Lm113ZunXWSg9MBCyzg3DbbFNLVrl2wtFbOCCGEEEL8V6ibsttxR+fefHPS5+KLkxO1AE/tSy859/DDzv38c3IwBcshEO333+/ciy8699dfhePzz+/cwIHODR3q3PbbF46leest5+6+27lnny0snSgF4XPtAw8UPLlZOP/RR4WlIw895NyECcmJEsw9t3PXX19I18EHVxfRP/7o3COPOPfCC4VJSTGI74svCnGR588/T05kwFbYDNuVCgt4gvDMM87dd59zn32WHMzAchiWgXDdb78lB4UQQgghRJa6iWiE4pJLTvosuGDh+NVXO1e/vnNbbTVJ7LJUoVGjguf4iScKx1j+wfdLLilcu+66Be8t1yH2Iog7lkY0bepchw7Orbeec+uvXzjHWuyNN3Zu8cWdGzSocAwQn6utVlhm0rGjcxttVAiXuBDTCE6WWSy0kHNXXFFYl8y1223nXPPmzvXvXxCyfJ56yrkNNnBu+eULQn3bbZ1bdlnnTjyx9Dpw4mjfvpAu1kUTHxMFwm3WzLmtty7kgWt++CG5KeH11wve9eWWK8RFnps0KSxb+f775KLAtdc6t9RSBZthE/5nGUmW664r5B077bBDIe277+7ct98WzvP/XnsV0oUduG6VVSYJ98ceK8TTtm3xCY4QQgghxExG3UQ0AhlRFT9RUCL08LZ+9VVBhALnEHgItrjsg+v4fuyxzj33XEGozTFH4dgppzg3cWLh/jPOcO6OO5ybZx7njj/euX33LXiFAWHK+l+EKOFx/ahRznXuXPAss5ziggsKIpj4ievBBwv3Eg/LULp1K4hu4p9zzsKxo44qeGwRv4hzwkJgnn12QfDjqWUN9gcfFMLKwn3cT7qiZ5swWE9OOsjL0ksXvOp4nNMgWocPd26TTZw76yznOnUq5JN04FEH1j736FGw83zzObfEEoXJSXpdNbbA201eSMMeexRefOT6W28tTAIIF082YePVP/105448sjBBYoICo0cXBPV775X35gshhBBCzCTUTUSzTGLFFSd9arucA88owhFh3KtX4RhiEBHKsglE3myzOXfVVQVB3K9fQRwWA/HKLheIV7yvLE9AeCOS11yzcA1LNtIgKskL8V95pXP16hWENGlgGQZi9Y03nLv99sKLgiwfIWxE5pgxSSAV8PjjhckEHvuY38GDC4I6TZcuzr3ySkHsM5ngmlatCoKXtehw442FNOLxf/LJgpi/807nGjQonAdeWsSepBOPNstLsN9llxXyxZIS7ItAxm544BHZvXs7N2KEc40bF8Jh2c555zl34YWFtd5CCCGEEDM5dRPReDqzn9rQurVzbdo4N+uszq2xRuEYAhBPNNvDsesFHmKWW0RYWlEMvOOszwbCZZkJIP7w7EIUopEVVnBu000L8bOkBC8sED+CGsGMB/a225w788yCdxhvOvnN45mNghtBzPIL4ttii8IkIg1b1M0+e2EtNCL4pJMmLdMgPmzz8suF7yut5NyqqxY8+Cz7YMlLhDTi/QYmFSxfYQkNW++RL7zYPEFgckGehw0rTIbYrg+bx3Xc2BCv9Z57FtIlhBBCCDGTUzcRzfpa1u/GD8sG6kr6BTxEKuIvrqtG+NUEHtW4DIH1zmmixzeGVwyEbYyH+AkP7zTimnXEPXsWviMy84IoB7zH6XxmwXvOMhTWcuOJZh13XL4CpCmuTWYJBmkuBmI7inyWy+Bh5oNnm/hZAoIXnrXON99cWL/Ny5vHHFNYkx236xNCCCGEENWom4jGO8wPjMRPFKlR1CEa4zpp1h+zHCEviyxS8H4iCNNrh0sJYeJGpAJreeN1CGLWEQOe3kr55ZfCC3z8jyeXtcUso1h55eSCHMR0sfQiCmrCjYI4wlpr1nfvt19hqQU2RNRGyGOcIPDSZZw0ZMOifOadt/A3ExwENWHFD15+fuSFpTI771zwWseXFbHdNdcU7o2TGe3YIYQQQghh1E1ElyIKPJZN3HVXQQgi4hDCeWF5AaIX0XfRRYWXFVkrvcsuyQUZEIRxSQgv4b32WkE8IhDjC4W8ZFgpiHCWRSBcWYKB5xbxSTryEoU366tZn8zEgvXaWY8vXm684SxfYY0z4h9RGyGP7KAB779fWOONjbEJe3hH8FJHW7Cem3CwBQKeyQAvYCKQsQtrsJkE4W1fffXCPUwWgN1J8Fqzm0hW8AshhBBCzIRMHRGNSEXA4XlmJw22Z0PA8X9e8N4SBvAiHNu+8WG/5mKwTOGwwwpbtOE55YU60sN6aEQrQpAX9yqFtcKsO0bEcx9Cmh9P4XteSAtpR7gyqVhmmcIuGaxpTsOPxrBkg5cYiY811Nl9qVmfjChnYrLPPoXt6XgBkx0/IohtdhNhzTUea+zAh6UiXN+9e2GSwB7TrB8nHs7/73+FNeTRTm+/XRDePAmIy0OEEEIIIWZiZj09kPxdOXg98ciypzI//52FpR14QFm2MNdchV0fWBrAcb6z1pf1t7wshyjbcsuCsANEHet/2eOZLeUQ46xHxkvKEgfuZ7kBIjIuceCnv/HYskabHSUQ3oSJt5ilDixzYFnIbrsV9kzmb8DTijhEYPNBgCNeiR+xyxIH0onAZBu96JEmbnasAOLkxTvSRlyEg/AFRCfLKdgLGqEc04WHnrgIm5cG8f4iktnnGWG81lqF78RHerAzEwPygRDHntiDFwJ5WZGXChHPFCVhcB33MGlhH27WPJN+8koaWR6DfdnKjpcq8TKTZ+JkcoDA5gVK0ko6CYP7efmSFyER50IIIYQQMzH1fCD5e8pCsHiCEckIPoReXSA8RCAiDxFImDW9aIgARVAizIm/kntKQRiEhYhGGNc2HPKB95i8IEZLpSn98iATFsRsMbAHwpj84TUvlS6eCnAd/5MHrk2LYY6TP+LlHOuphRBCCCFEUaaeiBZCCCGEEOI/Sgn3phBCCCGEEKIUEtFCCCGEEELkRCJaCCGEEEKInEhECyGEEEIIkROJaCGEEEIIIXIiES2EEEIIIUROJKKFEEIIIYTIiUS0EEIIIYQQOZGIFkIIIYQQIicS0UIIIYQQQuREIloIIYQQQoicSEQLIYQQQgiRE4loIYQQQgghciIRLYQQQgghRE4kooUQQgghhMiJRLQQQgghhBA5kYgWQgghhBAiJxLRQgghhBBC5EQiWgghhBBCiJxIRAshhBBCCJETiWghhBBCCCFyIhEthBBCCCFETiSihagFf//9t/vss8/cL7/8khwRQsyI/PXXX27cuHHu119/TY4IIURlzLQi+s4773RbbLFF8k2kee2111ybNm3chAkTkiMzHr/99pvbc8893VlnnZUcmbI89NBDrlWrVm7o0KHJkWnH1M7bzMDnn3/u2rVr58aPH58cEbXl/fffd+utt54bMWJEcmTG4t5773VrrbWWGz58eHJECCEqo9Yi2nvv3njjDdelSxfXqVMn98MPPyRn8oEXYNCgQW7TTTd1Cy20kJttttlcgwYNbIAbPHiwnZ8afPLJJ1Ok08cjSQfcsmVL9/333ydHa4ZBfOmll3bbbrttcqQ8EydOdI8++qj7+OOPkyNTj2+++ca99NJL7s8//0yOzHj8888/7s0333SjR49Ojkw58D5fcMEFrn379q5t27bJ0WnH1Mjbzz//bPWLsp8Z+PHHH93LL788w9Txr7/+2v3vf/+r5i2lb9x3333dEkss4T799NPk6LQHW9JffPfdd8mRGQeeJp155pnugAMOcBtttFFytDS17e+FEP9NaiWiGXgGDhzoWrdu7W699Vb34osvuj/++CM5WzmIgauuusrts88+JsL79+/v3n77bdenTx8TmXvvvbe75ZZbTLBPr8w666xu6623dtttt52be+65k6M1s8ACC7gOHTq4zTffPDlSHh437rDDDmZv8e/Sr18/N8ccc7irr77azTPPPMnRGZt3333X7bjjju7pp59OjojpCQQ05TN27NjkSOi8Z5nFJnFM5hZccMHkqKiUOP4stdRS7qSTTnKzzz57cqY0te3vhRD/TXKLaDqeyy67zJ1wwgnuwgsvNA9ybcF7QeeFmHz88cdtMFhhhRXcLrvs4p566im3xhpruKOPPtqNGTMmuaM4eNFeeOEF99xzz5X0DiD8X3nlFYuzJsHPMgbCSi9n4BH6888/X9T7x2P1s88+280555zJkUngteQx4XvvvWe2i8w333zWgR911FHJkQKkkzQSF/nKA3ENGzasmjcRz8nIkSPNngjxYnDNO++8Y3GWWxeI3VjqwRIGJjnlJjdffPGF5Ru71QSP1J955hkLsxiVxkt5EU5N3vovv/zSxCJlUg7ioh6k1z1TJquuuqo78cQTK15DiX3xHD/77LOTeevIC09FSDd5LFU3K8kbtn711Vctb9i/GISDHd966y1LVx5IO/Ur/dSJ9NKuCLPc0ojff//d6ldN9Qabch2iPt1easO3335r5Uc9rLQtESdx19QWKgVbUe6Ubbn8cB02zPMkABGNo+G6665z888/f3J0EpQvZUPcpTzu1G36TsoVj3IlUH4ffvih5avcE0iuw0NOvc32f3WBcBgTCJe2U64+lYM6sfHGG7vjjjuubFvI1vtS/X0cYyjH9NghhPgPEzqgXIQOzD/xxBN+1KhR9vfOO+/sl1lmGf/1118nV1TOySef7ENH5ENnnBypTv/+/X2Y+fu+ffsmR6oTRIMPItTXr1/fN2zY0C+44II+iFN//fXX+9ApJld5HwSDX3311f3ss8/u55lnHr/JJptU3Rc55ZRT/IYbbuivueYav/jii9t1/P/QQw/5IGr9Wmut5RdYYAEL49BDD/WhA07u9L5Tp05+u+228xMnTrTvN910k19vvfV8EDN+xRVXtDTVq1fPH3zwwZZmCB2yX3/99S2syIgRI3zTpk0tL0sttZRfcskl/euvv+6vvfZai5vimmuuuSzdYYLhf/rpJ//ZZ5/55s2b+zCQ+mbNmvl5553Xb7vttj6IG7PbYost5hs0aOAXXXRRP8ccc1h8QRwkMXr/1Vdf+TBpMTuTTuLt0aOHXRuEmF2DLR988EHLC/GHAdvscOCBB/ognOwaCELdr7LKKn7gwIF+4YUXNhuGiVZydhKkrXPnzn6fffbx5557rl9kkUUsbsIOA5Sdh0rjDYOXv/LKK81GhMP/YfJl9ujSpUtyVcHmRxxxhJ1v1KiR1ZcwCfTvv/9+coX3t9xyi19++eV9nz59rBzIA2FXWteyBAHj1157bavnXM//559/ftU56hzHKSfySLkGwW1tCyrJG/YiTMp4oYUWqkp3EPpVZU14V1xxhdWPpZde2q4JAsLq0BlnnGG2pX5xH3nccsstrT4HEWp1gjpIGrkfO5DnXr16mR0oaz6UDeUX7RGElm/cuLG/+OKLfatWrSz9hBvbQJY77rjD0k8aSM8hhxxi5dWuXTs7Tz533313v80229j3SJgcWpnddddd9p2+iPqFrbAJYdGWH3jggSq7hkmjHaf9RGgLu+22W1VbwE433nijX2mllewcfPDBBxbX4MGD7TtQRtRJ7BlEqR0LkwZ/6aWXWt2mf+T/FVZYwQdxbueB9o5t6S9WXnllS89hhx2WnJ1Ehw4dzCaUD+mifC655BLLC2VA3/b999/btbRBvt93331VfQ/52WKLLXwQnFX5x5ZXX3211QOuIXw+1KN0/5AlCEorF+ox6aVvOeGEE3wQ9P6RRx5JriqUwUEHHWTnl112Wbt2++23r+pTirHffvtZ35yOnzaCje655x77Thum36BssSv176KLLrJz0L59e7/rrrua/SPYgr40TDDtO/V6//3393PPPbflH3vyGTRokJ2HcvU+299j09tuu82uJ0zsSVsI4rzaOPHiiy/6bt26WbsQQvw3yC2is9RFRNMRMbgwCBYjzOqtU6IzKgYDR9euXW1gYpD76KOPbMBlQGewg2+//davuuqqNogi1j/99FMTH3RydJyRww8/3IRjkyZNTPzS0THw00kvscQSNmiRTgYGBpD0YEic66yzTtUAetlll1lYDOBMBIjzyCOPtDjvvPNOu4Z0MRjT4QOd82abbWbhcD0ikXR8/PHHNnDdf//9Fi+dMHZ577337B7yjPAgLiYlpJH76dgZkO+9914buL788kt/7LHHmlB78sknLU4GfwYTBgiEL/eSdgaBtIhGcDDYIPhGjx5t1yHIKBsGNMIBRAoDMQMWgwqD9jfffGPn0jDAIabIDwNPzCdigbgZwKDSeF9++WUrSwZpwiE8yoyJSxSa2IpBkEEdYT5hwgSboFAvdthhhyrhxyQKQYBNBwwYYHFSVpXUtSwIFQQ0cXAfYSHSGYShX79+JkAIi/YzfPhwK8eOHTtWTSQqyduPP/5otnv44YetnEkfQoeyjhNU6gRhI7ooE8QjohMhQNwICMoDQUL9Ik/Uoccee8zqAu20d+/elgfi4BzCkbrEd45TlxE3TLCBMkM8kf69997b8sl1Uciloa6QLyYRlDtpQLwS92qrrWbXIL6xOTZNQ1qpN9gTmDRjGwQYthg7dqy1ZcInrZAV0VEIZ9sCaccu6bZAHqknEe6lzJhAMikBJgSERb9BWyZ/iGyEdGwTzzzzjJUj4TFxJc4o1tOQv3POOcfq/e233262IUzqLG2aNkQdBdog6aVekn7CRPDTLvfYY4+qekX6qB/UaeoV/R35p48izbE9ZGHSO9tss/nzzjvPbEd9pk1lRTR9D7Z7/PHHra3RX+EgoN2XEunUYYR/tCHQJsgP/Sj1hjyRNyYg2JF0I04jOC/atm1bbaJGGgmDsICyRLCPHDnS7E3aGCMomyiMy9X7bH8/dOhQq0tMVKjzlDV9Mbakz/nrr7/sOv5mIsSkSQjx3+BfFdGtW7c20RoHgCx0bgyOdO6VgueYzo/OG+jY8cRcfvnl9h3wZiDg6eQjiGgGPTrECIKCe/k/DvyIIQYRBEukmIim00aYxMGIDp9BnM4bsiKagYVBmME47UWJ0Dkz6DF4pYkiGo9qjL8U2JPOnvQB4pw04L2JcdLhn3766VUimvQfcMABNpi8/fbbdg1wPYMeXqb0AM7AwQAaB+tiRBGNpy8dJqKW8sZGlcZLuUSPFwIngpDD3lFo4m2OYiUNgoF6gG0giujTTjutqNhLk61rWRDrCB/qQTqsUgKFvG299dYmJCnLSvNWDOox+UB8AF448s/kpli+eNpCWhFXaaKYYNJSKt0R4kCsIfQgiugNNtigmkcuC+nBG07ZM2mIfP7559Ym8oroYtD+acsIa8iK6EraAlQioskrZUgdj2HBsGHDrI+JNkZEI6qYxJXz/gITOmz7xhtvJEcK9aiYiCa9Z599dpV4w26bb765PRVgMsikC5vydI2+MMLfLVq0sCdkxdJDOdFn4zVHGEewe1pE09eRpuOPP74qDcDTPtoa9aIYNYlo8otDhX4DUVuMSkR0Magf1IfoJS5X79P9PaIb5wdPhtLjGPfQlplAxzpGH8STjfRTNCHEjM2/usVd6JRdvXr1km+TE9Jn/4fBz/7PwvkwgNka1yFDhrgwsLknn3zSwg2dqF3D+sYg7Ny6665r3yEMgrYWLksYpFwYSJNvznbPIG7exo7pXGyxxeylstBJ2vdSEBZve4fBxb4vvPDCtvtIqTXbQcDYCyt33323O/jggy1PYQBKztbMNttsM9lLbtghDIy2drFv3762rR/pDp2/nQ8TH1uDGQbNqpdqyC8vjEa4FpuGwc2ttNJKyVFn14eBxNb+BcGcHC3cv9tuu1X0ks6SSy7plltuueSbc82bN7fvQehUHG8YxGzNK/eynj5COIsuumjyzdmaTNZAfvXVVy4MmFUftuciriCSkiudrXUMA3q1ullJXcvCOv8gmuy9gXRYsU4QZhArljZe1OVFRcInHs5VmjcgHazdZO07L+YGAW/HY9qwY9OmTW03B+pCECpV7asSeJEqpjtC/aQcguCwOLFLun5Fgpg0O5SC/LLmlPYWxGdy1NmuE+n2WCnki7rx6aefurvuusvePeA9A2xEXMWopC1UCuu+6Xcoc+wS6xr1AdIvBxJHmEhP0ZfUKCdeOCRsID+rr7661Q/sEkSd1blNNtnE+sII/Qf1JAjUonWavitM2m07uzCxS466amUG7NqELakH2D7d1sKkouw66nKQr6222srWupP2p59+2tpInnocwQ60Nba3I41hAm/1g/SlKVbv02AT3i9gt460TbiHLTDJK3ULmjRpYi/RL7LIIvZdCDHj86+KaDodBvNSIoQOiIE6zOaTI9Whw0NwIrJ4QfGBBx6wbevoDCN05HRoCKO8FBP4HCt2vBJIR7kOnzzwsiaDLcKJDheRUlsYHAhnjz32MDHBCy9pYY7d+T7//POXzBODDWXEJCAN11N+NU0m8sBgP9dcc1mclcZL+hHH5KHcYEc9wPYMeE888UTVB6HFFo1pMV+MSupaGuJisKfelap7vATIftwMtlGUI/IjleYNYXj66aeb0EYk33fffbZjThpEGkKdl3aPPfZYt9pqq9kLwun6kJeePXtanIcddpjFyUt8takP3EM+EXHl8lkp48ePdzvttJPl8ZxzznEPP/ywGzVqVNm2V0lbqBTCov4iONN17ZVXXrG96RGh0xLywySGuooNEJ7UmQUzO3pwHfnHDsVsRRvgQ/srZyNeUCQMxHQ6/7TBjh07luzPKwHnB8KXMBDUtB+cBHmgfOhbmzVrZnWY+kG/UBsoZ8JLT0Yi2BI71qWNCSGmb/5VEY3Ao8P9uMSOAwgBOntm+cVg0GaP6eOPP948CXjfzj///GpeUAbmOEinmZLib0rB4ITAYSeHo446yt1zzz3u0ksvTc7mA68PA8QGG2xg2wayB/ANN9xgu4JEEHfsy43XKD1opoUhtmQwwJuSHgy4Hu8tYdRW+GQHasoIzw4e+0rjJf3kCcGavS4dPtcw8B966KEm+NIf6lCjRo2SK4tTSV1LQ1zkA8GSrXvA4Mtb/gg+xDTh8xQi7fmsNG+Is3PPPdeeAIwePdpEwSWXXJKcnQReRrbn4/pVVlnFdth5/vnnk7P5QHRcccUV5kVl9xfivPbaa2vlUcVjSj6ZNGU9xel8YlPKPNt2+Z6+DjtS3/F+klcmPEceeWTZelpJW4AYRrY80tfR5xAegjlb10hbsadgU5psHmhHPEHD1pQR9TZ6SCNcR/4R3NgiC/fzwYObzm/WRvRjxHP44YdPlv9bbrnFnjgUI5ZtOfsTLtuC4hDAlqT3iCOOSM5WFsaAAQOsb6X+8tSL+sEuULUBezDxp41mIW3YsdxTGCHEjM1UE9F0ZAyuxQREhMe8eDZ4jJ0dGD/55BN30UUX2SOwUpvg80iSgZUfLImPLunM0p0mnjIES9ozx+Bx4403Jt+mP+rXr28Ch8fv2AEYHPjw+L8SeCSL7RFWUThnRQpLUxjwsA02As6n96JGyCLsKMu0t4ZyYyBbdtlla/0oGqGf3r6QR+5MqBAflcbLh+U21AU+EQbHDz/8MPnmzOvEtYjV2lBJXcvCMg5sHpdWRJjUIMIoI9IVBTxhpZdCVJq3WEfwzEVRX6rdkQcmryeffLLlA088xDyVa69pKDfqTOfOnU1EAMsF0uKyUkgzS3SwBxOUCHnG2x9BkPBkAhFHXEB9ZcKQbhfUK0TshhtumBwpPNVKC6ss6bYQ20i2LQAeR4QTaYtlz6SOuhvBS0q/xRIVJlFTAmxEH1lJeFzHk6dYFrQZ8sXyKcoqLqNi4pNeXoZDgwn8yiuvXFWmafBc0+4IK9ofsvWbLSApJ5b35KkPDRs2tLJFfAL2ve2226r6piwsf2NSHOsw0HfGvg8IA891GsqKvLBkK06KmMzWBuJjjCHMmG4g37GfYlkSxDEx3QcLIWZscotoBiL258Qjx4dOl474jDPOsMfciAagA2Fg5FgpWNeGh+j222+3Du3666+3TpMlDQgpOsCbb77ZBrdi8BicweXKK6+0+Pg/61Hg0emaa65pvzDHYEt4O++8s+UjdqDTAx988IHtk816VQYlvCQ8DiaPgFeTgf6OO+6wPOBR5DFiKRDgSy21lIWDVw6vzYEHHlhNSCCuWUvN41CWA/C4f7/99rPBP4oxRBf7qCJqu3btanvS4k3iF77w8vEoP7sWu1IY6BgIKRsmNcccc4wN8Cw/qTRerjvkkEMsvQyo5AEPL0s0Yh4A0YB3H1FEPNgYDxT26d69e40DWyV1LUu7du2sDSBYqdOkjX198ZwhxFq0aGETBOo/j7sJD4EcqTRveJgR3LQfwiGPPXr0sDgiN910kz3CJq7777/f9e7d24QmggcY6GlnTGjx1BFXOZuQdoQIE12WoVAnWUpSG8gn9Y61opQ1dZsnMEyy03Wc9rr77rvb5IW8UB/wdlJf40QRWKOL8KItUbfx0rN0pRzptsATnNgW4jrmCCIae2NHlktRD6jDac8tnkd+BY+JBuWN1xPBSr4ox/T6+0phbThxUG6kjbXy5eCpCbbBRt26dbPlLF26dLF6Qh5IH2ujaWuUN0+pWGpBm+RpWLp+RbA/1zCBo83EOKhb1KUIAprJFX3OKaecUtXWKFPSkp4opqG9MEkgbH6tljLmvmhb6iP2oz0h0LED6Y59JDBxQlRThuSLH6gh72moV4xTPEliLKMOs5wqTiTzgD3pO0n39ttvb22wf//+tpyIp0K9evUyoQ3YgbpJ3RFC/EcIoioXQdjaNmPsmpD9sEtH3KLp3Xfftbe402+xFyPM2H0YjOxt7jCQ2dvrvMHN2+RsTVWO0Kn60FnaNnTcFzpT296K/59LtkmD0Kna2/KEH0SZ7ZXMm/JBXCdXeNsdgO/pN6d52zyIL9u5IMKb1uQriJXkiLeto9ilJAz49j107r5ly5aTvYXN29psdQe8Ic9b5GxZB6ETtt0WyDt5IU+8eU8eI2xJxpZvMa9hILBdA3jTnrfXs4RO23Zx4HreEmc3idC5297GkTBo2j7R2AX78Hb7Cy+8YHvNfp3suEKZswMFW1TFMiJc8pkmCBDbJopdNsrxe7I7B7sDsC9tGHQtTPZuJh7ig0rj/fvvv21f5xgO9RBbBUFm20pFgrCyrafYzYTrCJN7wkSv6g18dq9gl4b0bhhQaV3LQjtgxwPi4kNesBN8+eWX9qY/x4OwsV1J2FMZ28TdESrNWxDOVWXN//fdd59fd911q7ZUDILOyjTakd1NgrCzcxF2bYn1j7pKfaYuxHLJwj7kQXjb9ZT7yJEjbZeYIHDsPFunNW/e3PYjrgS2Y6QfITzqK3Warf3i7hwRdn2I9ZXtD8eNG2e7RpBnCCLNtm6MeWHv4ViP2NkESBvtmDKI0J7YfjCG3aZNGx8mB9V254Aw0bGwCJv2ePnll9sWdPRZ6XJjKzO2e+Q6PtQdwqftQ5gMFi2HYlAW9DGkiw9lRfug/YSJWtUuG0F02i4+lA1lEuNlZwz62gh/U6/iHsiEyQ4T6a07i0E/xfaJ2JZ72IaQvanp79htJMJ17KQR6y3XEhe749D+i4HtaAO0Ba5n1wv6XuoQZYtN2QkknWbipW5HsAM7L1GGfOjv6KvZmSTdL5E2zhMOu8ewNzt2ZHs6KFfvs/09UHdpd6SJD+Ue97YGyoq6RNkw9ggh/hvU459ET/+r8DiWl6p4DBY6Idt9oBLPAMnnESAeFLyYoVNMzlSH8LkO71zo7GrldZjahEHCbEBeQgdvnue0t5y8ch4vCufwKJWD63nsiucOTzaeRrx+WbA5Ximux3tdzAsFeFvwonEd5UM5FQuvJvAS4rUhbbxhT3543E65EGaWSuPlJUzyymPhIBySo5PDNXG9YhBtZutK8kH8ldS1LOQ3bd+0145H7Tx+5hjnSqWjprwRNnniqVCpuoFXFztS3tiRa9LxUf/YWYI0kb+anjAQJ4/BWQZAurLh1QbST5jU1SDA7Kfu8XzyGDxCOskHds3aM0LasDl5YQ1usWuKgbcTGwTR48KExXY74QkRy4zSL8RRB0gDZUHeS8F11BngWtphbZ+ApesReUo/aYjg7eRJGzum8ASOvFBPs31JhLKjT6HN0/4qsRO2Ie/YtpT9gXTGektbw060tXIQdqyD2L9YHtNppp5mr4n9GcQdlrLEuh7rULHlK3lhjMEutAHqSrr90L+FSYE9UeDpQPrJhRBixmW6EdFi5iEronkkKkQxWOaVFdHTEsRoMRE9vZIW0excIaYPHnnkEbf//vvbsh52jRFC/DeYfhYFCyGEEP9B2BqTdyniOwhCiP8G8kSLaQ6PbNmFgUfna6+9dq0fb4v/PtQTHpOzU8u/ActL2CGEHy+pdEnIvwlLJ3jxlheqa1o6IYQQom5IRAshhBBCCJETuQCFEEIIIYTIiUS0EEIIIYQQOZGIFkIIIYQQIicS0UIIIYQQQuREIloIIYQQQoicSEQLIYQQQgiRE4loIYQQQgghciIRLYQQQgghRE4kooUQQgghhMiJRLQQQgghhBA5kYgWQgghhBAiJxLRQgghhBBC5EQiWgghhBBCiJxIRAshhBBCCJETiWghhBBCCCFyIhEthBBCCCFETiSihRBCCCGEyIlEtBBCCCGEEDmRiBZCCCGEECInM62Injhxovvmm2+SbyLNH3/84caPH+/++eef5MiMh/feffvtt+7HH39MjkxZCPvyyy93o0aNSo5MO6Z23sS/z6+//mr904zcBoUQ4r9OrUT0X3/95e6//3530EEHuZ133tmdcMIJ7v3330/O5ue3335zt956qzvggANcx44d3f777+8GDRpkx6cW119/vVt11VWTb3XjlFNOcT169MiVXgTQoYce6i666KLkyPTDsGHDXNOmTU1Iz6gwSdp6663d0UcfnRyZsvTq1ctdfPHFbs4550yOTDumdt7+6yBQDz/8cNe7d2/3999/J0enH5gkMUFbY4013HfffZccFUIIMb2RW0Tjpdxnn31c165d3VtvveXGjRvnrrzySte2bVv36quv2gCQh7Fjx7pNN93UhPNrr73mJkyY4F5++WW33377uc0228x9/PHHyZVTlj///HOKiHQmFE899ZR9EDeV8tNPP7knnnjCPf/888mR8nz11Vdu++23d/fcc09yZOpBnrBN3rKc3vj999+tvk5pXnnlFXffffe5fv362WTj32BK5+3DDz90HTp0cCNGjEiOzPhgIyaqF1xwQXKkACKa9jp8+PDpUkQDZUv6/2tg+7322stdd9118rILIWZ4auWJbtWqlQmJJ5980j399NOub9++7uuvv3aXXHJJrkGJR9I77LCDe/vtt82z/eyzz7rHHnvMPKEIlJdeesntvvvu7pdffknumP6YbbbZ3EMPPeQeeeQRt+CCCyZHa2aJJZZwL7zwgrv55puTI+XBc41tRo8enRwR/xbzzjuvu/32223y91+BySv165NPPkmOzPgwUaaPevHFF5MjBRZaaCH33HPPmZCbffbZk6NiWsDkYOjQoe71119PjgghxIxLPT8F3I0I6BYtWrjVVlvNPfDAAxU/4r7xxhttCccVV1zhDjnkkORoAbwUxx9/vLvssstMpG655ZbJmUlwDUL74Ycfdu+++64J+JVWWsntu+++brnllkuuKnikBg4caAMq9+Bx+/TTT93ZZ5/tvv/+e7uGjp1jG2ywgbvppptsrWvLli3dYYcd5uaee25bXvLoo4/aAIwnZb311nP16tWze/EOEzcTAkQ1Hnq88jvttJPlkQF7gQUWsPs23HBDu4c03XbbbW7xxRd3W2yxhR3DOz1gwAC7Hm/wmmuuafZB2HAtywe4duONN3YNGjSw8BiUyNsmm2xiQp5727VrZ/eRH9LGgIUIX3bZZd0uu+zi1l9/fTfLLIX5E/Z4/PHHTRRyzbrrrmvXdenSxZ4CkD7ATiy5YYKDN6lRo0a2lKd169Z2HkgnNqKs+vTpY0t88ATylCINtqKezDXXXK5JkyY2kXjnnXeszHjKwTKbaNtK4qUKf/DBB1ZuTMiWWWYZt9tuu9lyI+olNoVYX8grntdFFlnElkVsu+22bo455rBrKHfqwlZbbWUia8yYMe7II4+0elFJXcvC04m77rrLnjpQviussILr3Lmz5ZHJ4YMPPmjxffHFF26eeeYxYU7asQ1UmjcmV/fee68bOXKk2Wn55Ze3eFZfffUqW5KXG264wa6lPlKXOnXqZJO5O++801199dUWNu146aWXtnNffvml1aFtttnGDR482L3xxhs2sd1xxx2rJr/Ud55cUJbUSe6HH374wd1yyy1W/tiO+km50aZoJ1l42kIcPImK4e266642aY8w8aZcCA8btWnTxsogll+EPgmbsVxqscUWs3QR59577+3mn39+i2fJJZe0tkJbwAafffaZlTNtljbDpJj7OBahvd19993WZph4MBmmDlHnYxqwP3WW/obrV155ZXvShk2LQV9wxx13mH0ob8KijrHkjHax8MIL23WskaYfwoPOdZQt7SW20WJwHXmjztM+6b/op6jz9DGER13gKVfsE2L7pO5SH4BlJfQzxM3khLj33HNPq4/w888/23nqFHWQukgZYhvqC5MVjvME59JLL7W2Qz+M/QgHqC+kk7Ye+yvSutFGG1WljeP0F/RzHGPJC30d/SHQrrE/4cd7hBBiqhE62ToTOi4fOmffsWNHHwaN5GjNdO3a1YcBzYdBPTlSnaeeesqHgckHsZscqU4YUH0YaH0QDD50xL59+/Y+CHgfBj0fOlK7JgwI/rTTTvNhAPXNmze3c2HQ8KGT9fXr17dr4PDDD/eh0/ZBmPggdHwQmhZ3EFN+v/3282Eg9ptttpkPA6vldezYscmd3oeB2K+zzjo+iCL7HoS/D4OLDwOAX2qppew8cRFGGMjsGtJOuoNIsO9B4Fk6gzDwQcD6o446yjdt2tT/73//83379vVB8DHZ8fPNN59fdNFFLb4gyvxHH31k6QnC0ofB1geRbragHIIgs2tJRxAPvmHDhj4MWj6I66o4g8CzfIaB2AdxbmFhU44FYWfXhQHSh8HRbBuEvYUbBi1LaxgsLRwIA6+lgfjIfxBM/qqrrrJzaYJo8EEo+DAQW74olzAJ8PPOO6/9PX78eLuu0niD0PZhwuODCLVwCAM7UbewJXDtiy++aOnjWmxNeZLPIFaqwrrmmmssHOwbxLHVlyCqKqprWQizR48ePgzmfpVVVrG0UQb8D0HgWV0kjCAEzR5c26tXL6u3UEneuIZ0UdeoBxzHTtiWtgnUB/JE+R9zzDE+iCO/4oormq3POussK3fqF/WUOhNElg8iyj/22GNmo80339zqbxCtZjvSR5kEYejDxMw+pCsIRis3oF2TTuzM/0FMm+0o/yy0HeouZRsmcpZX0kK6XnnlFbMl19CWyFe3bt18EKZmmyCYk1AmEcS+tedZZ53Vyok8kVbSFISY2RE7BUFo159wwglWRmuvvbZdR1sgfsoniHqLn3SHSaEPgtDuDxMLszl9C/Um1qHzzjvPrsHGRx99tPUnQbTbuSxByPpTTz3V0sl11AVsRbjUlSCc7TpsSt6xR5iE+IMPPtjKGJtGexcjTHIsLZT9SSedZNfPPffcPghRS28QstYmxo0bl9zhfZg4WfxhEmXfqQe0acqXeortsSe2CsLXron9UBDMli7KkvZDfaYPIK7+/ftbnjhGGgiDugHEQd2lrlGm9A9cS58QJq52P2UVBLPZ58ADDzQ7NGvWzIdJgoUBpIl0xH5WCCGmJlNERF988cU2kPTr169qIKkEBkrEVhRNWUaNGmWdKJ1lMRAGI0eOrBKvDEiXXHKJDcQIJnjzzTctDAZMBhvShzhn4MiKaAayU045xcQpIuGQQw6xDp8O/eOPP7Z7Bw4caNchLiLFRHS9evX8TjvtZEKU+55++mkbhBAgkBXRCLHVVlvN77PPPhY395AOBhf+xhbkC4H122+/VQ3+cfDCjq+//rpdix3grbfesniA448++mjVAAqkF6GL8GEQ5RpEF0IpLaIRmcR97bXXWrxc98EHH9h9DFpxEEdEc99aa63lP//8c7suisE0UURz7QUXXFBlb8QqAz72g0rjRcAglAYMGGDhEN75559v4aeFJhMkRPl3331nx7Atgz7lMGHCBDtGWIhJRABiIuahkrqWBcFGPWMSFusegm/EiBF2njrFNdFGpJF6hJAibVBJ3rDNSy+9ZPdHBg0aZG2SSRK89tprVt8feeQR+05aEGiEyef555+3unHrrbdWq19RRFM3YxuI6aVtIUiBY8SJPZj4QRTRiN5nn322Ki7CSMOx7t27m2AdMmSIxc2x9957z8omirUxY8bYNYjUSKw7xaDuI0wRgOSJekfcpUQ05U774z6uQ7xTfp07d7byR5Bii549e1ZNnKgjCFMmJ7RFYMLBsXgNZRnrTZavvvrKxD6CnHSRF8qSCVtaRNM2yDvlR9r4DB061MqU9lEM0owzgLoc6zfH6HMaNWpkaac/o57cdtttdh5imRMn8fTp08ecB48//nhV+fE3ZUu9hNgP0TaZwHAdeWOihi2wQTxG3EwCsE9s1whtJoqMIbGcqG9rrLGGiXHuwz6ET3uKfRx2TU/KmFghzKPdhBBialLn51089mRZROgo7dFrfHRcCaEDtKUfoRNPjlSHR4BBxJZ8wYbzPDomDB6t8kicR+uhA7bvwNrtMHDYI0XWspI+lkMce+yxdj5NgwYNXOjcXRC7Fm8QNJY2dh/h0SL3ssSCY6HzT+4qThjcbCkKj1q5j8fOPD4OwiC5ojqEGQZNe5RJmkPZWDqCKLH7ySsEAV/UZuxqgi24lmtglVVWsTwFoeGCqLW/w+BodgIen/KIP0wCqtKJ/dhpJILtWJ/Oo/UgOixermNZBY+deTE0DIbJ1QW6detWFR52LAVLGni0H+3NI2YevbNEoNJ4w2Bqj4ApHx4PEw7hES5LJyI8FmepRhhgzR4sdWH3kTCRs8f42CGCrU866SRLS8xDJXUtC0s1eKTNLhqx7lHGQRTaedLcrFkzy0MQCbZUIQgRe2QdBEfFecM2YeJij+UpU/JD/SNtcXcHvlP2LNvgZWDSEgSihRnzB6Xq14EHHljVBrgeKD/SE8S72YNH+5xjCUgalt9Q/2NchJGGNLPkhWUb7du3t7i5jjxS1ixtIEzaAnbk3QnKHxvFulMM8hTTS57IfzbuNEHs264rtBOuY0kAaWC5CvWRJRyEwzIZlngBdYS+hLrEUgegDMMEwl7S5D7SHQSinctCvaTs6TuDKLW0Yoc99tgjuaKwtpulKdQ30kP58SG9pJUXsotBnQ4THVtWRl9LnceOQYhaevmbpV3UmzDxSe5ytqwEO9NPUgdZTseyC5ajULeIe6mllrL6w/KmNCwvoZ2QD+wQ4yIcjlEGEMuEsiZ/tBXqD0uIYjlR31jqwbIy7ETdJK3klzIhTOwawwSW+rC2n7QJIcTUpk4iGnF71FFHWYfIlkx0vHlgcGGQoTMsBuEzUDK4FAOhiYjffPPN3Yorrmidd1wnjIAABgo6agRsGjrwLHTc6UE2DpRRlAIdNuHF8EtBONglQhjcW0p8M+CfeeaZtpaTwYu1sYi+SokCJg1hMQgh1BA8CMgo0ADxN3HiRDufvjcKKmDw/eijj1zjxo2rCQHyxzHuj+EB4TDYp+1YCuyYvo5Bd9FFFzVRUWm8/M+gjrhGUEW4Ll1uTCK4/vTTT7e1xPGDwEXoEk6EdJGONJXUtSyUH4M+gqMY3Me6V8JDbLC+k7XTxAWV5g0QKqx3j2Ud17LGtFEmRxxxhE1MWM96zDHHTDb5KUe2/QBr3rfbbjsTdsTJJIgw0/UBit2bhrKmLiKaslCvaTPUW8Lh5WVeZkZoYn/KdUpBuafrPt8RyUy66KMoC/oiJiRpsC19GfUVeJeDesF6YCZp1JtSIBApb8otDXFHsClhswadSXysuwhg1jlTf4tB+VCH2IIzXefPO+88qxekkbrJBAebEg8TGtYts0aa8iDftEcmBbwvEcPgnRDizm7BR71Mt2nsQlyxTheDOOinaXNp+wNpIEzSQH9MH0m+NthgA5tY8r6AEEL8W9RaRPOSC14DOjS8ZXht8oJng04bT1YxGGAYQLMDTISBhY6UgYJtrHixBU9StiOGUkKnHOnBIFLsWKXUdG/r1q3Nc3TGGWfYoIF3Hw9NbWDgx7vFy00M6gMGDHDXXnttNTEWBzZsXCpt8ZqsMALuyw6adYE4+DDZyBtvuTwA5xD4TPp4STN+eEnsmWeeMVFQjjx1DUh//BSrexw7//zzLT2IT17E5GW3YumoKW94B3n5CtHes2dPe5mPsNNwP951nnTwVIaXsxBPCMPagHji6QfeTiYmxMlWl3HiWRuK2SnmHVFJ+TE5YLcNXvak3Ggj9EFTCwQecUf7x3qZhmtIe8w7Ah/BSxngCKBdU7bFiHWkWD1PQ/w8WUrXXfpdPMHYvxjcw6d79+7V7uOlP7zNTARpa7zUjYjlpWBsyuSbl/XSE2v6YPqQdNyEcc011yRX1J1i5Y9tsQ/pJC9MYvFEMzGg3HmqQ5qFEOLfoFYiGs8HwozHmwycLAeIg0yEjo8BsFjHGKED/Pnnn+3t8ezgROfJG+505Az2xcBrR+fPsomuXbvaDgI81k53/ng3SAdekwgDFo/OpzewIZ634447zt4+x+PFW/sRzpezZxrEOIIJocfjZh6Tb7jhhtU8XHh+GfhZYhIHccqBiU2Epwt4QvFEpSc7pIPH7HhaSwnJmsATRtlE8CryyLl58+YVx4unCw8lE660VwzxQviR6A3lETg7CKQ/CFDCKUcldS0NZYXowZakLQ15Jn14/PDqIcqZkCIQWO4RqTRv7FSBmD3rrLNsqQeiHK9hFiYeeC/ZDYddOngkztIIiO230vrF0gUesfMEih1YiBOxSBx5oax5/B6XaESoi3ga4/kIdiWviEEmENixHJXmiT4Hb2zsi7Az9ZE6Q13Da4tHHK9/hGuZvHAv3vgI/Q6efybBlCnCsxi0d2xPGDFe/qdfjPAkBm839QYPbLb+0k6KwVIonrgxcaZupe9h8hHrPP034TORQxyTppYtW9o5+guWZpEm7kmHQZil4i4H+SW8mF/iwOPPkqD0EyHO0zfRxkhfhCdRTAyGDBliZcREOEL9wU4xbCGEmJrkFtEM3qx5ZdsrtsRisGZQ4cMj2Thg0fkhNHh8XAo8WYgEOkTWwcZ74yNI1m8iAEt5ueNjfjwngNC48MILqwkM1jUzAOKFxTsL/M12cdMTePYRzAzGwEDAgBCXyCB2yQeDbSWigMETQRM9jYTL0gFEQAQRzY+FMBlCLAATGtaARwiH7bkIh0fpMX1cxyDGBCft3c4DIo5fjqPcCBdxh4hhXWWl8WITPKsIcNaNYhu8+Ajd9Ppz6hDCgLJHhEcIlwlHTTatpK5lYRs47qN+cz0DO15UlpAgJMhjevkD9mB7t0ileYue+7g2m+uynk/iTf+QCuKDe+JSKWxJfSH+SuoX9ZE8xPrFkgwmA+QnL0yIWDeNh5E+hTIhDWyzRr+www47mJBj+zImM9Fe5IE0lFr/iv0IG3Ee2345aIP8yBN9GbZBnGFnlkFRVvyPA4GJVBR7lNmpp55qDgGeItBuEfexvpJW8kI6ioHwJm882UA4cz0eX9pqhHzgGSb/CN2Yf9LI5Ckt6tPgPWbpzlVXXVXNW08emHjFNFJ/EMVMqBD9iOroVUfgsmSHiRxpivcAZZ+e3FUCdQxbkpcYFvljkk8fRL8c6yaOBPJL2ljyxISU9dkx/7HtpffnZ6kK9YWyFEKIqU7orHLBm+tsf8St2U/oeO2Nb3jyySftbWu20yoHb8DzBnboSG1LN97ED4OivQ0e3+AuRRA0vlWrVrZVEm/Q8ze7LTRo0MC2RYLQUdsWeaSFdPN293LLLeePO+4427IrwrZNYTCzXSUiQdTabgO8BR9h94r69ev7MNgkRwpv47du3boqrVdeeaXtSPDZZ5/Z9whbmMXdOOLOAaQbCJd0sRtBGDR8mFz4xo0bV+38EAYW23IqDGo+DLy2DVQYVOwNduKKO1pEuJ7dB8KAZduxhYHRdgAgTnbEgDC4+zAZMvuRJ8LE7uxKws4AX6S2uCNuwqKMWrRoYeVFnoNAsWsAmwfRbzs9lIO0sTsHOxpQHmwpxv9hMLc0B4Fi11UabxjIbacXzlGXsF0Q2bZLyF577ZVcVahr7MpAXrEx5UYa2rZta7s3ANsJkgd2s0hTSV0rxplnnmntgrpH2qiH2BfbB2Fs9mZHDnZyoWwoJ8qBvEMleeMa7iNfhBPEnJU1aWW3AwjCzM7H7ePYWYEyoB4CNmdXgyBybCcOrqE+046xP1sKpsFebP+IrdjakjKhblOWxAVB4Fmc7ChTE0HkWj0lfsqINJBn4ohppF5hb+o/x/mbvFI2pWAHFeoVu100atTIv/3221W7PLDtYxC9dh27cwShaztZ0P+w3R1pwQ4xfPJMP0GeqTeUG3YkvcOHD7drsBnlhB2wL/HSr8QdS7LQP5177rkWJnWErTcJO26rGXeZIFzqHfWHurfttttaf0L9KVf/iJd+hTyRnljn2bWD/iPCjhzYm3QE8ZocLUDdID3UA9pgENWWR8J85pln7Jpi/RC2pY5iS8oXgvC1HVDox6jn1Dkgf2x/SBpIL3mk3VC+HyW7ntCf0ifSF1C/yQd/s2tOhJ1YSJe2uBNCTAty/9gKXhU8H9EbkAavEI8x8TbgkcEzhoernKeS6PFi4R1k/S7emCAkzevDIz48IaXgXh71463isS8eE7yNLNXAOxE6fbsOjwfeRrwYoYM1TwVvtXMvcQAeWrxLPLol/YDHBk8L9+CtAfJN/gk/Pg6NHkA8u9ggDAgWHo9xY1jAfWGQsHuxI94SwuU7eWG5AGnES4MXCU8+6SFMwDY8AWCJA7sWBOFi9xEuHsUwANp1EfKDTfE6sfSAlxWxNV6meC3pwKPE7gjkjTf5eWyNbaItiAPvEI/vWYPJdbz8yEtO6Ti5Bnthh2ivYuBB4sUlrsXbiHeRsPE4hcHTyo08Vxov15EvPOr8yA3LVnjsTfnxKBj7xusoF37cBM8sXmKWNwRBYEtnYtnh8SLvlFWEeyupa1loB5Qn3knSz7pq6jfX8x1PIrbHZizp4DjpjuVead6oG6xp5Qct8CTyBIa8Ui/IJ20AO+JppF7waJ68R48jUI9ZdkB9Ip3kj7Iij7SX7JIXvLuUC09Hgti0+ojtaO+ES5zU8Zr6gAjpop2yUwR55wdveOEyphF7sXyDJxH8j+eXeAk7tpEspJ/6xdIm8kO+6FPIK+Uby/3EE090/fv3t3pBGmKbob6l006eKH/siF2wIU9FsHNMA/ajLLA3SyqoK5RnqaU/hInHm7ZNn0EbJM7Yh3Af9YC80PaxObYPAtLSR3st1U9yH+2MFwepP7Qb6g+2wDse0xzLiu+x3achbuox+eY6XiYlbt5rIW7KJtsPETf1gTZAHxrzQTnT7nnhkn6e+gq09Zg/2iFlS39AeKSLe1nywXmeLpAH6kgsQ+7nepaD8SSmXB8khBBTginyi4VC5CEtohnc00JOiH+DKKKZhCBcxYwFwxgvOfJhErbEEkskZ4QQYupRqxcLhRBCiOkFnhLx3gDvH0hACyGmFRLRYprDY12WJfAYN/vYWIh/A5YI8XKbnorMmLCkg6VrvIgrhBDTCi3nEEIIIYQQIifyRAshhBBCCJETiWghhBBCCCFyIhEthBBCCCFETiSihRBCCCGEyIlEtBBCCCGEEDmRiBZCCCGEECInEtFCCCGEEELkRCJaCCGEEEKInEhECyGEEEIIkROJaCGEEEIIIXIiES2EEEIIIUROJKKFEEIIIYTIiUS0EEIIIYQQOZGIFkIIIYQQIicS0UIIIYQQQuREIloIIYQQQoicSEQLIYQQQgiRE4loIYQQQgghciIRLYQQQgghRE4kooUQQgghhMiJRLQoy9dff+0GDBjgxo8fnxwRYvrlr7/+ckOGDHFvv/12ckQIIYSYOtRKRP/999/u+eefd5deeqk744wzXJ8+fdy4ceOSs/n5448/3FNPPeUuueQSC+/iiy92Tz/9tA2IU4vHH3/cNWzYMPkmivHPP/+4I4880l122WUVlcXvv//urrjiCnf33XfbvTM7n3zyiTvnnHOmuqDz3ruddtrJtW3bNjky/UJaDzvsMLf66qsnR6Yc1LnLL7/cHXzwwW7ixInJ0f8u3377rVt++eXd+eefnxwRMzNTs21NC1555RUbkxmbhZhRyC2iEVM01Hbt2rlzzz3XXXnlle6II45wG264ofvoo4+sIeeBgaBDhw5uiy22MMFxzTXXuF69ernNNtvMderUyf3444/JlVMWBN/PP/+cfBNZKEc8ekyWbrvtNrfEEkskZ0rz/fffuwsvvNBdf/317s8//0yO/rtQxtTP/v37J0emPKXieO6559xZZ53lHnrooeTI1OOnn36aam1lSkNap0bb46nJVVdd5Y4//ni3xhprJEenD5hIde7ceYpOqJg0YMdffvklOSLqQr9+/dzRRx/tfv311+TIjMeUbltMRhnvp4WwZcwg/TPDBFj8d8gtovFCL7LIIu7hhx927777rnvnnXfcRRdd5D777DPzQuYR0Qz6CGWEGsJr1KhRbuzYsW7kyJEmqBEfeJUQvGLawgDNEwKWcjRt2jQ5Wh7qBcKbidUcc8yRHP13QWDcddddJminFqXi2H777d2zzz7r9t9//+SImJrQnzABP+SQQ9wss0xfK9U+/PBDd+edd5qjQUyfDB061J6izcgiekqDIKfevvDCC8kRIUSaWU8PJH9XxGyzzWZe6MaNG7u5557bzTPPPG655ZZzN954o1t44YXtsXKlA9g999xjSzjOPPNMd+ihh7r55pvPxNcCCyzg1l9/fffpp5+6gQMHui233NItu+yyVctI6OQQbJEvvvjCDR8+3C266KJuzjnnNNHNoyE6xFtvvdXO1atXzy211FJu1llntXvGjBnjbr/9dnfKKafYdyBchPsNN9zgXnrpJXu0xMA8evRot/TSS9s1eJKYOOCZjWExe37mmWfcggsuaPYAJhPvv/++xT9o0CD3xhtvWP4WX3zxqvNMFr788kv7G+FJGHjQyEOWESNGuK+++sottthilhfgO3nDFnPNNZcde/XVVy392JaJDemed9557QnCsGHDbJZPOcUwGNRff/31Kttg47feesvsQFgff/yx3bPkkktWCWPCffnlly0/eKkpI86TDsQCdQTbEQdinMnRHXfcYdcRJpAPrisFy4OefPJJd8stt5gwJ07CrF+/vp3Ha0F+ELDpZTl4I1988UWrn9iWZULcP//887uFFlrIwo15JV+EcdNNN7kHHnjAffPNN1aHyBdQHxhYsS1LM5joYRfyhF1Jf7k4sCV1gDKnrUQodyYn2OSDDz6wekOZRNuTFvJNfcjaHkjXgw8+aOVMOXDvI488YseZdEYmTJhg6b355pvd//73P/fdd99Z/qgPpSDtpAGbPvbYY+adYwDF7rHuAnWWOk3dpg5Qh7Ap5RrbBTARw4uF7Wi72IjwiIelQhGeYsS2R74p32hjoFxpk9Qx7EaZERcf+gni4H7KiWtpn7Ec0/z2228WPn1Eut5QpvQZ1DPupe5St7AbaeJ/yoI0xbJAYJAnypzy5zryt8wyy9h5IFxsQx0h3mbNmlm4fKI9+Zt6Rp4IhzaEvSnXCPamrgwePNhsTl0l/ZTPWmut5TbZZBO7rpL2xjWUHfEx+cNm1IvYtrIQ93vvvWflTPyUH8ewUwyT74TDNdRt6hD1jHBjX5OG66kD9NE8waEezz777FbXGT/oc0kjNuJ4hPKhHpAfyoG80J6wCX0tNmrQoIF9YryUK3Wfukj6sQtPQBm36GuxP2WDY4jwmzdv7j7//POq8WRq2JS2Trpom/TV1GHKm74AyD/poR+gHdI+sHe6H6mkbVFHGSNIO2WDrejPsGu0D/WaOAiHPpd+hHrOuEq9vO+++6yuYQvqHWXEuIiDgPyRBpZ0Uh7YlHGJ5Zik/f7777f6TLulTCLYi3YR88/4RDlTd3bZZRcrAyAttB2uIyzyRpzYKaaftowDg7aAzShr0hhthe3oE7BPsbooRJ0InVmdCZ2KDwOWP/HEE33oHJKjNXPggQfafUGYJkeqEwYuHxqWv/DCC+17aAy+adOmft9997XvkdDA7Lognuz75Zdf7kNH4Zdffnm/zTbb+CBo7HwQqj40XrsmCBW7JhIaou/SpYsPAsCHDsSHTsaHTtLvsMMOvlWrVslV3u+///4+DJI+iKfkSCH/oTP1jz76aHLE+9Ap+9DQLQ377befX3HFFX2YHFi8EESChb3RRhv5VVdd1cJcaaWVfBBddj5L69atfZi8+CACkiPeh4HDh47Ch47TvoeOxOJs2bKl32uvvXyTJk0ms91BBx3kQ4dlx7DFWWedZfkMnaMdCwOBD6LA8r/ttttaurFJmGzYebj22mstL1tssUVVHq+66iofOlbLA3GTPyC/ofP0YXLh11xzTfs7dLbVwivGuuuua+WDffiQhvXWW8/KCUKn6Bs1auS7du1q3yNhIPWhs7S/w6Dhw4DMoxH7hA7Uyjbm9dhjj/VhYLB87L777j4M+n7DDTessnEYyHzosO0cYa6wwgo+DHRW1uQXysURBkm7L5Y5hIHAwsQeq6yyipUftoZKbE/+SU+6nobB2ofBy6+++urJVd6HyY+ll+uCcLO6wN+EGQai5KrJoe1wfRjILI0rr7yylVcYBC0/QL255pprzF5cQ7zkk+vOO+88uwaoA0cffbS1PdIYJsKWd+ohdSYyfvx4v/baa9u5PfbYw4dJs5XLAQccUFWPwoTXwqBuUeew3aWXXuqD2LG8Ux833nhjayfkc7XVVvNBKNm9aX744QcfBuhqdQk4jr06derkgzjxYWJs6aB8dtppJ/uQ16233toHYWL3YA/SdMIJJ1j8hEudSkP6uZd6EesHn86dO9t50rDbbruZjeinsDf1iXoWhIhdA0Hcmd2wcYsWLczexEeaTj311OSqytpbEEpWdvQT++yzj7WjHj16JGerQ1kHUWj5IxzuIUzSGyZsZiugfyFd1Ef653XWWceupU8oxrvvvmt9XhA71qeGiYClOQg5Ox/EqNWBIIrsOzC2BHFo98T+995777V6Q3lTX6gLlAl9cmSzzTbzW221ldmW9BEvNqZcaOu0c+pUug1jX9ojTA2b0n6oW9iVdNGnrLHGGnaeOk0eyRd9E3GSXup+pNK21bNnT7uG9rLddttZ2uljwqTFzjMWHH/88Za3Dh06+I4dO9r5IMp97969rS2l7UL7CsLWB3Ft/TN1lzGc8CkbztEOCY9rw+TOwiBdQZRbnDBs2DCLB5tRdtiCOoAd6COBdta+fXs7hj0YJ/mb/IaJlF0DV199tdUVxkfaFXkMAj456/2uu+5q5fvmm28mR4SYctRKRNMJjBkzxhpi//79rQEhej766KPkisrYdNNNbeAIM9fkSHXeeusta2RHHHGEfaejbty4sXVSaehw6WSimAwzXBOUUSwiaOjg27Zt68Os247RMaZFNJ01DZQOhY6Vwe2cc86xDiAtThggSHNWRBP/I488Yt/p4MgbnR8dIhAmwoiBGtHANdtvv72Fj5hmwGeQwLbFYNAn/WkRTUdB5zF8+HALjw6NtEZxQIc2YcIE+zvajoEmLaLPOOMM37BhwyphSdoYEGI8iInNN9/c7iUMYACgUyUu6gHhkHYGTAZ2JiOkhwkBAh1bfPLJJ3Yd8XCecn322WctvGJgS9ICpBfRSkcbhQUiGhG599572/cIEwvCBtJEnWTgRGzTKcd8UT/oxC+77DITAqSN+oN4iRMPBlcGU8r77rvvtusQpwzUCHsoFwftg7TEQSEKPu6NdZ56hD2hEts/9NBDFdXTQw891Aa3IUOGWN740E4YUE8++eTkqsnBHpQtonbUqFF2H+1piSWWsAHxl19+sePYbscdd6yqX+QDsYIdPvzwQzuGCEEkIPppd9ivX79+NsCmB/qLLrrI7MSkGYgTMY9QwR7A5IhBnLJAvHINtsfed955p9UH4Bh5wB5pAZYGoU8aEAoR4uHY4MGDLWwGZuobIi2CwCNNMVzKl2sY1KlP3BfbVhraAkKUcqMekeZ4HZMD4mUyS1kSxmuvvWZlzoSONsy1TH4RSUzUuWbs2LEmsLBJFNGVtjeEPuUUJ1OUS2xrWeiXEHn0P4QJ1EvaHWU7YsQIO/b4449bW4ntkzTTViiPLJxjskRbQEwDeadvov1Rf0gbacQBgf0Au1HHmchQ9z/44AO7hvGAc0BbRMBS5yKIK/rJs88+264jPGxCet955x2zE3YmTQhs8sl3jk8Nm1JXmdTStuNEj0nSgAED7G/SSP9HGoC2Q3xZZ0clbQuxyThKOZB2hCQTYmwNlCXidM8996yy83fffVdV78gz4wNinHTFOoqTiH6Cuk/Zc4zrCYP28emnn9oxPvfdd5+1k+uuu87CZ5xgwsBYSB/LNbRFJu+EGftL+nz6q9hHA/am76EOxGP8vf7661fVAcKP/SUcdthhNi4RlxBTmlotHAwV1G2zzTauTZs2LggHe2TEWkQeN+UhNGB75BIGpuRIdTgexKk90slDy5Yt3QYbbGB/86gqDF4udKz2CC90JnY8C4+mQkfrwmzf/ifuE044wfKYFx5fsfyCtbCho7PHhaGDcUE82eMoHhVGQifk+vbta4+6yGsYFJMz+eA+0s1jK5YQEB+2DR1OckVl8NiNR8Oh8zLbES7pxnahc0qucnaenVSaNm1q15D2LDwi5b4wwNgjbq7jkWUY9O1+Hr+XgiU8XBs6SnsETzkQR+jUkytqhuvDRMnipQ6EQa/q8Sw2D6LEhcHD4qCOhcHE8sNSiTSUYxCMluYg3K1uUY5QKo5i8A4BZR8Gayt3CANj1RKMSmzPY8ua6in2CmLLXvblhV3C4cP7B0EQ2ePZclBneezNtdxHeyJ8Hr+GQdwe8dIH8MJRrF/kg/pAWmO58tibvoG0YiPyFQSPrRWPUE95zMwypnXWWcfaCmXRunVru56lU5EgjN0FF1zgwuTU0oXtsXfHjh3NdmGAN7utttpqVhYsZykGj4tpG6z1pC7wYSkGeaDeEXYQAlZn1113XUsTnyAkLVyWC0VCH2prsEkv95HGLNxDWXGe/0kz1wXBYcu4qFNHHXWUlSXXkP4w4balY8TL42nKjLoQyzMIJXvETb4jlbY3/iZc+inSwPd0OGmCoLf3VFhuR5jAMpljjjnG7o11iTDoW4NIs/pH/liCV6xfoA1gX9oeeScthLXVVlu5H374wZZOsHyAOsFyq9j/06/x4UV07Mg58huEpJ0nHPIRxKmdS0Pb5qVBbE95YEfqC/UYO1EfSHP8mw9/Tw2b0o7oPw488MCqJQ4sPwhC2f4mjdRD2gy2xK4bb7yxtSXSApW0LWCpzyqrrGJ1nLZBmZAPyhTID/Zg2R7thesWXHDBKntk+7ZYR+O9vFAdJhj2N9dzHeUYJrtmB+Js0aKF1RmWygBLKcMkwMqf5U3cy/LNILIt/MgDDzxQZRfyB/RDlDfjNWkGzrH0hHpF+sPkqNoyGtoYfS9xCTGlqZWIpoLSeVKRWYsZZvrWscWOtVLoCLm+lLBF3NAoaIB54B7SR4eCkKDhMfAz4JWCBk4nkRadDACx8eaBToKOn50q6Bzih+23SBudd4TBgk9doQPr2bOnpZ8BHcHEAEB8ecBG2IqOikGbsNgxBdJh0VkyAJaDTg770aGmIb+UKWvnSsEgQ31CVCJad911V+uQS9WVPGB/yoiOl8EpXUYM4Ezu0mDbCHUCkVmbdBAfonG55ZZLjlSnEttXUk/Hjx9vYhcxlh6UGBibN29e1u4QB880TEJpj9iGdafEly3/xo0bW7my7hKY8BAWA3eEATOdVkQMeUJ80VZjObCTBeWNiIiQlxVXXDH5Nokvv/zSBBJlic0QJ6S1VHtnso+oYt0mcVDXEHWI8ShqSDvH2SUopmnnnXe2upOuH+SvVatWVcIiD4guRGGTJk2q9XGUJyKZPoR6hnBCXJLmNLTBdLyVtjfEFuKE/pE8Y4dS/QTiA6g3abgfW8WyxgYIf3ZGoc3yjkypMFn/y6SQa6Jt+XAv+UUckg/eryFPMQ7W2CKQtttuO/vOOcYPJnPpcFg7i23TpNswzJO8u1JT/zg1bDp69GhLTzlRh8jce++9bdtK6jTvDUEMs5K2BbQf+hCcXvSjjIWsb4/h0CdgdyZLTBKZzEWxWxPUU5wOWRDjTDIQ16SduJkIxjjpB0nrCiusYN8jcaIZIY8Ifvq7NEyuaLfRGYWQJ3za/7777mv2FWJaUSsRTeNZaaWVbJbLIMO2UvzNywtpb2VNLL744jY4lLqHRsJgyOCcppwYpqEyo0WI8Pduu+1mHUO2wWZB3FRKufiBgYDOAO8lg3v8sN0Z3iM8fLWlXNzYiZc8unXrZh0lg1r/zLZrNaWdl3bi4EX6eUGFzqk2RJumO8YIx7IDW4QBkHLjRSE8gXj69ttvv2qCsC5gA9KGNzhdPnzYYYb6XI5i+amEaA/aTzEqsX0l9ZRrqPuIrCzEXcruNUG+uR/hEv/OwvE4kFeSVsqC9oJIS5dD9+7d7UUhBEk5GPARGkyaEeEIKgR4sbxHGKzbt29v3jgmBLyUhXDjWAT7IbYpg5gmPP6kifo4JSAO8l6sPLBtrGfxupqI9i5WPzkW48HWPCnDu4rnFM8t3rpilCprjvGJbRKhg8jlCQ/HKAeeuGDXLOQH8Aany/yUU06x/or0EDb9F15RXtZjYsgTC44hVgGbUNfwaKbDOe+88ywtU4KpYdNyYQJ1EjGOtxmPNCIxXTeh0rbFNrTYhAkPT40ZC9NPjClX2guee/oaxnDGckR1bWDiR99NPVh99dXdQQcdZE8x0kK4krqcbhtZO/E9bXs0CBOtOHlhQsekWIhpQa1EdJY4U8dLEzvISmBGSSdbqsHee++9Fh6zWaDR8Ml6CtPeKkT3gAEDzGtDh3DcccfZjB5PWjl49EYHgKiPEHe2syKvHEt3BGnPMuAd4Do8DXRc6Q+PkrMz60ogPGbfaftm4wUeSeOR5i1t7IZHAGKng63SQjptO0BEEhdvzffo0cPEK51SbWCSxCAcPQYRvKSUYda7E6FDR1AiZvnhHTpiOkjSFaHzJz9ZG2Q9UEDe03lmkMeLyv10+OnywaOEcM9LNo5iUMeIMy4FyVKJ7Supp3ip8ZbjzcL+Ecoaz2JNTxDIR7YdM7DjtSLc2NazHivEA/Zfe+217Tt1kXaSLn/CTqcVzyJePfLNY9tsWdTUbllaQdpY5sGPjuCFRmgVE/gRyorJCmXBRI2dNxBmaU8vaScMnoCk00Rfgpe4tqTrCPYkXrzR6XrLNTwpwdPJZACb4znNetiwYzq8PO2NME866SR7WoUH8tprr03OVAf7U4bZuIkD7x+CK0K7ogzZ6YEJBxOb6MlOg23JO+lJ25YP98enLOQHrzPtgV1LeOKQnlRxHnhqkw2HJQV5KdaGp4ZNaX+UHZPlYnAfYZNnlkixnIwJYppK2hblg7ef9sCuIkwIaVMsR8nCUysmiCyhwKlV20kIdZmxB+82T16ZcNLHpp9sET/9Szb/6adHtD36BbzR2T6d5TD0G3F5ETDm9u7d2z3xxBNWDuRFiGlBbhFN53H11VebEIgVnnWLzMIZEGJjofKz1pNHa6XA28YMGQ8EwikO3AzQCAq8tjyeYU0VMJDgbeVaOnWuZ8bJo67soE/a4kDK4M5j+nIgnBCpUbjTGbH/NUtW0tBYeQSNyAPySceZBq8Enno6w7TQoJPAQ5wW4JVCh8HAyof0sW1R+pfKsBlLa+gAGQywFZ1JFJ78j+cV7wZlSBis56OTTYPd+HCecEh/uTIsByKeeBHDcS0fHTu7KiJgEDKlIG7sxf+IPzxUlE+E/DEYUe94PAxshRQnDRHix/NIfY11BGHCWkLWj+MtIp5IXAqRh2JxFIM6gWeN7biiCOYeBjeoxPaxnrItFNcVq6cst2IQZ/009SRy++232zrbuIa0FNRv7MMgR3qwMctMeByMiOd/RBADVSwTbHnaaadZH7D11lvbMSbJ2CWuPabeU47pPNFf4GWjXvIUJcL1iONik6I0pA8IG5vRDhAC6clDMVhSgyeUPoZ2w0Afl3IA3u24dV4aHkUX867WBPWVNKaFAzbEW0s+sWXsF+I2h0xGENKICYQiXjbKgjyzNSVllK6rlbY36gR2xV6kizi4rxikASHJ070YJpM46hzOgB122MGOIWywF2EipuOaVOLNgjBn2QW2T//4DHWZ/jGWHWERPvZmaRz9VxwLgDCIC9ulHSvFJniVgC2Ii/ofmRo2Ze0/QhKbxrpEecZxJPYDsU4TH20oTSVtC2I4MUzqEONhhDQzEeUaxkvKjf6RsIH/sTHllBboNRHrMmVJGtNPm3kqzHhGP0h7AtKA0yDdF7MsiP6RPJFHoE9jQsDEgAkMaUIPRFshrklv2va0JSYitakTQtRIaFi5CJXa3n4Og59tScMnNDp7U5i3/0Nlt+t4uzhUZnszthy8Fc+b/6FDsq1ueAs6dNr2NjUfdhkIA0VVuOy+wHHuadOmjW1nEwYTi4st7kJj8hdffLFdw24BvNXOtbzVTfih07JwHnzwQXtjOBI6TnvDl3RwLW8Kk0/eIE7vesBb0WyXQ/5DB2v5DpMBe2M4vcUdb92HBm1vVAfRYtvsBAFub0KHTtHeYmZXDrZEqgTe7idPQcRYvKGTtjA5xu4chEnYoWOx+CgX0sg2RYD92BIsdC62XRDnQ4dpb9mHwanqre/QIVn+sNUxxxxjW9axPVQYyO1te+jTp4+9BR6Ej32PhI7StlCLb3oTJztHYGfSzdvolAX3hklSctfkhEHa0odtDznkECvHIB4tnWHgTa4q2ISwqAOc53+2WSSuSOiUbdcSypUdJwg37uTA2/jYg+249tlnH4uHMiN/ECZqlgZ2Tkhz+OGH284CkVJxsIsE5TRkyBC7jroZJj5WLtSXMEhYmtn+CSqxPfWU8k/X0zCZsK3Z2A0mwk4j2IH8Ua+5Nv4dy7oYvAlPeVGXwkDvg2C2tkVbeD/ZfpH80i45Tv1u166dpTGIKtshIEI5UsfpH8hLDJP6GfMM5I12RrxsSUn9wYbUbWwCbCVI+Nk6FyaxtpMF9eqoo46y9GI/bMzuNeUIg7vZhLJgt4s07DbCjj6cp5yoH2FiYuUZhIhdky3fcrBbQaz7pLFLly52nDZDP4aNiI+y5W/snd6Sa+TIkWZr4sPelC02ouzD5MWuqbS9UacoB7YxjOWbreMR6uy5555r9qSuYgv6GOJgx4YgYuw6tnsjbUHc2FZplNXGG29s+SsGuzHQngmTdLA1WfPmza3vD2InucrbtmjkkaGKvpz0pKFPI3/YizIibsoziKbkisIuUJQd9TFC30G+Y/0Cdl8JQtLqIu2EXWmmhk2xGbvrcA22xE6Ev+GGG9r5MWPGWBxBaPpu3bpZu2YHCuIPkwy7ptK2RTz0FVzLTifsCkJ/RzkCbY96RZuh3dGvEU7c6QqImzCwCeVL3GFSbXGza06aIMotH4wt9BHcS3qIg/oSCULYbEgdYNepOI7S/8X2RD1gZxjiJn20E+oh7f3dZFcXxnPCZ0cS6hDXY8s77rjDzgP9QhDYVdv6CTElqcc/BTldGaFTMW8os79QKW2mydu/rAHD0xa9v3gG8NbiOeZTCqJnZsy6RGajzIx50YZZKI+jeSyEd4t1WzwiDA3XZtN4UcMAZ8sjeLyKJwsvXWiM5okI4tweh/Gdl+yYYeMt45rQKO3lB5aRsJ4qwjFmzWFwtDB5kQhvOt6euOSE9OLVZn0e1/PYkJc1SCtektAB2XXMjJm94+XikWZo/OY9wLPBy1HMmlnHFTok86jUBHbG24GnHPCA4PHGA4Rngxk4azyxC+HySBSPIB4s7ATM8vGsMTPHI4pd8DKRPvLAdaSbx3E8QsUDzONT0k2YeDeDsLEZPXnjO/FG8ApQhoQdd3aIx7AD91G2rPMLoq6kpwaoE9iYx4PEQ1ngoaNcSDNQF/E+YxPSRVqJl7JKryWmnPDSkAfKH48HceMdoR7zCBAvE+FSPjw6pb5QNticNKfrME9BeKEo/Yi1WBzUQ/JOXtP1Aq8xZUAb4VrqEHW8EtsDcQURYO0Pe3Ad7Y76zXUQ2xVPaqgjYWCxNhUEWJWXsBg8EuURMnYh7zH/xJF+r4C6hFeIcsV2YSCzfITBvNp65PhYmjaL54h6G4STed6oc0BasSd1k3ipM+QriBHzhNJ2yFu0QxBrdh9wL57c22+/3eo/5Y6HmTZKXYh1pRikjfIJg7mFG/uuCB5AliZQXtQF6gBppr1xD17EbPmWgnRSfwcMGGD1jqcBeLs5Tv9CfxVfBCbP5CH9uJrjvHxJuWMrypF2RD6D4LIygkraG22KfoI+i/6RcqMuU0eKQd9DXeMePIfUVV4WY6lRDBNbcZ46QVrpd7iGsi4G15AOltLQXgmHcYT2x24w9NFAm+A8dZ48BDFmxyPkl7SxGw11ivjC5MLyE+1Hf058pDeWMU+cCJeypL8Cxh6WoNCnkEdebKatTA2b0r55usM9tCXqFWMoTx2AtNH/8cSKfpx6HdMbw6ykbVHX6GuoW7QFnnxQ58gru9xgX/JGP8GTBNo467EZy2MZ0L54akDeSSN9MXHzVISySpcJYXMd9RRbUJdJF2FwXbqe0q7wMpMGlu1Q9oSZHkdpG5Qt/QJlyFjJmE35ML4AdiGP9HfYgfTTb9IPUXcJmzaDncr1fULUhtwielpC0hg4Wa7BAEJDZ3CdVhA/g1laRAvxXyaKaNobA5IQQsyIMH4zMec9BhwtTECEmNLkXhM9LWGmyUyXGTnehlJbgwkhhBBCRPBC83IjT31q+3K8EDUxXYvoCI9leEQWHy9NS3hkx+NBIWYGGjVqZEsbWEIhhBAzKiy1YfkUL+D/G9pBzBxM18s5hBBCCCGEmB6ZITzRQgghhBBCTE9IRAshhBBCCJETiWghhBBCCCFyIhEthBBCCCFETiSihRBCCCGEyIlEtBBCCCGEEDmRiBZCCCGEECInEtFCCCGEEELkRCJaCCGEEEKInEhECyGEEEIIkROJaCGEEEIIIXIiES2EEEIIIUROJKKFEEIIIYTIiUS0EEIIIYQQOZGIFkIIIYQQIicS0UIIIYQQQuREIloIIYQQQoicSEQLIYQQQgiRE4loIYQQQgghciIRXUv+/PNP9/PPP7t//vknOSJEcf766y/VFSGmQ7z37pdffnF//PFHckQIISpHIroW/P333+6ss85yHTt2dD/99FNyVMyo/Pjjj+6ggw5yjzzySHJkykFdOfXUU93OO+9s8Qghph9ee+01t8kmm0yVti+E+O9TZxH9wgsvuJ122sntueee7vPPP0+OVg4i46mnnnK77rqrW2yxxdzss8/uFl10UbfLLru4p59+2s5Pb7zzzjvuxhtvNBE9//zzJ0dL88Ybb7gFF1zQnXTSSckRMT2Bl/iOO+5wL7/8cnJkykEdvvrqq91+++1ndUBMW+g/3nzzTffZZ5+Z11HUnVI2ffHFF90CCyzgzj333ORIeR599FHrP2+66abkyLTlt99+c6eddppbeOGF3WabbZYcFUKIyqmTiObx9CmnnOIefvhhd9ddd7mvv/46OVM5AwcOdO3bt3evvPKKu+CCC9zQoUNdz5493XPPPWfH77///uTK6QM63sMOO8xEP8JolllqNiHiaZ111nErrrhickTMLFCn99lnH7fDDjskR8S0hAkSTwEuvPBCiegpRCmbNmzY0G2wwQZu5ZVXTo6UZ+mll7brmzZtmhyZtjz55JPuvffec3369HFzzz13clQIISqnXugEazWyIKCvueYad8kll5hIOO+889ywYcPc6quvnlxRM3hoN9poI7fuuuu6AQMGmCcaSNL7779vwmP8+PHm4VhuueXsXG3Be/LBBx/Y+rcmTZqYx6Q2MFHAY7nsssu65s2bm+e8GHhpvvvuO7fCCiu4OeaYIzk6Od9884379NNP3XzzzecaN27sZptttuRMabD9xx9/7H744QdLx0ILLZScKRDPf//9926JJZYwu9arVy85Owns/O2339oThOWXX97NM888dvz33393Y8aMMfG/1FJLFb23UkgLdgfszqSDeLHjV1995Zo1a1bxABbzRRky8M4111zJmUlwzYcffmi2WWaZZWxgz0L81KsvvvjCNWrUyP36669u1VVXdcccc4xNCtNgn08++cTqC9fOOuusyZlJEB7XMMEiPzGP5G/kyJEmFjheqq7kBdtRv8hbufL58ssv3YQJE6wOloqbdFL+pJV6RH0qNjHkGuxFfIsvvnhytDixfLknhlmbOkSbpR6yXpXyjvWzGPQX0f7p9kYboE/adttt3RVXXDFZ3iqpL4Q7duxYu5d0lGvPQPvh+jnnnLOqztcF+pGPPvrI1a9f3/rBSsMjb6NHj7brSUe2b+E89ZY6QplStsXgOsqB9kZZYqtyNs0S6wP1B/vSJ1VyT2yj5Jm8Z+F8uu/M0xdPnDjRjRo1yiYELVu2tL6uLv2cEGImJXRWtSIMEn6RRRbxvXr18jfeeKMPA5x/7bXXkrOVcfrpp/vQqfmnnnoqOVKd66+/3ofO1t9www3Jker89NNPvnXr1j4IHx8GXDsWOnx/1VVX+RYtWvjQcdqxIFT9pptu6sMg4Oeff36/6KKL+hEjRtg58hEEpO/Xr599B8I48cQTfRD4yRHvQ2ft27dv78PAaHkNA5Jfe+21/bhx4+w88Z9zzjl+s80283fffbdv0KCBXffII4/4MAD6MLhbuiJhIPLHHXecDwLSbEA+w8DkQ8du8ReD40Hs+I4dO/og5nwYNCxPF198cXKF9++++65v06aNpS+Gu//++5ut4K+//vIHHXSQDxMf/+ijj/oweNq12GT48OGW1nXWWcfCDoOKP//886tsG8SM32uvvXyHDh3seySIJb/iiiv6++67z77H/N58883+gAMOsDwSxx577OGDKPVhwuSDuLI8hIG7bL0hrDDIWdr23ntvSxd5CqLXh4G9ylb8HyZldi3hknfiPOqoo3wYKO0a+PPPP/1ll11m5wkrDM6+T58+Pgyi/qyzzkqu8j4IJ3/RRRf5eeed1+oMdg6TOrN/jJPz1InbbrvNruMTJnw+TBr81ltvbXHEukKZBMFStGzffvttq4PYJX0+CMNq9SYM/FZnCDeIegt7v/32q6rncNNNN/k111zT33LLLVV2HzhwYHJ2EsRDWVAm2JMwsRv1N4jK5CrvwwTD4iQu4sQOPXv2tHpUDGxNe8RmfAh3zz33tOPYlHa48847298R8rXrrrtW1SvSFiaqPogeizeIJL/kkkv6Bx54oKouUueoA/fee6/v1KmTtUvyQfhBsFkY1D/aIcdJN3Vuk002sfs5X1N94Zo333zT4onlGyZEPghTO5+F6yn7Vq1aWZiEt/vuu/vrrrvOb7jhhslV3vo7whk6dGhypGDnrbbaynft2jU5UqiDvXv3tjxge/K4xRZbWP5KQZj0S8OGDbO8kS/yj80pb9IIzz33nF9llVXsPDamLdAn/Pjjj3YeSPuRRx7pu3XrZudpI/T3pWxKW11ppZX8nXfead+BfPXo0cPujzamTwD6qubNm/tnn33WvtMn0k7OO+88f8kll1ieuZ7yv+uuu6rSXpe+OExwLGz6O9oHeaAPoO2l6/Tjjz/uL7zwwqp+UwghilErEU0ndfjhh/uVV17ZREVtRfSOO+7oF154YRMXxUDo0skhaIvx/fff+8aNG1unHDtAOtozzjjDN2zY0MQzaeV806ZNbeBApNLJv/rqq3b9W2+9ZYPjBRdcYN+BMBj4ETaRIUOG+H333dc/9thj/vXXX/e33nqrdc477bSTCTPiOfbYY63DZ3LRt29fGxwY8Bh0ERRnnnmmhcW1hx56qA0sDEovvPCCdfYIJsQCg0sxEBsMHgwAgwYNsoHyyiuv9G3btrXzEyZMsIFzmWWWsTw+//zzNhCQJgTgL7/8YmndfvvtbfBr1KiRHzx4sL///vtNTDOg8SGdzzzzjN9yyy1t4MRGwKDerl07G7DSIByII05EYn6XWGIJE0ZPP/20hclgt+6661o+77nnHoubAWy77baz+4rxzjvv2GC67LLLWroRCeQdG6+xxhomDOJ15Ic6SX7Ie/fu3W2gxdbkm3JFZFKnmFhQH6655hrLO6IgimjKh7+xEXlC5CJ8qEPYMQrAE044weyD2ENIYzPSQ9lTV8g3beL222+3sLp06WITkSwM7Ez6mLykB+1rr73W0k/cXEM9pn5QV8gvwgL7IfwiTBBoi9Rd2iX3IjqykE4EC3nv37+/TVIQe9h64403rsojIpU0kBbiJE/kp5SIRjBR9oSJ3WgvlAuCjDBpI4RHG4pQX7DjMcccY99jWdI/IKZHjhxp4pK0xraBYMOmyy23nLVVbE8aactMEilvrqG86QsQqLTZJ5980u6vpL7Q3qjv66+/flU6qHsff/yxhZGFvhDBTZ+E4EeIIeSIP92XEB9t4cEHH0yOFCYf3MvkK0LdpK4i+kgveSS9pCk9MUxDvJQ/7YX8UMeZ7CEYDz74YMsXkEfaJH0PZUG5IfwptwjxYHPa7P/+9z/LD+koZ1PKnnIA6ggTMPoG0oCNaSdMMgCbUl7YA6iT2Im2TVujniN8EeZMOihPqEtf/MUXX1iZ4Jghfia99D/Z8Ytr8DG99NJLyREhhJic3CIaIUKHipB74okn7FhtRfQGG2zgmzRpYuKvGAyYdIQMisWoREQzcCNOEIQIkSyViuhidO7c2YQinX/suBkcGTAII5IV0QzG5AsPT1qMPPTQQ+atSaclDWlF5Jx66qkWX4QwiA8PDnlhsE3DgMlx4mWQiSIa4QTcy0QFIYmXMQ60lCeDL55ayCuit9122yoxxuCFAES44EEG4mHgowxLwcBM2Ai7dD3BlnjKGUjJP7YkT0ySIhynjMjDe++9Z2nZfPPNbaIQvbfYkfpLuUURjUcMzzrCL4perkvXK0BEY7O0t74Y1DvqHx5iJjLFiGIDz2eEJw60DwZ/2gKCmbKPYD+8h+l6iojGLqeddlpypDjUNSZxV1xxRXKkUA+ouwhJ2jgQHnUnTqTKgU0p30MOOaSqDgF1C5GMZx1RT/gIwwjCjbRQlrEd8YTis88+S67w5h1HEFEGEEU0Nop1DNGLxxeRFu0c00QbiGVUaX3BK0tdwcbp/JTi4YcfnsymeMwRvnlFNJMpPMVMJNL9FhMd4ohtNwsimvPUp5hm7MJEG2FK3S4GjgzqV5zIAG2dOhk9xZFiNoWsiKa9Un+zecDOUEpEk84omAHxTp3B4VCKSvviYlDXsRkCP0L7OPfcc0vaSwghIPdivdAhu9NPP92FTtm1adMmOVo7Qmdq69DKrUWr6XxNBFHqgmh0QfC7/fff39bz1YXQSdt2SLfeequts2O9ZhiskrPOdhZhjXi5NIdByfIeRFq1NbZh0LR1n6yjLUYYdGx95lZbbVVtTSFhhEHKhY7f1nVmy4WXd7iP9dcR1j+yFh1IaxAetoaTF4bC4GPHWf8YRLutx6wNvExJmBAGV3sLPoiSqheJiCcIB1uXWA7St9tuu1Vb+73eeuvZGkjWSGN/XkwNA3u1tfPYJYhmsw0vEPE/61+JMwzedg123GKLLartssJaXj7cf/vtt9vLr4MHD7byDuLGyi4SRLXba6+9iq7xZK0pOxAQBmtzqSuhzSVnq0OZ0raoG8C9zz//vO0AE8SjrW1lLTi2Ij18wqBvtkmXK2BXyrEcI0aMsDXHQXQmRwp2DoLH7BoErR1bY4017Lp9993XdmQoB/WWddjYkrTFdJIX6h/2W2211WxNbBAuyV3O3X333VZu1BdsRFkGIWvXxDDCxNDW5L700kvJXQXWX3/9qnWu5Jt6jZ1IcykqrS/ER5skL/R5NdXTMNGweFu3bp0ccbbWmLaVF9Ygh8mp1S92jol2oC1Sh1gLXAryQZ8X2zH2IQ2UA3lLQ3u49957rZ4C7wek4WVo6kBtYC1ymADaWEGdipC+coTJppVNhHrBex28G5OmLn0x19GfYlt2mALuj4TJjOvevXut350RQswc5BbRdDp08IgaXuZ555137KWkMNu3Dh7xUSn169e3AS/bsUcQLHR2DCS1hQ60W7dutlcvAzHCkD2BGVDywIDGizTLL7+8O+GEE9xVV11VVOwSXzFBFWEAJG4GNvKfBsHJwI2YKgYDBQNjsY6dwZvzCy644GTxcz3xpoUF6UwPLoSbHWxiXijb2pAOj7+LDZ7pwbUc2bTNN998dgxBS/oQOOQzm3dszDFsSv6pa4i8cmVEnaTeMbhee+21VR+EF3vKxokBFMvXu+++a6IYIXD88cfbvbSVciBymjVrZrvcEDf/M6gz8SMO8kcZIizTaeIFtnbt2iWhFOD6cvkD6gr5wI5p+I6ARfQDk5UbbrjB4iaNiExeIOZ7FsKkPBA26TQiSDfeeGObBDVo0MB2tkHA0F9gF3biOeCAA6z8KEvsj/i6/vrrq8Lo16+fvRyXFv1AXvlEaso3VFpfqJuXX365lQHtnQlgjx49Sk7EOU47YiJcV+j7KH92K0rbku9MkunHypG2CX+TV+p/LLfHH3/cXqijTHv16mVlXKzfwRbpsPIQ2xGT5zxhZK/FntTVmL669MVM5sgvLyKyNSsvxjOJS0+MhRCiUmoecTI8+OCDNsAioumE+Zx88snWOXXq1Mk8Z5WCR5KBp5TwZvcOOmG8V6Wgo0yLQ8iKPoQB+4G+/fbb7ogjjrCdQI4++ujkbIHsPVmRcOmll5o3mw6XDhuPYZ68Rkgv6SFfDJRpsCGfrLiO4D2lsy/mEWOwYLAhzGxeKC/OVypYS0Ha+dRkq6lBNg7qDelg0kGaGGQZtIvlnWNRHCFysFE2vPR3wuQ6vK9MvBAu8YO3n4lKKShXdvh47bXXTIRTV5566ikTkeUgTMQa97z66qvu5ptvNg8gOwoAwpZ8MhlMp4cPdTIv1BXSis3S8IMwiJUll1zSvjPZ44kJ6brzzjutDR166KGT3QfUayYUxdLINpgIF8qArSGJG+/+Aw88YLan7wDOU5b0DUwY0mFQFoimulJpfQE82whpPL88sWBbN9JdDOoN7bOYGE1D/JCOGxuk6yDlTR085JBDqtmAD/UpPkWqBMJlgkP7x77sasHTE77zhAPvPuXABGdKgo2pD8Sdzlte6O+waSyTuvTFtK2zzz7bnrgwiRs+fLhtcRefZgghRB5yi2g20qcTT3947MUAgucIjxEgbOmgs48H0+DVQjTiBckKYbY2wkvA9mBsg1cMOmgGGx4bRk8C8cVH4lkQoWeeeaY9XoyeC9JNOOnHo4j67KPD119/3Twf6cGrtr9At9Zaa1l+ESXpwYUtl0j/2muvnRypDhMWBlb2N40DMP/zNIABi0fbDAx4+dLgOSTvPEavC9iJgZZBOOYdu994441ly7muYKN77rmn2qQDQUXeEVuIAcQmj6bTEzJszGNqBOpKK61kAyU2wFMchQ5hIPDSExOuwXtGmef1UHE9S0yID88yEEdNwgoQAtTn3r1729KAbbbZJjnjTICS/mIet9rQokULsysiIsJ3POD8j6cvDeJru+22c127drUlG8WeHrH0AVtj82x7TkM74hF9//79bakLaWHZA1CWLCGg/UdveF1AsJJ2+pnY1iqtL2mYIND3cY6yKQaeauJCqEWwVXYJSvSAs71chDo5bty45FthO0hswkSCCUceyAf3xTKgrFi+Q3j0d6QJTz+eWJYKAfUzvZyhHMVsWgz6buwVl68B1+NJLgfOE9IXoa3znadAUJe+mP4Re/IbBOQBmExl80FfQ5mUq8dCCJFbRNN5scY2/UHI0CEh8lZONtpHuDE4lvuVvi233NI82tddd509zqXj59Eu4pJOjo6zb9++VftHZ0E4EidCgAGZR5SsgUs/OmepCYMFXgvEJZ5EBkGELLBUhAGTOBnQGUTxQGY7T+JBHCG4uB9vBmFFr1IeEBA87meP1csuu8xsRdxHHXWUCS/ESjEQKezPyuNL1mkyOLE/d+fOnc3+hx9+uIk/vEyIznh+0KBBrkuXLtXWf9YGRDR7dzMIs6cyv8bHo1HCpyymJtSLAw880OJksob3iGUM2IOJBV5cBkLyjleNvDO5GzJkiC2pYEAnjaSfJRBMpvDqsdc5ZZlOPyKnQ4cOVtaUESKIukO4TOwQD6UgLbQRljyRBkTvRRddZCKmJhA5PHVhyRQDPZPMCPUCTyhthUknS0sIk/WsHMsLyyIIk/pBXcK+LBc455xzTLzHdbyUL8eZVJIfJs3RlllIP/bFU8uvNJJG7EZdJJw40aKusuaUZR6Ey/rdGB51DE81ogvBzoQR0URZXXnllTZhzAPlwcSPeEg7+ay0viDk+WEl+gSEMX0E4oo6Vwwmv0zAaNMsaeFDf8QkPw3LfFjagl1Ze055kx7EfYR2zDHOYzvsiD15EshTtZre7cD+iH4E6Pnnn29PRvC+Mkmjz+PdCep3DJe8Vyqii9m0GAjozTbbzOKhz8LG/Doh9bgciGzuu//++919991nTw2ZVPArtlCXvphlMExGKXOcFpQRS3Syk2XaAf0tgl4IIUoSBpI6EwSgvTnPllaRIB5sBw+2WCvHxIkTbVeE0LnbFkthILEdD9i+jG3o/inzZjXneKuc7cG4h3s7duxob/uzzduECRMsfLYW41wYqC0O3oAPg2FVGOwmwQ4RMQze3A+dvg+Cxq4BtrXiexhALK3sTcvWSbx9TjxBdNuOCGFCYbuGpAmDgm3lx5vikSBEbaeIGCf/s7MAu1iUyjPH2dkinV/ehg+DcNX5MGj6MOmoZsswkanaZSIMFmYPtu1KEwYk23kCW0TCQG35Y8/VCPezNzFVB1uwowA7R7CLQRBjdk2x/AYBZfnjTf007P4QREXybXLiG//sWMK+3cRJntZbb71q++WS9zAg2lZXMe+UN2n/PbUzAH8fccQRFgZhcT33ER5piQSh7IOYsmvCoGthEWYQXVW7QVBvKW92BIiQDnaSCAO9XU9dIc/sqhEmT/6XErtzAPcGYWXxsa9vLLMINmTXmCAWLD1cRxyUb4T769evX60ci0Fc1OkwmbTwCIe8hklt1e4jwF7L5CHGxdZpQTzZ/cWg7gfxa9fGNPI/26tFuwF1ht0xaKfZLfgIO4gz6z9IE/fzf5icVOWLnTuCYK3aCQKom+zkw37rP6f2eqadUicII+4sw/Ga6gt9BHsgcz6mgb3KY9+RhTCxTZhMVMVHeoL4q7Y7B9exTVuYrNl188wzjw+i12xP/xWhrrCzSdqO/M+ONjF/WYI4rNoWjz6ZNFDX2TEl2p/4g6A1+xIm19O+2L6RXT0i7K7DVm/0oWlK2ZR2T9/DHuXAddQH6n+sY6Q/iF47HwSwpTHu8hR352BbTOoL1xIHZRQmUXYN1KUvpmzZgSjmm7IaOHCgpTv2o8D+2IQddxISQohi1PoXC6c0PI7DA8GjR7wweE1DJ5mcLQ8eLjxULFngkWrWIxE6c/Nc4JVmXV1cApCGR8d4D/EQ4fUo5tUgbcQTBiV75Bw6+eRM7cD05BmPO3nGgxkGjeRsafCE4sXDe4I3Ec9pmnie9OJ5wZNfLD+1hXhZqkM82DvudDE14JEqnnu8uUFAmv0pO+ItZn8ezZI20sgSiPi4Og1PGXhaQZ3DfnGtZRbqDd5IPImUC9473vivhFgnw0BsdYU6MyUgTSw9Il1BCFg7wStYW/A+Uu9ZzkI9ob6k00od5UVYlj5gg0rKm3tiGikrPK/U77ywxIC0UaaUI3nNtttK4TE+6aFO4DGP1FRfOE5dYScI7uOamuBannbEvgRvNDutcCwNT3Tol7B5uaVW8Trsj4e8XHvGU83OLHiweapB3vAIk45030IZsasL5Uqdpozy9hGlbJoFG5J32lu5/oi103jzeUrI0y3STvlQ51hOk6aufTH5pt+l/VNOaWjvLPnbY489zOtfSZ8shJg5mW5EtBDFSItolnMIMSNB97r33nsXFdFTg7SIrusWpNOatIhm27p/AyapZ5xxhi0VYanK1HQQCCFmfKaMe0wIIYSYwWHSw7aO7I4zJbYqFEL8t5EnWkzX8DiXl73YeYRHzkLMaPDyHksEeFl1asOSNbZ/48XNuizz+TfgZVpeEOTFx/QP1gghxPSKRLQQQgghhBA50XIOIYQQQgghciIRLYQQQgghRE4kooUQQgghhMiJRLQQQgghhBA5kYgWQgghhBAiJxLRQgghhBBC5EQiWgghhBBCiJxIRAshhBBCCJETiWghhBBCCCFyIhEthBBCCCFETiSihRBCCCGEyIlEtBBCCCGEEDmRiBZCCCGEECInEtFCCCGEEELkRCJaCCGEEEKInEhECyGEEEIIkROJaCGEEEIIIXIiES2EEEIIIUROJKKFEEIIIYTIiUR0Lfnoo4/c4MGD3cSJE5MjQhRn3Lhx7tZbb3W//PJLckQIIYQQMzq5RbT33r3//vv/b+9OoHab6j+An/6luTRIlJskFWlQ6CoyS3KFi3SVoa6h5JJ5KoVQFCIiJVRrURnSqChUSkkTTVbSoOk2arWK6vz35+f5vZ17/s/z3ve59zX8l/1d63Hf5zzn7P3bv/m39z5bc/HFFzcXXXTRAp+bbrppcNd4uP3225vPf/7zzbHHHtsccsghzTHHHNNcdtllcf3eiNtuu62ZM2dO89GPfnRwZXL87ne/a97ylrc0X/jCFwZXKu5N+O1vf9s86UlPak488cTBlenDr3/962bTTTdtPvvZzzb3v//9B1fvHlxyySVhU3/9618HVyoqmuarX/1q86Y3van5xS9+MbiyaPjwhz/cHH/88c3f//73wZWKiv+/OOOMM5rHPOYxg2/3XZjsOe6445pPfOITzX/+85/B1XsO4/qrH//4x80aa6zRPOpRj2pmz57dXH/99c3cuXObffbZ564ZT0mKx8K//vWv9rWvfW1bEoL2kY98ZLvkkktOfI444oj23//+9+DOqaEkMO3GG2/cLrHEEu2yyy7bLr/88u3jH//4aP8lL3lJO3/+/MGd9w4Y3ymnnNI+4xnPaH/5y18Ork6Oa665pi0CbefNmze4UnFvwq9+9av20Y9+dHvUUUcNrkwfSvHUrrjiilPWlekCO918883bpZZaqr3hhhsGVysq2rYEpPDdl1122eDKaPB3Z599dviukiwPrrbtHXfc0a6zzjrhq2+55ZbB1Yq7Gtdee2270047tbfeeuvgSsV04aSTTmof+MAHDr7dd3HTTTe1Sy+9dLvVVlu1t99+++DqPYdx/BWQo5ySX9poo43ahz3sYW0pjtpSFAzumF7cz38G+fSUUJxqZPXf/va3m3POOad50IMeNPilaQrjm5KMDL4tHH/5y1+aLbbYItp6z3ve02yyySZNGXDMnFn+Pvjgg+PaBRdc0DzkIQ8ZPHXPoiQnQc+zn/3sZtVVVx1cnRz/+Mc/mh/96EfNMsss05SgM7hacW9BCUghy3333bc5/PDDB1enBx//+MebVVZZpSlFV3O/+91vcPXuQSkOmj//+c/N05/+9OYBD3jA4GrFfR3z58+PLUZPe9rTmoc+9KGDq8PB3++xxx7NF7/4xeZb3/pWU4LZ4Jc7t7SZhaZfd/cqy30VH/rQh5rdd9+9ueaaayIGVUwfTj755ObAAw9s/vnPfw6u3DfB5n/4wx/GTO4TnvCEuz1u9TGOv4Lf/OY34ZdWWGGF5m9/+1tz8803Nw9/+MObJz/5yc3//M/072C+/1vsMxgDcm7T/IKzpENiuNRSS8Vn3ETXFpBSNTRHH310OGoJdKkEm0c84hHNC17wgkgCzj///GbDDTcMBvQhoeXcMexxj3vchLBtK/nGN74RS/Scu/uuvPLK5n3ve19sQ7F8rz30YrKtJEssscQCBcB3v/vd5sYbbwxBAMO69tprmwsvvLD5zne+E0sG2s0+8IXieYag3/ve98a9Aozv3/ve92JcuVxkWcG9xnfuuec2X/nKV2L7yowZMyZNeCj41772teb9739/JGgC2WMf+9gJ2iXsV111VRQ4tpskPcsuu2z8jk7BEG9dP++888IxU9Tll18+xmLrAfrdR77aBzTjK6U07oR94baqkJ8xWg7y/cEPfnBs/TnttNNCThQZHZT8Ax/4QOwpV0iRBbkPg7a+9KUvhX59//vfb84888zQP32STZdX9OCKK66IsX/sYx8LPdCnZ7uOAP3u+chHPhJLRGTywQ9+sFlrrbWaF7/4xYO77rwPjeTz9a9/PXTkiU984oQhKozI3PVTTjml+cxnPhOBDQ/JSLGlQHQPvpPtqGSDXPH7rLPOCrnhm4KLI8vf6RBZ+dxwww0xNoXrKCeHz+ScOvqnP/2pufzyy0OeWbiSk9+WW265CdrI5NJLLw1a8JMM6IZxAtv3OxnadkUW5EreP//5z2P5TbJFt3w4YnpEv+mmdtkh3rvuXraENluljDvHZNxXX311bInCe9AHHp199tnRF+gjdYFNsFX2TV/YIV1JPU6kLdhyg3by0iY9Q0PaKtpco3d0wZjxAE9yEgGP6LhnjOPd7353PMf+2RYfQ2708gc/+EGz5JJLLuCz+tA+vbdlAl3oTDvOZ+gIPdYun4SP+AlkzT/wE9rBxwwif/jDH8I26GPST7/5x/Qpqauf+9zn4kOPPP/Tn/40fA3du+WWW5rf//73wQc0jfJ/qcNdaOdTn/pU8BNfFbJ4zn8M40n6GL+lXACtaH/qU58a37s6ft111zWnnnpq6IJn+AE8Qxv9o49on8zfpk+h6+hkU3iMTrFjGE3apQsmg1IeU/UlZJhyo3PuSf6JEcZmPCuuuGLoLRmlXv/xj39sPvnJT4Yv86/f0UXXhvEU2AAZpj3zYcbIrxgj0J0vf/nLcR87S/AT6KEPfP8wiJvsV9viPTmj15jEqvSTfLH7+n5Sn8ZNdnjKnt2nz4xp4Dn6qC19ffOb3wze4n/Kl89M/ym+o9k4Uwbkwk5tHYBx6Et/x17RlXJPiJ0/+clPQufZ7Kc//engM/mO4h3QCz5J/+jHNzRrD22SS22kfNk2PqVekx1fj/d0z2/0lr/vToB2YYx0z+981B133BH5E1myB/yly5kz8J2QOQ39w2P6jN6Mv34XwzLn4Af5aONBpz7wnK9517veFeN93vOeF76w76/YljyFnfDH6KKbfud3+UM8Y+faw6NuQWCMfBBbQy8fiS8Zx8ZCaWwsFALbnXfeuZ05c+YCy3uLgl133bUtzrgtzBxcWRDFQcXyynHHHTe4siAKc2OpfLfddgu6oAiqPfLII2M5ogg5rpWA2xZhtWuvvXbQXpjZFkHGb0VZgobjjz8+voM2LJkVxzy4cmcbRUBtCcbtlltu2ZbEJLagnH766fF7UYJ2//33b1daaaX2+c9/fixzlsqpLQGoLQl3LEd0twtYmihOKuhyf3F2sYXlVa96VVuUdXDXgkCXrSR4YvvMM5/5zLYYSlsSt8EdbbvffvtFO8b/3Oc+N2gsRtqW4B2/W4ZFf0kW4/di7O1TnvKUtihX+8Y3vrE94IADgq6VV165Lc4l2k45FwWP5ZFS4MT3RFHGGF8xrvie4912221jfNpCQ1HOthhyW4whPkWxo1/LNaNQDLEthhy0aYNMilHGuA877LDgCZB/bjMqhtCuttpqwSd8LYlW3AOWeIrhx9hWWWWVoI/M/NuVTzHCkCH+zJ07t11zzTVD/iXxnOjzoIMOap/znOe0G2ywQdyHtuKI2xNPPDH47vusWbNinOiyzJTP9kHX8QfdxlESlvbggw8e/Nq2JbiFnqL59a9/fei9sZWiZnDH/wX66HpJQON7SWCjjx133LEtiU7IlpxcK0E37gHt493WW28dS3p4k/3QzZe97GUhN3qDl8Z2yCGHxO8lQQn9wZPiQIMHeEY+xoOHdIh96RvvS7APvqyxxhpBUwnO0RakbuVWKNu/SmIWbeMTPcbrro84+eSTQx6bbLJJ3EfXitMe/PpfdG1BmyUwB3/phu8lIYv7rr/++rA3NmXsz3rWs2L8c+bMiTaAntJLPsD4jQOf2Q6/Y9ylSGtf+tKXBj/dUwJ5PNuHNnfZZZeQQQki0SfdJ7MSaOKekgwGPfiPD6uvvnr78pe/PH7ji7bffvt4frvttmu32GKL0IPcdkFG2iqJeXynF+ihe/qlW29/+9vbUuSEjgkTPsbM7ugivPrVrw5/yA9P5v/6KIlH+E800IX11lsv2sWnUowM7loQlpjpP9/eRQm2IbdE6jg/imfs03e84sPTTsmK3pQAOnhyOPbee++4j9y0iWZy5AtLwhL8t3ScegC2T9FZ/gnG8SW2YJEF/cNvPr4kx3HPhhtuOCGLlMcxxxwTv9FVdKVdpv821sm2fpAdebFhWxTdr23/kj+U5KJdddVVg7YubFOkyyUBH1z5vzj22GNDtsZvLPohc5iKnyxJZ8gO38jRuLTHrlN/oSSkoXvaE9dKoh60lQQ3fi9FQOgyfZUvoEV7l1xySfwO/e0c49BHN+gn2+nmEgky1Dc/YpuqGIrP/h61ZYKdiAP6ZePkhHdsrRSV7frrrx++y9+JUgTEuPhUSN9F9/iB1ItubOmDvOl1+ly04wH/Yqxs14eu7bHHHnEP0Ht8J4fdd989dEYMyfGJjWTALvka/PK9FAoTffB1bIfv4NPEgr6/Ar7VOPAUj/zNF0zFd4I+SyExoS/8o/FsttlmC/BzKljkJJoT2mabbcJZ77vvvpEEEO444BQMJIN8HxJcDNhrr70GVxYEB4CJkvFuEv3Wt741Ei9JtKBP0ShfCrNUMfEsZB/veMc74jtoQ4BgEAnBvFR+E21wWgyBUlI6Y5fAEua6664bjks7rksqOcYMAJwvBRNoS3Ua17SBj4z0wgsvjGt9SCCMl+FlgNfP+eefH3+XKjP64fhvu+226F/gRKdEwr5cSsaYOCLJknbcq02Kx8EravBTgeDaJwZ7iQQOyZFkpwu8YRClKozvOV59loo7+rSXzzUGjQ/65CQEDp9RQAv5eE4hYExopuyuk59rgiFD4bQlLq6VqjeCERnRBWN63eteF0EXr9zD2XAOHFom0cYpaDKuDECuKQq0l0negQceGPLedNNNgyayzn7pSuqkvo2x7/C6IHvJf+6dpmf0BDgYiRuHkNf096IXvShkS3eGAX2cZ9oXJ2KcxuBv9ErkBCRjA0kMvUdPjkeAQre/BX58Puuss0Ku7hGo8BPojD44MImeZ9xz4403hs84/PDDJxIOjsyYFUh4deihh4ZMr7vuuvgdyJUOKjrRIKmX6P7sZz+L38lFgOH0s2gW5NgRXaVj+vfpI22B8+SU2Rc6LrjgggjACkrPaVf/yWc+hc/Bh7RfesoG0H/xxRfHuLWlD4E26QVtCXQnnHDC4MqC0OfVV18dbWoHJOkSkZwwYGvd4sZ9KWcJp+CUBb7fyDD57rpn8dm1V7ziFRHUsnhnP5m40QdBSWLGVtK2QOKA75lEj/J/fZCjRDztyHgU0vwDPRkGY8Jvvr2Ld77zneEbEqnjEkKJk/4lSuhi96eddlrYFnlITujIKEjIPXPqqafGM8aD3/RYkQFiE7okEIkzzjgjgjNaxvEl9FBhRo7oPvPMM0P3zznnnLgHDSYq9Mefkg3e+bAhfLjoooviu+cVxq7tsMMOE7Lvwn0SpXzOM67RV+N+zWteE8/Re0knn9uFJFoxkPGhD7GHfc+ePTv8Ff7heyauU/GTxoCXL3zhC8MGIN8xom+AxsxJyEw/eIMuhQB+igHoF/tBX+IYXU30k+ip0ucZ8Tz9Xd7fBZlLcDPvQLN3yNIOh4H8jSmLX89kfNA/2r2XkLQA34KeTKLRjCf6h4z1Es+kpQ/yliS/4Q1viO98gZjAPvGID8h22FCCX6Gb+Abo5XfwRBt4xA7kC66JZSYz0Zh90CdxGL346L6uvwI852ePPvrouE8/4s/ll18eOrww30kHFJySdkWG+/CQL9G/SZh8dioYe4NIMfSmVERNYUb8bWuEJYzC0HhTuwxicOfCUQQRU+fFSAZXFkRRhlhqKUIbXBkfni+CjeW0IrygryhDLHGNg5K8xhYT7RUli39LEhzLOV36tF2EHssC+OO+PiyNFcE2JSBMLEMWpYi95kVZYmlhGCzLWJooAXxiiU8/2223XYzLMmWp4qLdEtCj/2IMcZIIORVjjGegOPDYgqAd93qLFa3eULZ/tyQhTUku47diFIOnxkNxwk0JILGsZD+T5ZRSXcZymXaLg2jWW2+94OFkQNeb3/zmoNGY0FwCeCz9WJYrRhTLMsWgm1IYBA/dV4y2KQlW8LoYVdxv+b8kpM3MmTPjnpJkxl44fEsUhx9LwRtvvHHoTgl08Wyp/IP//k4Uo2ve9ra3BU3ozH7pChRnPiEH7Y6yD3ZAr2wTKsEybKIkQvGbZTvXjY1c0KNN9Fm2QtNU4Xm8LIEg6C3BMZbMLDXm7+yOrtEZKA4o6MNny5AlcQqdI1dtlAAXckyg3S6xkngFne6xFG5cJWELnhhDCdSh/5ante0UE7zt6r/lVTIqwSuWPy1HloI4+J1yQUsJlPEWdqL4ttjfSMf07zMKbMGy4NJLLx3j33rrrYMuy4Vs2/IzXtMr3/WJHv+WQDRo5c4+S/HdzJo1K8atLTwqwTvkb/x8HjvAYzQPA1rXXnvtoKs4/dAL/spYPFMc/MSyJdtM/2PpFfBfv5anS3AKWsjQtT78xveQNRshB+MkG9CPcbiPLaRtjcJU/B9dImv3luAV+iCelCQ+lqMXF+jlY0qRGf2vueaaoS/kUoro4A8dpre2Bg0DHtve4jn6hceWkFdaaaXYSmHbA/CR5JA6y75tY+FD2dU4voT8LGP7F93a1n/aJrp9gFy0Z6x4WJKnOJGAv3XN86Xojn5L0jFU11zL2L3lllvGM561fRLt9l1re1Fh64LxkoVx0Ad89x4UTNVPoouPZQ/Af7uPPwDjcBKR8ZakckJXydu2BfwT+zfffPOQK5rYgnHbfjAKU6WP3ZciJnIE9+BhH+TFb4kzeEqfbB/Uzig/YAzuY8eeQbMYNw74LjyhN8Zg/PTeGOjzOMCvvffeO3yA+C0Gd/2fMfIftoKwZfTyO3iCzz7icfJJfNMGGhNySye0df1OF2zN9hY24rQN9+lH/CkFcejKwnynbSJ46t2CzGP5JPnXjBkzwu8bx1QxdhKNyFKhRHCzV8ieqFKdR3Jk7+s4gkmmG+wwCDoGTWCLCgx2zJe2MFcQt79wXFB2+4oYJiVkXBI3BuSTQKugPxkEK0LLBDrB0TCcW2+9dXBlQXAGFKv/HFBaiZbg1S8QGD76M9hCOtoERfYdvxJoFOw5nUVB15kwYu31HYx+p6KwfR2g7Gilb/QHzyRB6O3CPk7jKpV59MPoOfLuONHWpYtz5nDOPffcSLbzw5Hri04m8BotXfidbnA6HCV9EWS7etLHzjvvHA5/q622iiDDrrIf++LoL7vr0iNZIfduIJ4KunL3N8eeNsgmBQT7/9Dt7/nz58dv7sEb+t3ncxd423f2Egn6J0FN+jl3tihAGOtqq60Wgcu+YeMiKwWnAM8Jcvyu24/X5YP3KVzv+h404OdUYCxdfaALZKp/tJEb+l/5ylcGT/RJF9DclSleGkOXv6CNI488MgoXz0qOOPfJ9MF4FHeSLc+su+66sS8wn5GY++y5554RPOzroyNg3AKRPYGe9XfKsA9jVVThL/rw2h7gro6Pg6n4PzCpIaDSATTSM+gmJ4uDrgzodAbbLvgefB4G1/lbfiXllh9JgmIIJHR8riQWFOyKXjqJF+P4EjR36UavT9rmKJC7Yomf749RMoFWv/dBJ+j4yiuvPLhyJ7RBh/w2TjLRh0Kcb0HXMBj7VPykJKc7Ljwiz+SdwovtK1yGwb5hPMTzrgy8mzFK/jBV+tiQSaJ+wteFZ+iGiSXFnf7pCP6O0nmxQEGjMPevgmdhutCHfk08mIBK3yVPg3FtvB+7uxNPwB/JiySjCgZ+PPtgR+QmgZ4M/G6/ny7ouoLIRITifxgW5ju9i4MWxXAX8oBMtsfxQwt6+0UAxWFwKgHKPI7RcT4StFGJt0od0/qD7aOv1H2YNRKMzeCauVOdmxkbB15kEkSBkhx66KExwzEu0MoQ8K3rMLvoO8LEZAakXQo7mSEvym+TPTMuhrW1OO0bc/LQ2EfxE5KnnvGZrN+8h54cdthhEx9nZ0pMcoZ4GNAhud1xxx0jiKau9ANVH2a4BF/9MGIzdSeddFL8xqAlevS3S88JJ5wQL07kDM10Ac1o4YQkrApk1TuM63gTdBc/vIyc9DsJxeqJFREFlt932223WF0wq2zWm28wbrIlE+BrunyQoHpBl7ymC/rSp4+XlAQFiR8f4NQgifBUdFcCI4B5iZO/MHsyb968GO8o8KHuk9xKDBRPBx100ALJqZlikxj4p/DGN/cBmvfaa6946c3spHuccjRq1lVRaVJEHxIORZyXh+4qCGICrkLNzKl+d9hhh8Gv0w9yGtf3kD+7w/Ourvngpw9IxOkCe5EomBElW5MtsDi+ZBTdfWQfo/xf6nEfxrew56bS/zBolx6Pen5R/eQw5Dgm6wusKHRlYOWcDIZhOukDukEn6IlC1SrZLrvsMjLWA7vmf/kOCR4a+IXupIlxTwb9bbPNNlEwScbzxLO7Amad+RyrKegyy7z//vuHHmTOs7jQLtmMamsqvjMT5FFtTJbED8PorGMMGFguN4zDKEtGZmRUrMNg5hfDVFDDoC8DplRdZerPzLlPNawSFZxVQ0cddVT85nm/d5/RZ78NSwiSftWgIEghVZ/jQl9mR/Erl+kSKn+zdYLaMKjSKGN3W0aCkZn9M+Panzl2P9lYPl0coF0/fd7kTOJdiX4BoRp1TRAjQxWkWZ+cjUtIfOhGzlyrXjm0bnv+7tKvTUtW+GkrDGeQH7MDk83CqoI5ZjOqqSvaGDUb04XKntMxc2Dmw0wJ0Ff0SWa7tPhIeMzKTCfImW3qX7Fpu42ZNnwW9H0fp1gG20bwWTLRHwP7zkAuISEjwUP/CmDPAv7QP7MQ/TYEikXV777uotOpD1Y26IGTC8wm2vLBIQusZjjwaWGgp1deeWU4c7MjCgJBdDId0pcCAi8ka2astt9++1ip6kIbaLH8aCZXUp0gK7O8ZkD9biaGPo6CsZqxtoTvuSOOOGLwy3/R9bGLA4WfhJ6MFUA77bRTzKZPBuOhI3xNFzkjPN3AWz5Dn4qgvr6xRUCXZWF+G3+dZGKbH37C4viSYUid68qCTdB9fr7r18AqFpvNrT5dKMTYWn9LgzYUOnwq+vCA7+yuZILvo3QCneKjWCQm9bE4frIPdmEcTl4ZBskdOTlqtMt/H1tAhmE66QNFKp13uojtLVYeJbPp90bBuMxeS07ZOH9ApvhLJuJdVwZ9+3A6jfhgVni//fYLf2ELw10FffFx6DXh4KhiNsoeJK+K9MUBXZeH0alhqwhT8Z1JS19fxDTFBlvF26li7CTazNBVV101kawIQKod+65UaYQOghDh2x82CpZ2ORkVnjYzmGGOaua8886LGRZLZsOAoRhipkhg93we1ZPAVNcoF8XjFAg6Z4Isx3NAeZQX5gqW9nN1Qdn9xsFQWorc3bs5DiwvMGyJPGcFHBKFJ0izM8NgJotjs285g4ckUVWbAZUSKBbSmMjBkTq5l29xgN9koU9OAR9sTWEsfQc7nSBXlSU5gjFKsAQHyR66cqaN7PAQbYozTstyLN0kdw7EaoTZTrAXlKF1Cw8Bx/10OuUDaXj+HQU65tO9xzML21dupYT+eRadAq9/QZLJsG1L6u6fU8zQw1GBbFGAt+wZ6Dw6Mojis1lg47HMaYw+/s4lwlHg1LTjvm4CbpmZY80x0G9bIiSE9q2xBTwBztNvbNPSaBf0vJ8MTxV02NaC3OtIh+g455vjR0PSbcXNjONU+kva+Ut/GydfMxV7yQDp4xitbgDi8xSDQDZmy9LxS9zxDn2SBz7ZGMxs9cHX0nP6jz4yNub0j65pm9/Hn+kAWoyJ/mofDSZMJoOEj/wFyNwLK8mxGnNXAC8l9+zNilDGO3Ct+x6HGS97OflvvkVcy+R4cXzJMOTWKzJOmyEvy+h0IrcbkL3Yq/g14ynO9qEYtVVBkeXjGR/2ZfsS26MHPgpZY6NXqY/ie5cvfWSxqFASrzxnRct3cvfpjn8qfnIYjIOPZ5OKQP3oz/+Blp+3UifeKtq6OoyPwyakYDrpg/QhmYewJxNzXV/YBTlIRK3Gu59dst/0w/6V0KOJ/wJjVQh3oV9jSP9DBxdma4sKcYNvTHrpJTp9V4yQk/cMckVMIix3octTBX3adtttgy9pl3ilb/xKTOY7Fbne10GLOOIePsixpHyqLb/pS6eE0sBY8JZ0Ucg46sTpGoU58ebzcsstF29FJhxtVJKAiTc8R8Gbo0UZ4rQIbZUgHe0Xw41TE/424uQBKMxry8Cjn+Jg40SAkljF2+ToKwlB/N/oSgISb5dvt9128dZ2cUQTR74VQ4q38IvQ401zbyGjpyRW8fZmojjseEO0JDTtnnvuGW+SJq3FqcZboY54wgdvmnbhtAp9do9QKwYUb7uid4MNNogjVkqwi7fPtTUMaC1GEuN1/zrrrBM0eR48VxLa4CXa/Y6PaCpKFvcUo41jvbxl3IW3s/XvtItEcTjRT/c4nKLw0R4a1lprrTjSxokXrhkTDBtvSRBDPk6y6KIk/CGrUSgOIk49cLxPKXjiNIplllkmaC1GMLjrzjeKS0AIXSxOM96gLk4njttBT6IEmnge/WRZKtTQY/ehJVEMMujSt2N66I43mksSHm8mA77gD/knyMAbzCkXJ0fgDfqdxjJKnzfbbLPg5ezZs4Ov6Mvjq8ARbXhKl+fMmRMypPP6KA5gcNeC6NPH1uhGnuaS0GcpjuLvUnjEm/noNWZ94IPrUJxkyACf8YJMySJPtynVf/C9exwRFKcWxx7RR3xwYoAj6IzJiR2p82z69NNPj/bdm/0m6MMKK6wQ/HWyhpMlyI5d0zHwdjX+dU9MGAa2oA18Z8/sfvXVV4++vfleAl7c5yQE9+jDyTdOB3EyCp+Rp2MUZxxj8UZ9F3SFfrF1fmnWrFlxUgAddCLDMODV3LlzY4zG5zNjxow49onc/c7X+J3e4GMJLnHCCDjdhwzQSLbshk2UABq/d2XExvkCekLe5KldJ1Ik+Ab8pMdO8SgJYVzXH1n8eXA6xyj/10cJaOGf8JRO0Pf1118/TiJwosUooBsdaKWfdJOOd/3HMB03RnThaRf8OJ8/GRzFiLf0wolN7I0s+3Km/yVZCNqMr4tF9SX4iO5DDz10cKWN0y2MW9zgv/KUEHGZftBdMnTyBF6JAeQzCtqjG8Y4c+bM0IVSeMU48S3BBvTJX2qT7JxMwlekPgzDPvvsE/KgJ/SRTRv/VP2kk0LoqpNWEqUADR/EDybYOhvRnriMv/SJvwf6gFZ0syen/IjdTjxKpN+AxaFvGEpyFn6KjPHNKVh8DJ9RCsPBXf8F32R8aOaj+BC00UH2D2yFPPSPH/RS3mLcJUGNe5xkQm7ymnnz5oXv4oPoYykg4p4+jI1d8HVAD9mr3KKLSy+9NHQ6wb7QgN6NNtooeLfrrrtO0CvnMl404yka5GU333zzyD6gH1PEOz6ProtbdJb+ktdUfCdcccUVcYKb2EUO/L82nFgmzxoHY/8fC1VvKh4zxyqgQmxUwSpBs2UJs2pmAlVLlsVGQfeqIxWuasIMjfvtx7SUW5g3uHM4ClNiuVSlb7bCsm4RTixf2g9oJka1YQbD9gkVqSXw4miiSgNViLetza7qWxv6Ve1oI+9Bn+Xt4hSiWikGETNgxbDimr/NbFrq8z2h+lTZ26aRvFCBqsrNAKgm/WYfrJnS7rN9oMMJE8bjb7PaZgeLc4jfVbiqcVUZGWjPErotAYDf5IYmdCeKEseyHr4kz8na7EZx2gtsMfFijT2o+rIcRvZmKfSB98PGW5xS6I0KVVWaUCGSv+0Lw0B2ZuBLkIrZELOexRHH/jJ61+WV7TD2WdoOYZbLkjs9Ks4vqmEwfrO39ribUcI/+13JgG64N+9TIVueNfuAbvropRDLlHSHvM2K4aPfE+SCDrpipaMEjVjtUKWTB53sw4wIXbDdyDNmgdBvrEAWeIEe/xZnFHqGb/ic4+uiTx95aR8fzfgmtEdX3EdO9Jx+mZW2BIrXZJt94Bt7caoGm/PWO70pTij6Y2dmjM1gdkEmnjEGM3lm6bzsy8bob7ZvFonv0J52u7wFMxn0m26SA30iF/9qw2wCeRrPZP4DTy3V4xPem/2mG+ixZ5c+AJ6wDTpDx/gP43Mtx0nnvSRZAsHEc4mcuebjyN/z+FSC24Rd9mFmGJ/MWmvT7AsZgZlNsvGbWRZjpuf8gGVLfOYDjEk7Zl7IMG2xK6MSRGLW3b1sGE3GTveS73yVGU0+ln3bb01/8Er7+Jz2MMz/DQP5WOo1G4X2ElSjPfpGt4cBHeSOVuNkV3ww/U3/MUzHyZk/MjYrcgk0kM1k77aUhCJ0VmxwL19IZ/GHTSf4T34CXVbrMrbAovqS9L/2c9oCCGbd+H9+ULuWzo0V8BKd6NUGfUCrcQ/zD6ANPjj/Jy7iOVmgzVgS+kWL2W0xl92wTbymj/zAMNBZOmrs7EgssrLm/qn4STPH4iR+Jb/RQlfRahUgr5EnHRXf6BEfyna0Y5yu0x16Ru/xGi1pg+k3bGeCRaVvGPQvJ+FD8NvKqbhDH4xhGP/4WfLEP76QXLxgiHYwZvzXJl2x2sfW0cMGPYPndJ/c+AVycw9esP+SmEdbXWjXYRFsHW+0zbexy+Q35NjpGLB9cubn2L9VDrlBxgG08OtWlOm6+E0f5I1+G9YHDIsp4ocYZfuj8RxwwAEhS88vzHeyBWN0EAN94Mf5bPTSCXo1DsZOoisq7k5kEm3Z1taeiorpQjeJFpQrKioqKv5/gP+2pUixYZJiWEFwd2DsPdEVFRUVFRUVFRUV9wSsGkicrQyaBLE6ck+hJtEV92pYIrO81t1OUlExHbCsZ1l2suX8ioqKiop7F2yNcWiALTcOpljYtt+7EnU7R0VFRUVFRUVFRcWYqDPRFRUVFRUVFRUVFWOiJtEVFRUVFRUVFRUVY6Im0RUVFRUVFRUVFRVjoibRFRUVFRUVFRUVFWOiJtEVFRUVFRUVFRUVY6Im0RUVFRUVFRUVFRVjoibRFRUVFRUVFRUVFWOiJtEVFRUVFRUVFRUVY6Fp/hezl7fsh5P2gAAAAABJRU5ErkJggg==;" parent="1" vertex="1">
          <mxGeometry x="53" y="10" width="721" height="383" as="geometry" />
        </mxCell>
        <mxCell id="jJhntovyl3X0jqXpgIId-18" style="edgeStyle=orthogonalEdgeStyle;rounded=0;orthogonalLoop=1;jettySize=auto;html=1;entryX=0.5;entryY=0;entryDx=0;entryDy=0;endArrow=none;endFill=0;" parent="1" source="jJhntovyl3X0jqXpgIId-8" target="jJhntovyl3X0jqXpgIId-17" edge="1">
          <mxGeometry relative="1" as="geometry" />
        </mxCell>
        <mxCell id="jJhntovyl3X0jqXpgIId-8" value="PresencaEvento" style="rounded=0;whiteSpace=wrap;html=1;" parent="1" vertex="1">
          <mxGeometry x="648" y="750" width="130" height="70" as="geometry" />
        </mxCell>
        <mxCell id="jJhntovyl3X0jqXpgIId-9" value="Comentario" style="rounded=0;whiteSpace=wrap;html=1;" parent="1" vertex="1">
          <mxGeometry x="439" y="750" width="130" height="70" as="geometry" />
        </mxCell>
        <mxCell id="jJhntovyl3X0jqXpgIId-10" value="InstituiÃ§ao" style="rounded=0;whiteSpace=wrap;html=1;" parent="1" vertex="1">
          <mxGeometry x="439" y="1230" width="130" height="70" as="geometry" />
        </mxCell>
        <mxCell id="jJhntovyl3X0jqXpgIId-12" style="edgeStyle=orthogonalEdgeStyle;rounded=0;orthogonalLoop=1;jettySize=auto;html=1;endArrow=none;endFill=0;" parent="1" source="jJhntovyl3X0jqXpgIId-11" target="jJhntovyl3X0jqXpgIId-1" edge="1">
          <mxGeometry relative="1" as="geometry" />
        </mxCell>
        <mxCell id="jJhntovyl3X0jqXpgIId-13" style="edgeStyle=orthogonalEdgeStyle;rounded=0;orthogonalLoop=1;jettySize=auto;html=1;entryX=1;entryY=0.5;entryDx=0;entryDy=0;endArrow=none;endFill=0;" parent="1" source="jJhntovyl3X0jqXpgIId-11" target="jJhntovyl3X0jqXpgIId-2" edge="1">
          <mxGeometry relative="1" as="geometry" />
        </mxCell>
        <mxCell id="jJhntovyl3X0jqXpgIId-11" value="Possui" style="rhombus;whiteSpace=wrap;html=1;" parent="1" vertex="1">
          <mxGeometry x="259" y="510" width="80" height="80" as="geometry" />
        </mxCell>
        <mxCell id="jJhntovyl3X0jqXpgIId-30" style="edgeStyle=orthogonalEdgeStyle;rounded=0;orthogonalLoop=1;jettySize=auto;html=1;endArrow=none;endFill=0;" parent="1" source="jJhntovyl3X0jqXpgIId-14" target="jJhntovyl3X0jqXpgIId-8" edge="1">
          <mxGeometry relative="1" as="geometry" />
        </mxCell>
        <mxCell id="jJhntovyl3X0jqXpgIId-14" value="Possui" style="rhombus;whiteSpace=wrap;html=1;" parent="1" vertex="1">
          <mxGeometry x="673" y="510" width="80" height="80" as="geometry" />
        </mxCell>
        <mxCell id="jJhntovyl3X0jqXpgIId-19" style="edgeStyle=orthogonalEdgeStyle;rounded=0;orthogonalLoop=1;jettySize=auto;html=1;entryX=1;entryY=0.5;entryDx=0;entryDy=0;endArrow=none;endFill=0;" parent="1" source="jJhntovyl3X0jqXpgIId-17" target="jJhntovyl3X0jqXpgIId-3" edge="1">
          <mxGeometry relative="1" as="geometry" />
        </mxCell>
        <mxCell id="jJhntovyl3X0jqXpgIId-17" value="Possui" style="rhombus;whiteSpace=wrap;html=1;" parent="1" vertex="1">
          <mxGeometry x="673" y="980" width="80" height="80" as="geometry" />
        </mxCell>
        <mxCell id="jJhntovyl3X0jqXpgIId-21" style="edgeStyle=orthogonalEdgeStyle;rounded=0;orthogonalLoop=1;jettySize=auto;html=1;entryX=1;entryY=0.5;entryDx=0;entryDy=0;endArrow=none;endFill=0;" parent="1" source="jJhntovyl3X0jqXpgIId-20" target="jJhntovyl3X0jqXpgIId-4" edge="1">
          <mxGeometry relative="1" as="geometry" />
        </mxCell>
        <mxCell id="jJhntovyl3X0jqXpgIId-22" style="edgeStyle=orthogonalEdgeStyle;rounded=0;orthogonalLoop=1;jettySize=auto;html=1;entryX=0;entryY=0.5;entryDx=0;entryDy=0;endArrow=none;endFill=0;" parent="1" source="jJhntovyl3X0jqXpgIId-20" target="jJhntovyl3X0jqXpgIId-3" edge="1">
          <mxGeometry relative="1" as="geometry" />
        </mxCell>
        <mxCell id="jJhntovyl3X0jqXpgIId-20" value="Possui" style="rhombus;whiteSpace=wrap;html=1;" parent="1" vertex="1">
          <mxGeometry x="259" y="980" width="80" height="80" as="geometry" />
        </mxCell>
        <mxCell id="jJhntovyl3X0jqXpgIId-26" style="edgeStyle=orthogonalEdgeStyle;rounded=0;orthogonalLoop=1;jettySize=auto;html=1;endArrow=none;endFill=0;" parent="1" source="jJhntovyl3X0jqXpgIId-24" target="jJhntovyl3X0jqXpgIId-9" edge="1">
          <mxGeometry relative="1" as="geometry" />
        </mxCell>
        <mxCell id="jJhntovyl3X0jqXpgIId-27" style="edgeStyle=orthogonalEdgeStyle;rounded=0;orthogonalLoop=1;jettySize=auto;html=1;entryX=0.5;entryY=1;entryDx=0;entryDy=0;endArrow=none;endFill=0;" parent="1" source="jJhntovyl3X0jqXpgIId-24" target="jJhntovyl3X0jqXpgIId-1" edge="1">
          <mxGeometry relative="1" as="geometry" />
        </mxCell>
        <mxCell id="jJhntovyl3X0jqXpgIId-24" value="Possui" style="rhombus;whiteSpace=wrap;html=1;" parent="1" vertex="1">
          <mxGeometry x="464" y="630" width="80" height="80" as="geometry" />
        </mxCell>
        <mxCell id="jJhntovyl3X0jqXpgIId-28" style="edgeStyle=orthogonalEdgeStyle;rounded=0;orthogonalLoop=1;jettySize=auto;html=1;endArrow=none;endFill=0;" parent="1" source="jJhntovyl3X0jqXpgIId-25" target="jJhntovyl3X0jqXpgIId-9" edge="1">
          <mxGeometry relative="1" as="geometry" />
        </mxCell>
        <mxCell id="jJhntovyl3X0jqXpgIId-29" style="edgeStyle=orthogonalEdgeStyle;rounded=0;orthogonalLoop=1;jettySize=auto;html=1;endArrow=none;endFill=0;" parent="1" source="jJhntovyl3X0jqXpgIId-25" target="jJhntovyl3X0jqXpgIId-3" edge="1">
          <mxGeometry relative="1" as="geometry" />
        </mxCell>
        <mxCell id="jJhntovyl3X0jqXpgIId-25" value="Possui" style="rhombus;whiteSpace=wrap;html=1;" parent="1" vertex="1">
          <mxGeometry x="464" y="860" width="80" height="80" as="geometry" />
        </mxCell>
        <mxCell id="jJhntovyl3X0jqXpgIId-32" style="edgeStyle=orthogonalEdgeStyle;rounded=0;orthogonalLoop=1;jettySize=auto;html=1;endArrow=none;endFill=0;" parent="1" source="jJhntovyl3X0jqXpgIId-31" target="jJhntovyl3X0jqXpgIId-3" edge="1">
          <mxGeometry relative="1" as="geometry" />
        </mxCell>
        <mxCell id="jJhntovyl3X0jqXpgIId-33" style="edgeStyle=orthogonalEdgeStyle;rounded=0;orthogonalLoop=1;jettySize=auto;html=1;endArrow=none;endFill=0;" parent="1" source="jJhntovyl3X0jqXpgIId-31" target="jJhntovyl3X0jqXpgIId-10" edge="1">
          <mxGeometry relative="1" as="geometry" />
        </mxCell>
        <mxCell id="jJhntovyl3X0jqXpgIId-31" value="Possui" style="rhombus;whiteSpace=wrap;html=1;" parent="1" vertex="1">
          <mxGeometry x="464" y="1100" width="80" height="80" as="geometry" />
        </mxCell>
        <mxCell id="jJhntovyl3X0jqXpgIId-34" value="N" style="text;html=1;align=center;verticalAlign=middle;resizable=0;points=[];autosize=1;strokeColor=none;fillColor=none;" parent="1" vertex="1">
          <mxGeometry x="409" y="515" width="30" height="30" as="geometry" />
        </mxCell>
        <mxCell id="jJhntovyl3X0jqXpgIId-35" value="1" style="text;html=1;align=center;verticalAlign=middle;resizable=0;points=[];autosize=1;strokeColor=none;fillColor=none;" parent="1" vertex="1">
          <mxGeometry x="182" y="515" width="30" height="30" as="geometry" />
        </mxCell>
        <mxCell id="jJhntovyl3X0jqXpgIId-36" value="N" style="text;html=1;align=center;verticalAlign=middle;resizable=0;points=[];autosize=1;strokeColor=none;fillColor=none;" parent="1" vertex="1">
          <mxGeometry x="720" y="720" width="30" height="30" as="geometry" />
        </mxCell>
        <mxCell id="jJhntovyl3X0jqXpgIId-38" value="1" style="text;html=1;align=center;verticalAlign=middle;resizable=0;points=[];autosize=1;strokeColor=none;fillColor=none;" parent="1" vertex="1">
          <mxGeometry x="569" y="515" width="30" height="30" as="geometry" />
        </mxCell>
        <mxCell id="jJhntovyl3X0jqXpgIId-40" value="N" style="text;html=1;align=center;verticalAlign=middle;resizable=0;points=[];autosize=1;strokeColor=none;fillColor=none;" parent="1" vertex="1">
          <mxGeometry x="720" y="820" width="30" height="30" as="geometry" />
        </mxCell>
        <mxCell id="jJhntovyl3X0jqXpgIId-41" value="1" style="text;html=1;align=center;verticalAlign=middle;resizable=0;points=[];autosize=1;strokeColor=none;fillColor=none;" parent="1" vertex="1">
          <mxGeometry x="569" y="1025" width="30" height="30" as="geometry" />
        </mxCell>
        <mxCell id="jJhntovyl3X0jqXpgIId-42" value="1" style="text;html=1;align=center;verticalAlign=middle;resizable=0;points=[];autosize=1;strokeColor=none;fillColor=none;" parent="1" vertex="1">
          <mxGeometry x="470" y="585" width="30" height="30" as="geometry" />
        </mxCell>
        <mxCell id="jJhntovyl3X0jqXpgIId-43" value="N" style="text;html=1;align=center;verticalAlign=middle;resizable=0;points=[];autosize=1;strokeColor=none;fillColor=none;" parent="1" vertex="1">
          <mxGeometry x="470" y="720" width="30" height="30" as="geometry" />
        </mxCell>
        <mxCell id="jJhntovyl3X0jqXpgIId-44" value="N" style="text;html=1;align=center;verticalAlign=middle;resizable=0;points=[];autosize=1;strokeColor=none;fillColor=none;" parent="1" vertex="1">
          <mxGeometry x="470" y="820" width="30" height="30" as="geometry" />
        </mxCell>
        <mxCell id="jJhntovyl3X0jqXpgIId-45" value="1" style="text;html=1;align=center;verticalAlign=middle;resizable=0;points=[];autosize=1;strokeColor=none;fillColor=none;" parent="1" vertex="1">
          <mxGeometry x="470" y="955" width="30" height="30" as="geometry" />
        </mxCell>
        <mxCell id="jJhntovyl3X0jqXpgIId-46" value="1" style="text;html=1;align=center;verticalAlign=middle;resizable=0;points=[];autosize=1;strokeColor=none;fillColor=none;" parent="1" vertex="1">
          <mxGeometry x="183" y="985" width="30" height="30" as="geometry" />
        </mxCell>
        <mxCell id="jJhntovyl3X0jqXpgIId-47" value="N" style="text;html=1;align=center;verticalAlign=middle;resizable=0;points=[];autosize=1;strokeColor=none;fillColor=none;" parent="1" vertex="1">
          <mxGeometry x="409" y="985" width="30" height="30" as="geometry" />
        </mxCell>
        <mxCell id="jJhntovyl3X0jqXpgIId-48" value="N" style="text;html=1;align=center;verticalAlign=middle;resizable=0;points=[];autosize=1;strokeColor=none;fillColor=none;" parent="1" vertex="1">
          <mxGeometry x="510" y="1055" width="30" height="30" as="geometry" />
        </mxCell>
        <mxCell id="jJhntovyl3X0jqXpgIId-49" value="1" style="text;html=1;align=center;verticalAlign=middle;resizable=0;points=[];autosize=1;strokeColor=none;fillColor=none;" parent="1" vertex="1">
          <mxGeometry x="510" y="1200" width="30" height="30" as="geometry" />
        </mxCell>
        <mxCell id="jJhntovyl3X0jqXpgIId-50" value="Conceitual" style="rounded=1;whiteSpace=wrap;html=1;fillColor=#f8cecc;strokeColor=#b85450;" parent="1" vertex="1">
          <mxGeometry x="350" y="440" width="126" height="30" as="geometry" />
        </mxCell>
        <mxCell id="jJhntovyl3X0jqXpgIId-51" value="Logico" style="rounded=1;whiteSpace=wrap;html=1;fillColor=#f8cecc;strokeColor=#b85450;" parent="1" vertex="1">
          <mxGeometry x="1405" y="80" width="126" height="30" as="geometry" />
        </mxCell>
        <mxCell id="jJhntovyl3X0jqXpgIId-52" value="TipoDeUsuario" style="shape=table;startSize=30;container=1;collapsible=1;childLayout=tableLayout;fixedRows=1;rowLines=0;fontStyle=1;align=center;resizeLast=1;html=1;" parent="1" vertex="1">
          <mxGeometry x="909" y="232.5" width="180" height="87.5" as="geometry" />
        </mxCell>
        <mxCell id="jJhntovyl3X0jqXpgIId-53" value="" style="shape=tableRow;horizontal=0;startSize=0;swimlaneHead=0;swimlaneBody=0;fillColor=none;collapsible=0;dropTarget=0;points=[[0,0.5],[1,0.5]];portConstraint=eastwest;top=0;left=0;right=0;bottom=1;" parent="jJhntovyl3X0jqXpgIId-52" vertex="1">
          <mxGeometry y="30" width="180" height="28" as="geometry" />
        </mxCell>
        <mxCell id="jJhntovyl3X0jqXpgIId-54" value="PK" style="shape=partialRectangle;connectable=0;fillColor=none;top=0;left=0;bottom=0;right=0;fontStyle=1;overflow=hidden;whiteSpace=wrap;html=1;" parent="jJhntovyl3X0jqXpgIId-53" vertex="1">
          <mxGeometry width="30" height="28" as="geometry">
            <mxRectangle width="30" height="28" as="alternateBounds" />
          </mxGeometry>
        </mxCell>
        <mxCell id="jJhntovyl3X0jqXpgIId-55" value="IdTipoUsuario" style="shape=partialRectangle;connectable=0;fillColor=none;top=0;left=0;bottom=0;right=0;align=left;spacingLeft=6;fontStyle=5;overflow=hidden;whiteSpace=wrap;html=1;" parent="jJhntovyl3X0jqXpgIId-53" vertex="1">
          <mxGeometry x="30" width="150" height="28" as="geometry">
            <mxRectangle width="150" height="28" as="alternateBounds" />
          </mxGeometry>
        </mxCell>
        <mxCell id="jJhntovyl3X0jqXpgIId-56" value="" style="shape=tableRow;horizontal=0;startSize=0;swimlaneHead=0;swimlaneBody=0;fillColor=none;collapsible=0;dropTarget=0;points=[[0,0.5],[1,0.5]];portConstraint=eastwest;top=0;left=0;right=0;bottom=0;" parent="jJhntovyl3X0jqXpgIId-52" vertex="1">
          <mxGeometry y="58" width="180" height="30" as="geometry" />
        </mxCell>
        <mxCell id="jJhntovyl3X0jqXpgIId-57" value="" style="shape=partialRectangle;connectable=0;fillColor=none;top=0;left=0;bottom=0;right=0;editable=1;overflow=hidden;whiteSpace=wrap;html=1;" parent="jJhntovyl3X0jqXpgIId-56" vertex="1">
          <mxGeometry width="30" height="30" as="geometry">
            <mxRectangle width="30" height="30" as="alternateBounds" />
          </mxGeometry>
        </mxCell>
        <mxCell id="jJhntovyl3X0jqXpgIId-58" value="TituloTipoUsuario" style="shape=partialRectangle;connectable=0;fillColor=none;top=0;left=0;bottom=0;right=0;align=left;spacingLeft=6;overflow=hidden;whiteSpace=wrap;html=1;" parent="jJhntovyl3X0jqXpgIId-56" vertex="1">
          <mxGeometry x="30" width="150" height="30" as="geometry">
            <mxRectangle width="150" height="30" as="alternateBounds" />
          </mxGeometry>
        </mxCell>
        <mxCell id="jJhntovyl3X0jqXpgIId-65" value="TipoDeEvento" style="shape=table;startSize=30;container=1;collapsible=1;childLayout=tableLayout;fixedRows=1;rowLines=0;fontStyle=1;align=center;resizeLast=1;html=1;" parent="1" vertex="1">
          <mxGeometry x="1888" y="365" width="180" height="90" as="geometry" />
        </mxCell>
        <mxCell id="jJhntovyl3X0jqXpgIId-66" value="" style="shape=tableRow;horizontal=0;startSize=0;swimlaneHead=0;swimlaneBody=0;fillColor=none;collapsible=0;dropTarget=0;points=[[0,0.5],[1,0.5]];portConstraint=eastwest;top=0;left=0;right=0;bottom=1;" parent="jJhntovyl3X0jqXpgIId-65" vertex="1">
          <mxGeometry y="30" width="180" height="30" as="geometry" />
        </mxCell>
        <mxCell id="jJhntovyl3X0jqXpgIId-67" value="PK" style="shape=partialRectangle;connectable=0;fillColor=none;top=0;left=0;bottom=0;right=0;fontStyle=1;overflow=hidden;whiteSpace=wrap;html=1;" parent="jJhntovyl3X0jqXpgIId-66" vertex="1">
          <mxGeometry width="30" height="30" as="geometry">
            <mxRectangle width="30" height="30" as="alternateBounds" />
          </mxGeometry>
        </mxCell>
        <mxCell id="jJhntovyl3X0jqXpgIId-68" value="IdTipoEvento" style="shape=partialRectangle;connectable=0;fillColor=none;top=0;left=0;bottom=0;right=0;align=left;spacingLeft=6;fontStyle=5;overflow=hidden;whiteSpace=wrap;html=1;" parent="jJhntovyl3X0jqXpgIId-66" vertex="1">
          <mxGeometry x="30" width="150" height="30" as="geometry">
            <mxRectangle width="150" height="30" as="alternateBounds" />
          </mxGeometry>
        </mxCell>
        <mxCell id="jJhntovyl3X0jqXpgIId-69" value="" style="shape=tableRow;horizontal=0;startSize=0;swimlaneHead=0;swimlaneBody=0;fillColor=none;collapsible=0;dropTarget=0;points=[[0,0.5],[1,0.5]];portConstraint=eastwest;top=0;left=0;right=0;bottom=0;" parent="jJhntovyl3X0jqXpgIId-65" vertex="1">
          <mxGeometry y="60" width="180" height="30" as="geometry" />
        </mxCell>
        <mxCell id="jJhntovyl3X0jqXpgIId-70" value="" style="shape=partialRectangle;connectable=0;fillColor=none;top=0;left=0;bottom=0;right=0;editable=1;overflow=hidden;whiteSpace=wrap;html=1;" parent="jJhntovyl3X0jqXpgIId-69" vertex="1">
          <mxGeometry width="30" height="30" as="geometry">
            <mxRectangle width="30" height="30" as="alternateBounds" />
          </mxGeometry>
        </mxCell>
        <mxCell id="jJhntovyl3X0jqXpgIId-71" value="TituloTipoEvento" style="shape=partialRectangle;connectable=0;fillColor=none;top=0;left=0;bottom=0;right=0;align=left;spacingLeft=6;overflow=hidden;whiteSpace=wrap;html=1;" parent="jJhntovyl3X0jqXpgIId-69" vertex="1">
          <mxGeometry x="30" width="150" height="30" as="geometry">
            <mxRectangle width="150" height="30" as="alternateBounds" />
          </mxGeometry>
        </mxCell>
        <mxCell id="jJhntovyl3X0jqXpgIId-72" value="Instituicao" style="shape=table;startSize=30;container=1;collapsible=1;childLayout=tableLayout;fixedRows=1;rowLines=0;fontStyle=1;align=center;resizeLast=1;html=1;" parent="1" vertex="1">
          <mxGeometry x="1888" y="190" width="180" height="150" as="geometry" />
        </mxCell>
        <mxCell id="jJhntovyl3X0jqXpgIId-73" value="" style="shape=tableRow;horizontal=0;startSize=0;swimlaneHead=0;swimlaneBody=0;fillColor=none;collapsible=0;dropTarget=0;points=[[0,0.5],[1,0.5]];portConstraint=eastwest;top=0;left=0;right=0;bottom=1;" parent="jJhntovyl3X0jqXpgIId-72" vertex="1">
          <mxGeometry y="30" width="180" height="30" as="geometry" />
        </mxCell>
        <mxCell id="jJhntovyl3X0jqXpgIId-74" value="PK" style="shape=partialRectangle;connectable=0;fillColor=none;top=0;left=0;bottom=0;right=0;fontStyle=1;overflow=hidden;whiteSpace=wrap;html=1;" parent="jJhntovyl3X0jqXpgIId-73" vertex="1">
          <mxGeometry width="30" height="30" as="geometry">
            <mxRectangle width="30" height="30" as="alternateBounds" />
          </mxGeometry>
        </mxCell>
        <mxCell id="jJhntovyl3X0jqXpgIId-75" value="IdInstituicao" style="shape=partialRectangle;connectable=0;fillColor=none;top=0;left=0;bottom=0;right=0;align=left;spacingLeft=6;fontStyle=5;overflow=hidden;whiteSpace=wrap;html=1;" parent="jJhntovyl3X0jqXpgIId-73" vertex="1">
          <mxGeometry x="30" width="150" height="30" as="geometry">
            <mxRectangle width="150" height="30" as="alternateBounds" />
          </mxGeometry>
        </mxCell>
        <mxCell id="jJhntovyl3X0jqXpgIId-76" value="" style="shape=tableRow;horizontal=0;startSize=0;swimlaneHead=0;swimlaneBody=0;fillColor=none;collapsible=0;dropTarget=0;points=[[0,0.5],[1,0.5]];portConstraint=eastwest;top=0;left=0;right=0;bottom=0;" parent="jJhntovyl3X0jqXpgIId-72" vertex="1">
          <mxGeometry y="60" width="180" height="30" as="geometry" />
        </mxCell>
        <mxCell id="jJhntovyl3X0jqXpgIId-77" value="" style="shape=partialRectangle;connectable=0;fillColor=none;top=0;left=0;bottom=0;right=0;editable=1;overflow=hidden;whiteSpace=wrap;html=1;" parent="jJhntovyl3X0jqXpgIId-76" vertex="1">
          <mxGeometry width="30" height="30" as="geometry">
            <mxRectangle width="30" height="30" as="alternateBounds" />
          </mxGeometry>
        </mxCell>
        <mxCell id="jJhntovyl3X0jqXpgIId-78" value="CNPJ" style="shape=partialRectangle;connectable=0;fillColor=none;top=0;left=0;bottom=0;right=0;align=left;spacingLeft=6;overflow=hidden;whiteSpace=wrap;html=1;" parent="jJhntovyl3X0jqXpgIId-76" vertex="1">
          <mxGeometry x="30" width="150" height="30" as="geometry">
            <mxRectangle width="150" height="30" as="alternateBounds" />
          </mxGeometry>
        </mxCell>
        <mxCell id="jJhntovyl3X0jqXpgIId-79" style="shape=tableRow;horizontal=0;startSize=0;swimlaneHead=0;swimlaneBody=0;fillColor=none;collapsible=0;dropTarget=0;points=[[0,0.5],[1,0.5]];portConstraint=eastwest;top=0;left=0;right=0;bottom=0;" parent="jJhntovyl3X0jqXpgIId-72" vertex="1">
          <mxGeometry y="90" width="180" height="30" as="geometry" />
        </mxCell>
        <mxCell id="jJhntovyl3X0jqXpgIId-80" style="shape=partialRectangle;connectable=0;fillColor=none;top=0;left=0;bottom=0;right=0;editable=1;overflow=hidden;whiteSpace=wrap;html=1;" parent="jJhntovyl3X0jqXpgIId-79" vertex="1">
          <mxGeometry width="30" height="30" as="geometry">
            <mxRectangle width="30" height="30" as="alternateBounds" />
          </mxGeometry>
        </mxCell>
        <mxCell id="jJhntovyl3X0jqXpgIId-81" value="Nome fantasia" style="shape=partialRectangle;connectable=0;fillColor=none;top=0;left=0;bottom=0;right=0;align=left;spacingLeft=6;overflow=hidden;whiteSpace=wrap;html=1;" parent="jJhntovyl3X0jqXpgIId-79" vertex="1">
          <mxGeometry x="30" width="150" height="30" as="geometry">
            <mxRectangle width="150" height="30" as="alternateBounds" />
          </mxGeometry>
        </mxCell>
        <mxCell id="jJhntovyl3X0jqXpgIId-82" style="shape=tableRow;horizontal=0;startSize=0;swimlaneHead=0;swimlaneBody=0;fillColor=none;collapsible=0;dropTarget=0;points=[[0,0.5],[1,0.5]];portConstraint=eastwest;top=0;left=0;right=0;bottom=0;" parent="jJhntovyl3X0jqXpgIId-72" vertex="1">
          <mxGeometry y="120" width="180" height="30" as="geometry" />
        </mxCell>
        <mxCell id="jJhntovyl3X0jqXpgIId-83" style="shape=partialRectangle;connectable=0;fillColor=none;top=0;left=0;bottom=0;right=0;editable=1;overflow=hidden;whiteSpace=wrap;html=1;" parent="jJhntovyl3X0jqXpgIId-82" vertex="1">
          <mxGeometry width="30" height="30" as="geometry">
            <mxRectangle width="30" height="30" as="alternateBounds" />
          </mxGeometry>
        </mxCell>
        <mxCell id="jJhntovyl3X0jqXpgIId-84" value="Endereco" style="shape=partialRectangle;connectable=0;fillColor=none;top=0;left=0;bottom=0;right=0;align=left;spacingLeft=6;overflow=hidden;whiteSpace=wrap;html=1;" parent="jJhntovyl3X0jqXpgIId-82" vertex="1">
          <mxGeometry x="30" width="150" height="30" as="geometry">
            <mxRectangle width="150" height="30" as="alternateBounds" />
          </mxGeometry>
        </mxCell>
        <mxCell id="jJhntovyl3X0jqXpgIId-85" value="Usuario" style="shape=table;startSize=30;container=1;collapsible=1;childLayout=tableLayout;fixedRows=1;rowLines=0;fontStyle=1;align=center;resizeLast=1;html=1;whiteSpace=wrap;" parent="1" vertex="1">
          <mxGeometry x="1132" y="202.5" width="180" height="180" as="geometry" />
        </mxCell>
        <mxCell id="jJhntovyl3X0jqXpgIId-86" value="" style="shape=tableRow;horizontal=0;startSize=0;swimlaneHead=0;swimlaneBody=0;fillColor=none;collapsible=0;dropTarget=0;points=[[0,0.5],[1,0.5]];portConstraint=eastwest;top=0;left=0;right=0;bottom=0;html=1;" parent="jJhntovyl3X0jqXpgIId-85" vertex="1">
          <mxGeometry y="30" width="180" height="30" as="geometry" />
        </mxCell>
        <mxCell id="jJhntovyl3X0jqXpgIId-87" value="PK" style="shape=partialRectangle;connectable=0;fillColor=none;top=0;left=0;bottom=0;right=0;fontStyle=1;overflow=hidden;html=1;whiteSpace=wrap;" parent="jJhntovyl3X0jqXpgIId-86" vertex="1">
          <mxGeometry width="60" height="30" as="geometry">
            <mxRectangle width="60" height="30" as="alternateBounds" />
          </mxGeometry>
        </mxCell>
        <mxCell id="jJhntovyl3X0jqXpgIId-88" value="IdUsuario" style="shape=partialRectangle;connectable=0;fillColor=none;top=0;left=0;bottom=0;right=0;align=left;spacingLeft=6;fontStyle=5;overflow=hidden;html=1;whiteSpace=wrap;" parent="jJhntovyl3X0jqXpgIId-86" vertex="1">
          <mxGeometry x="60" width="120" height="30" as="geometry">
            <mxRectangle width="120" height="30" as="alternateBounds" />
          </mxGeometry>
        </mxCell>
        <mxCell id="jJhntovyl3X0jqXpgIId-89" value="" style="shape=tableRow;horizontal=0;startSize=0;swimlaneHead=0;swimlaneBody=0;fillColor=none;collapsible=0;dropTarget=0;points=[[0,0.5],[1,0.5]];portConstraint=eastwest;top=0;left=0;right=0;bottom=1;html=1;" parent="jJhntovyl3X0jqXpgIId-85" vertex="1">
          <mxGeometry y="60" width="180" height="30" as="geometry" />
        </mxCell>
        <mxCell id="jJhntovyl3X0jqXpgIId-90" value="FK" style="shape=partialRectangle;connectable=0;fillColor=none;top=0;left=0;bottom=0;right=0;fontStyle=1;overflow=hidden;html=1;whiteSpace=wrap;" parent="jJhntovyl3X0jqXpgIId-89" vertex="1">
          <mxGeometry width="60" height="30" as="geometry">
            <mxRectangle width="60" height="30" as="alternateBounds" />
          </mxGeometry>
        </mxCell>
        <mxCell id="jJhntovyl3X0jqXpgIId-91" value="&lt;span style=&quot;color: rgb(0, 0, 0); font-family: Helvetica; font-size: 12px; font-style: normal; font-variant-ligatures: normal; font-variant-caps: normal; font-weight: 700; letter-spacing: normal; orphans: 2; text-align: left; text-indent: 0px; text-transform: none; widows: 2; word-spacing: 0px; -webkit-text-stroke-width: 0px; background-color: rgb(251, 251, 251); text-decoration: underline; float: none; display: inline !important;&quot;&gt;IdTipoUsuario&lt;/span&gt;" style="shape=partialRectangle;connectable=0;fillColor=none;top=0;left=0;bottom=0;right=0;align=left;spacingLeft=6;fontStyle=5;overflow=hidden;html=1;whiteSpace=wrap;" parent="jJhntovyl3X0jqXpgIId-89" vertex="1">
          <mxGeometry x="60" width="120" height="30" as="geometry">
            <mxRectangle width="120" height="30" as="alternateBounds" />
          </mxGeometry>
        </mxCell>
        <mxCell id="jJhntovyl3X0jqXpgIId-92" value="" style="shape=tableRow;horizontal=0;startSize=0;swimlaneHead=0;swimlaneBody=0;fillColor=none;collapsible=0;dropTarget=0;points=[[0,0.5],[1,0.5]];portConstraint=eastwest;top=0;left=0;right=0;bottom=0;html=1;" parent="jJhntovyl3X0jqXpgIId-85" vertex="1">
          <mxGeometry y="90" width="180" height="30" as="geometry" />
        </mxCell>
        <mxCell id="jJhntovyl3X0jqXpgIId-93" value="" style="shape=partialRectangle;connectable=0;fillColor=none;top=0;left=0;bottom=0;right=0;editable=1;overflow=hidden;html=1;whiteSpace=wrap;" parent="jJhntovyl3X0jqXpgIId-92" vertex="1">
          <mxGeometry width="60" height="30" as="geometry">
            <mxRectangle width="60" height="30" as="alternateBounds" />
          </mxGeometry>
        </mxCell>
        <mxCell id="jJhntovyl3X0jqXpgIId-94" value="Nome" style="shape=partialRectangle;connectable=0;fillColor=none;top=0;left=0;bottom=0;right=0;align=left;spacingLeft=6;overflow=hidden;html=1;whiteSpace=wrap;" parent="jJhntovyl3X0jqXpgIId-92" vertex="1">
          <mxGeometry x="60" width="120" height="30" as="geometry">
            <mxRectangle width="120" height="30" as="alternateBounds" />
          </mxGeometry>
        </mxCell>
        <mxCell id="jJhntovyl3X0jqXpgIId-95" value="" style="shape=tableRow;horizontal=0;startSize=0;swimlaneHead=0;swimlaneBody=0;fillColor=none;collapsible=0;dropTarget=0;points=[[0,0.5],[1,0.5]];portConstraint=eastwest;top=0;left=0;right=0;bottom=0;html=1;" parent="jJhntovyl3X0jqXpgIId-85" vertex="1">
          <mxGeometry y="120" width="180" height="30" as="geometry" />
        </mxCell>
        <mxCell id="jJhntovyl3X0jqXpgIId-96" value="" style="shape=partialRectangle;connectable=0;fillColor=none;top=0;left=0;bottom=0;right=0;editable=1;overflow=hidden;html=1;whiteSpace=wrap;" parent="jJhntovyl3X0jqXpgIId-95" vertex="1">
          <mxGeometry width="60" height="30" as="geometry">
            <mxRectangle width="60" height="30" as="alternateBounds" />
          </mxGeometry>
        </mxCell>
        <mxCell id="jJhntovyl3X0jqXpgIId-97" value="Email" style="shape=partialRectangle;connectable=0;fillColor=none;top=0;left=0;bottom=0;right=0;align=left;spacingLeft=6;overflow=hidden;html=1;whiteSpace=wrap;" parent="jJhntovyl3X0jqXpgIId-95" vertex="1">
          <mxGeometry x="60" width="120" height="30" as="geometry">
            <mxRectangle width="120" height="30" as="alternateBounds" />
          </mxGeometry>
        </mxCell>
        <mxCell id="jJhntovyl3X0jqXpgIId-98" style="shape=tableRow;horizontal=0;startSize=0;swimlaneHead=0;swimlaneBody=0;fillColor=none;collapsible=0;dropTarget=0;points=[[0,0.5],[1,0.5]];portConstraint=eastwest;top=0;left=0;right=0;bottom=0;html=1;" parent="jJhntovyl3X0jqXpgIId-85" vertex="1">
          <mxGeometry y="150" width="180" height="30" as="geometry" />
        </mxCell>
        <mxCell id="jJhntovyl3X0jqXpgIId-99" style="shape=partialRectangle;connectable=0;fillColor=none;top=0;left=0;bottom=0;right=0;editable=1;overflow=hidden;html=1;whiteSpace=wrap;" parent="jJhntovyl3X0jqXpgIId-98" vertex="1">
          <mxGeometry width="60" height="30" as="geometry">
            <mxRectangle width="60" height="30" as="alternateBounds" />
          </mxGeometry>
        </mxCell>
        <mxCell id="jJhntovyl3X0jqXpgIId-100" value="Senha" style="shape=partialRectangle;connectable=0;fillColor=none;top=0;left=0;bottom=0;right=0;align=left;spacingLeft=6;overflow=hidden;html=1;whiteSpace=wrap;" parent="jJhntovyl3X0jqXpgIId-98" vertex="1">
          <mxGeometry x="60" width="120" height="30" as="geometry">
            <mxRectangle width="120" height="30" as="alternateBounds" />
          </mxGeometry>
        </mxCell>
        <mxCell id="jJhntovyl3X0jqXpgIId-101" value="" style="edgeStyle=entityRelationEdgeStyle;fontSize=12;html=1;endArrow=ERoneToMany;rounded=0;" parent="1" source="jJhntovyl3X0jqXpgIId-53" target="jJhntovyl3X0jqXpgIId-89" edge="1">
          <mxGeometry width="100" height="100" relative="1" as="geometry">
            <mxPoint x="978" y="402.5" as="sourcePoint" />
            <mxPoint x="1078" y="302.5" as="targetPoint" />
          </mxGeometry>
        </mxCell>
        <mxCell id="jJhntovyl3X0jqXpgIId-102" value="PresencaEvento" style="shape=table;startSize=30;container=1;collapsible=1;childLayout=tableLayout;fixedRows=1;rowLines=0;fontStyle=1;align=center;resizeLast=1;html=1;whiteSpace=wrap;" parent="1" vertex="1">
          <mxGeometry x="1378" y="172.5" width="180" height="150" as="geometry" />
        </mxCell>
        <mxCell id="jJhntovyl3X0jqXpgIId-103" value="" style="shape=tableRow;horizontal=0;startSize=0;swimlaneHead=0;swimlaneBody=0;fillColor=none;collapsible=0;dropTarget=0;points=[[0,0.5],[1,0.5]];portConstraint=eastwest;top=0;left=0;right=0;bottom=0;html=1;" parent="jJhntovyl3X0jqXpgIId-102" vertex="1">
          <mxGeometry y="30" width="180" height="30" as="geometry" />
        </mxCell>
        <mxCell id="jJhntovyl3X0jqXpgIId-104" value="PK" style="shape=partialRectangle;connectable=0;fillColor=none;top=0;left=0;bottom=0;right=0;fontStyle=1;overflow=hidden;html=1;whiteSpace=wrap;" parent="jJhntovyl3X0jqXpgIId-103" vertex="1">
          <mxGeometry width="60" height="30" as="geometry">
            <mxRectangle width="60" height="30" as="alternateBounds" />
          </mxGeometry>
        </mxCell>
        <mxCell id="jJhntovyl3X0jqXpgIId-105" value="IdPresencaEvento" style="shape=partialRectangle;connectable=0;fillColor=none;top=0;left=0;bottom=0;right=0;align=left;spacingLeft=6;fontStyle=5;overflow=hidden;html=1;whiteSpace=wrap;" parent="jJhntovyl3X0jqXpgIId-103" vertex="1">
          <mxGeometry x="60" width="120" height="30" as="geometry">
            <mxRectangle width="120" height="30" as="alternateBounds" />
          </mxGeometry>
        </mxCell>
        <mxCell id="jJhntovyl3X0jqXpgIId-121" style="shape=tableRow;horizontal=0;startSize=0;swimlaneHead=0;swimlaneBody=0;fillColor=none;collapsible=0;dropTarget=0;points=[[0,0.5],[1,0.5]];portConstraint=eastwest;top=0;left=0;right=0;bottom=0;html=1;" parent="jJhntovyl3X0jqXpgIId-102" vertex="1">
          <mxGeometry y="60" width="180" height="30" as="geometry" />
        </mxCell>
        <mxCell id="jJhntovyl3X0jqXpgIId-122" value="FK1" style="shape=partialRectangle;connectable=0;fillColor=none;top=0;left=0;bottom=0;right=0;fontStyle=1;overflow=hidden;html=1;whiteSpace=wrap;" parent="jJhntovyl3X0jqXpgIId-121" vertex="1">
          <mxGeometry width="60" height="30" as="geometry">
            <mxRectangle width="60" height="30" as="alternateBounds" />
          </mxGeometry>
        </mxCell>
        <mxCell id="jJhntovyl3X0jqXpgIId-123" value="IdUsuario" style="shape=partialRectangle;connectable=0;fillColor=none;top=0;left=0;bottom=0;right=0;align=left;spacingLeft=6;fontStyle=5;overflow=hidden;html=1;whiteSpace=wrap;" parent="jJhntovyl3X0jqXpgIId-121" vertex="1">
          <mxGeometry x="60" width="120" height="30" as="geometry">
            <mxRectangle width="120" height="30" as="alternateBounds" />
          </mxGeometry>
        </mxCell>
        <mxCell id="jJhntovyl3X0jqXpgIId-106" value="" style="shape=tableRow;horizontal=0;startSize=0;swimlaneHead=0;swimlaneBody=0;fillColor=none;collapsible=0;dropTarget=0;points=[[0,0.5],[1,0.5]];portConstraint=eastwest;top=0;left=0;right=0;bottom=1;html=1;" parent="jJhntovyl3X0jqXpgIId-102" vertex="1">
          <mxGeometry y="90" width="180" height="30" as="geometry" />
        </mxCell>
        <mxCell id="jJhntovyl3X0jqXpgIId-107" value="FK2" style="shape=partialRectangle;connectable=0;fillColor=none;top=0;left=0;bottom=0;right=0;fontStyle=1;overflow=hidden;html=1;whiteSpace=wrap;" parent="jJhntovyl3X0jqXpgIId-106" vertex="1">
          <mxGeometry width="60" height="30" as="geometry">
            <mxRectangle width="60" height="30" as="alternateBounds" />
          </mxGeometry>
        </mxCell>
        <mxCell id="jJhntovyl3X0jqXpgIId-108" value="IdEvento" style="shape=partialRectangle;connectable=0;fillColor=none;top=0;left=0;bottom=0;right=0;align=left;spacingLeft=6;fontStyle=5;overflow=hidden;html=1;whiteSpace=wrap;" parent="jJhntovyl3X0jqXpgIId-106" vertex="1">
          <mxGeometry x="60" width="120" height="30" as="geometry">
            <mxRectangle width="120" height="30" as="alternateBounds" />
          </mxGeometry>
        </mxCell>
        <mxCell id="jJhntovyl3X0jqXpgIId-109" value="" style="shape=tableRow;horizontal=0;startSize=0;swimlaneHead=0;swimlaneBody=0;fillColor=none;collapsible=0;dropTarget=0;points=[[0,0.5],[1,0.5]];portConstraint=eastwest;top=0;left=0;right=0;bottom=0;html=1;" parent="jJhntovyl3X0jqXpgIId-102" vertex="1">
          <mxGeometry y="120" width="180" height="30" as="geometry" />
        </mxCell>
        <mxCell id="jJhntovyl3X0jqXpgIId-110" value="" style="shape=partialRectangle;connectable=0;fillColor=none;top=0;left=0;bottom=0;right=0;editable=1;overflow=hidden;html=1;whiteSpace=wrap;" parent="jJhntovyl3X0jqXpgIId-109" vertex="1">
          <mxGeometry width="60" height="30" as="geometry">
            <mxRectangle width="60" height="30" as="alternateBounds" />
          </mxGeometry>
        </mxCell>
        <mxCell id="jJhntovyl3X0jqXpgIId-111" value="Situacao" style="shape=partialRectangle;connectable=0;fillColor=none;top=0;left=0;bottom=0;right=0;align=left;spacingLeft=6;overflow=hidden;html=1;whiteSpace=wrap;" parent="jJhntovyl3X0jqXpgIId-109" vertex="1">
          <mxGeometry x="60" width="120" height="30" as="geometry">
            <mxRectangle width="120" height="30" as="alternateBounds" />
          </mxGeometry>
        </mxCell>
        <mxCell id="jJhntovyl3X0jqXpgIId-124" value="" style="edgeStyle=entityRelationEdgeStyle;fontSize=12;html=1;endArrow=ERoneToMany;rounded=0;exitX=1;exitY=0.5;exitDx=0;exitDy=0;entryX=0;entryY=0.5;entryDx=0;entryDy=0;" parent="1" source="jJhntovyl3X0jqXpgIId-86" target="jJhntovyl3X0jqXpgIId-121" edge="1">
          <mxGeometry width="100" height="100" relative="1" as="geometry">
            <mxPoint x="1099" y="287.5" as="sourcePoint" />
            <mxPoint x="1149" y="287.5" as="targetPoint" />
            <Array as="points">
              <mxPoint x="1338" y="242.5" />
              <mxPoint x="1138" y="342.5" />
              <mxPoint x="1138" y="287.5" />
            </Array>
          </mxGeometry>
        </mxCell>
        <mxCell id="jJhntovyl3X0jqXpgIId-125" value="Evento" style="shape=table;startSize=30;container=1;collapsible=1;childLayout=tableLayout;fixedRows=1;rowLines=0;fontStyle=1;align=center;resizeLast=1;html=1;whiteSpace=wrap;" parent="1" vertex="1">
          <mxGeometry x="1618" y="232.5" width="180" height="210" as="geometry" />
        </mxCell>
        <mxCell id="jJhntovyl3X0jqXpgIId-126" value="" style="shape=tableRow;horizontal=0;startSize=0;swimlaneHead=0;swimlaneBody=0;fillColor=none;collapsible=0;dropTarget=0;points=[[0,0.5],[1,0.5]];portConstraint=eastwest;top=0;left=0;right=0;bottom=0;html=1;" parent="jJhntovyl3X0jqXpgIId-125" vertex="1">
          <mxGeometry y="30" width="180" height="30" as="geometry" />
        </mxCell>
        <mxCell id="jJhntovyl3X0jqXpgIId-127" value="PK" style="shape=partialRectangle;connectable=0;fillColor=none;top=0;left=0;bottom=0;right=0;fontStyle=1;overflow=hidden;html=1;whiteSpace=wrap;" parent="jJhntovyl3X0jqXpgIId-126" vertex="1">
          <mxGeometry width="60" height="30" as="geometry">
            <mxRectangle width="60" height="30" as="alternateBounds" />
          </mxGeometry>
        </mxCell>
        <mxCell id="jJhntovyl3X0jqXpgIId-128" value="IdEvento" style="shape=partialRectangle;connectable=0;fillColor=none;top=0;left=0;bottom=0;right=0;align=left;spacingLeft=6;fontStyle=5;overflow=hidden;html=1;whiteSpace=wrap;" parent="jJhntovyl3X0jqXpgIId-126" vertex="1">
          <mxGeometry x="60" width="120" height="30" as="geometry">
            <mxRectangle width="120" height="30" as="alternateBounds" />
          </mxGeometry>
        </mxCell>
        <mxCell id="jJhntovyl3X0jqXpgIId-129" style="shape=tableRow;horizontal=0;startSize=0;swimlaneHead=0;swimlaneBody=0;fillColor=none;collapsible=0;dropTarget=0;points=[[0,0.5],[1,0.5]];portConstraint=eastwest;top=0;left=0;right=0;bottom=0;html=1;" parent="jJhntovyl3X0jqXpgIId-125" vertex="1">
          <mxGeometry y="60" width="180" height="30" as="geometry" />
        </mxCell>
        <mxCell id="jJhntovyl3X0jqXpgIId-130" value="FK1" style="shape=partialRectangle;connectable=0;fillColor=none;top=0;left=0;bottom=0;right=0;fontStyle=1;overflow=hidden;html=1;whiteSpace=wrap;" parent="jJhntovyl3X0jqXpgIId-129" vertex="1">
          <mxGeometry width="60" height="30" as="geometry">
            <mxRectangle width="60" height="30" as="alternateBounds" />
          </mxGeometry>
        </mxCell>
        <mxCell id="jJhntovyl3X0jqXpgIId-131" value="IdInstituicao" style="shape=partialRectangle;connectable=0;fillColor=none;top=0;left=0;bottom=0;right=0;align=left;spacingLeft=6;fontStyle=5;overflow=hidden;html=1;whiteSpace=wrap;" parent="jJhntovyl3X0jqXpgIId-129" vertex="1">
          <mxGeometry x="60" width="120" height="30" as="geometry">
            <mxRectangle width="120" height="30" as="alternateBounds" />
          </mxGeometry>
        </mxCell>
        <mxCell id="jJhntovyl3X0jqXpgIId-132" value="" style="shape=tableRow;horizontal=0;startSize=0;swimlaneHead=0;swimlaneBody=0;fillColor=none;collapsible=0;dropTarget=0;points=[[0,0.5],[1,0.5]];portConstraint=eastwest;top=0;left=0;right=0;bottom=1;html=1;" parent="jJhntovyl3X0jqXpgIId-125" vertex="1">
          <mxGeometry y="90" width="180" height="30" as="geometry" />
        </mxCell>
        <mxCell id="jJhntovyl3X0jqXpgIId-133" value="FK2" style="shape=partialRectangle;connectable=0;fillColor=none;top=0;left=0;bottom=0;right=0;fontStyle=1;overflow=hidden;html=1;whiteSpace=wrap;" parent="jJhntovyl3X0jqXpgIId-132" vertex="1">
          <mxGeometry width="60" height="30" as="geometry">
            <mxRectangle width="60" height="30" as="alternateBounds" />
          </mxGeometry>
        </mxCell>
        <mxCell id="jJhntovyl3X0jqXpgIId-134" value="IdTipoEvento" style="shape=partialRectangle;connectable=0;fillColor=none;top=0;left=0;bottom=0;right=0;align=left;spacingLeft=6;fontStyle=5;overflow=hidden;html=1;whiteSpace=wrap;" parent="jJhntovyl3X0jqXpgIId-132" vertex="1">
          <mxGeometry x="60" width="120" height="30" as="geometry">
            <mxRectangle width="120" height="30" as="alternateBounds" />
          </mxGeometry>
        </mxCell>
        <mxCell id="jJhntovyl3X0jqXpgIId-135" value="" style="shape=tableRow;horizontal=0;startSize=0;swimlaneHead=0;swimlaneBody=0;fillColor=none;collapsible=0;dropTarget=0;points=[[0,0.5],[1,0.5]];portConstraint=eastwest;top=0;left=0;right=0;bottom=0;html=1;" parent="jJhntovyl3X0jqXpgIId-125" vertex="1">
          <mxGeometry y="120" width="180" height="30" as="geometry" />
        </mxCell>
        <mxCell id="jJhntovyl3X0jqXpgIId-136" value="" style="shape=partialRectangle;connectable=0;fillColor=none;top=0;left=0;bottom=0;right=0;editable=1;overflow=hidden;html=1;whiteSpace=wrap;" parent="jJhntovyl3X0jqXpgIId-135" vertex="1">
          <mxGeometry width="60" height="30" as="geometry">
            <mxRectangle width="60" height="30" as="alternateBounds" />
          </mxGeometry>
        </mxCell>
        <mxCell id="jJhntovyl3X0jqXpgIId-137" value="NomeEvento" style="shape=partialRectangle;connectable=0;fillColor=none;top=0;left=0;bottom=0;right=0;align=left;spacingLeft=6;overflow=hidden;html=1;whiteSpace=wrap;" parent="jJhntovyl3X0jqXpgIId-135" vertex="1">
          <mxGeometry x="60" width="120" height="30" as="geometry">
            <mxRectangle width="120" height="30" as="alternateBounds" />
          </mxGeometry>
        </mxCell>
        <mxCell id="jJhntovyl3X0jqXpgIId-138" value="" style="shape=tableRow;horizontal=0;startSize=0;swimlaneHead=0;swimlaneBody=0;fillColor=none;collapsible=0;dropTarget=0;points=[[0,0.5],[1,0.5]];portConstraint=eastwest;top=0;left=0;right=0;bottom=0;html=1;" parent="jJhntovyl3X0jqXpgIId-125" vertex="1">
          <mxGeometry y="150" width="180" height="30" as="geometry" />
        </mxCell>
        <mxCell id="jJhntovyl3X0jqXpgIId-139" value="" style="shape=partialRectangle;connectable=0;fillColor=none;top=0;left=0;bottom=0;right=0;editable=1;overflow=hidden;html=1;whiteSpace=wrap;" parent="jJhntovyl3X0jqXpgIId-138" vertex="1">
          <mxGeometry width="60" height="30" as="geometry">
            <mxRectangle width="60" height="30" as="alternateBounds" />
          </mxGeometry>
        </mxCell>
        <mxCell id="jJhntovyl3X0jqXpgIId-140" value="Descricao" style="shape=partialRectangle;connectable=0;fillColor=none;top=0;left=0;bottom=0;right=0;align=left;spacingLeft=6;overflow=hidden;html=1;whiteSpace=wrap;" parent="jJhntovyl3X0jqXpgIId-138" vertex="1">
          <mxGeometry x="60" width="120" height="30" as="geometry">
            <mxRectangle width="120" height="30" as="alternateBounds" />
          </mxGeometry>
        </mxCell>
        <mxCell id="jJhntovyl3X0jqXpgIId-159" style="shape=tableRow;horizontal=0;startSize=0;swimlaneHead=0;swimlaneBody=0;fillColor=none;collapsible=0;dropTarget=0;points=[[0,0.5],[1,0.5]];portConstraint=eastwest;top=0;left=0;right=0;bottom=0;html=1;" parent="jJhntovyl3X0jqXpgIId-125" vertex="1">
          <mxGeometry y="180" width="180" height="30" as="geometry" />
        </mxCell>
        <mxCell id="jJhntovyl3X0jqXpgIId-160" style="shape=partialRectangle;connectable=0;fillColor=none;top=0;left=0;bottom=0;right=0;editable=1;overflow=hidden;html=1;whiteSpace=wrap;" parent="jJhntovyl3X0jqXpgIId-159" vertex="1">
          <mxGeometry width="60" height="30" as="geometry">
            <mxRectangle width="60" height="30" as="alternateBounds" />
          </mxGeometry>
        </mxCell>
        <mxCell id="jJhntovyl3X0jqXpgIId-161" value="DataEvento" style="shape=partialRectangle;connectable=0;fillColor=none;top=0;left=0;bottom=0;right=0;align=left;spacingLeft=6;overflow=hidden;html=1;whiteSpace=wrap;" parent="jJhntovyl3X0jqXpgIId-159" vertex="1">
          <mxGeometry x="60" width="120" height="30" as="geometry">
            <mxRectangle width="120" height="30" as="alternateBounds" />
          </mxGeometry>
        </mxCell>
        <mxCell id="jJhntovyl3X0jqXpgIId-141" value="" style="edgeStyle=entityRelationEdgeStyle;fontSize=12;html=1;endArrow=ERoneToMany;rounded=0;entryX=1;entryY=0.5;entryDx=0;entryDy=0;" parent="1" source="jJhntovyl3X0jqXpgIId-126" target="jJhntovyl3X0jqXpgIId-106" edge="1">
          <mxGeometry width="100" height="100" relative="1" as="geometry">
            <mxPoint x="1598" y="222.5" as="sourcePoint" />
            <mxPoint x="1378" y="257.5" as="targetPoint" />
            <Array as="points">
              <mxPoint x="1348" y="252.5" />
              <mxPoint x="1148" y="352.5" />
              <mxPoint x="1148" y="297.5" />
            </Array>
          </mxGeometry>
        </mxCell>
        <mxCell id="jJhntovyl3X0jqXpgIId-142" value="" style="edgeStyle=entityRelationEdgeStyle;fontSize=12;html=1;endArrow=ERoneToMany;rounded=0;" parent="1" source="jJhntovyl3X0jqXpgIId-73" target="jJhntovyl3X0jqXpgIId-129" edge="1">
          <mxGeometry width="100" height="100" relative="1" as="geometry">
            <mxPoint x="1329" y="257.5" as="sourcePoint" />
            <mxPoint x="1378" y="257.5" as="targetPoint" />
            <Array as="points">
              <mxPoint x="1348" y="252.5" />
              <mxPoint x="1148" y="352.5" />
              <mxPoint x="1148" y="297.5" />
            </Array>
          </mxGeometry>
        </mxCell>
        <mxCell id="jJhntovyl3X0jqXpgIId-143" value="" style="edgeStyle=entityRelationEdgeStyle;fontSize=12;html=1;endArrow=ERoneToMany;rounded=0;" parent="1" source="jJhntovyl3X0jqXpgIId-66" target="jJhntovyl3X0jqXpgIId-132" edge="1">
          <mxGeometry width="100" height="100" relative="1" as="geometry">
            <mxPoint x="1928" y="244.5" as="sourcePoint" />
            <mxPoint x="1808" y="317.5" as="targetPoint" />
            <Array as="points">
              <mxPoint x="1358" y="262.5" />
              <mxPoint x="1158" y="362.5" />
              <mxPoint x="1158" y="307.5" />
            </Array>
          </mxGeometry>
        </mxCell>
        <mxCell id="jJhntovyl3X0jqXpgIId-144" value="Comentario" style="shape=table;startSize=30;container=1;collapsible=1;childLayout=tableLayout;fixedRows=1;rowLines=0;fontStyle=1;align=center;resizeLast=1;html=1;whiteSpace=wrap;" parent="1" vertex="1">
          <mxGeometry x="1378" y="335" width="180" height="180" as="geometry" />
        </mxCell>
        <mxCell id="jJhntovyl3X0jqXpgIId-145" value="" style="shape=tableRow;horizontal=0;startSize=0;swimlaneHead=0;swimlaneBody=0;fillColor=none;collapsible=0;dropTarget=0;points=[[0,0.5],[1,0.5]];portConstraint=eastwest;top=0;left=0;right=0;bottom=0;html=1;" parent="jJhntovyl3X0jqXpgIId-144" vertex="1">
          <mxGeometry y="30" width="180" height="30" as="geometry" />
        </mxCell>
        <mxCell id="jJhntovyl3X0jqXpgIId-146" value="PK" style="shape=partialRectangle;connectable=0;fillColor=none;top=0;left=0;bottom=0;right=0;fontStyle=1;overflow=hidden;html=1;whiteSpace=wrap;" parent="jJhntovyl3X0jqXpgIId-145" vertex="1">
          <mxGeometry width="60" height="30" as="geometry">
            <mxRectangle width="60" height="30" as="alternateBounds" />
          </mxGeometry>
        </mxCell>
        <mxCell id="jJhntovyl3X0jqXpgIId-147" value="IdComentario" style="shape=partialRectangle;connectable=0;fillColor=none;top=0;left=0;bottom=0;right=0;align=left;spacingLeft=6;fontStyle=5;overflow=hidden;html=1;whiteSpace=wrap;" parent="jJhntovyl3X0jqXpgIId-145" vertex="1">
          <mxGeometry x="60" width="120" height="30" as="geometry">
            <mxRectangle width="120" height="30" as="alternateBounds" />
          </mxGeometry>
        </mxCell>
        <mxCell id="jJhntovyl3X0jqXpgIId-148" style="shape=tableRow;horizontal=0;startSize=0;swimlaneHead=0;swimlaneBody=0;fillColor=none;collapsible=0;dropTarget=0;points=[[0,0.5],[1,0.5]];portConstraint=eastwest;top=0;left=0;right=0;bottom=0;html=1;" parent="jJhntovyl3X0jqXpgIId-144" vertex="1">
          <mxGeometry y="60" width="180" height="30" as="geometry" />
        </mxCell>
        <mxCell id="jJhntovyl3X0jqXpgIId-149" value="FK1" style="shape=partialRectangle;connectable=0;fillColor=none;top=0;left=0;bottom=0;right=0;fontStyle=1;overflow=hidden;html=1;whiteSpace=wrap;" parent="jJhntovyl3X0jqXpgIId-148" vertex="1">
          <mxGeometry width="60" height="30" as="geometry">
            <mxRectangle width="60" height="30" as="alternateBounds" />
          </mxGeometry>
        </mxCell>
        <mxCell id="jJhntovyl3X0jqXpgIId-150" value="IdUsuario" style="shape=partialRectangle;connectable=0;fillColor=none;top=0;left=0;bottom=0;right=0;align=left;spacingLeft=6;fontStyle=5;overflow=hidden;html=1;whiteSpace=wrap;" parent="jJhntovyl3X0jqXpgIId-148" vertex="1">
          <mxGeometry x="60" width="120" height="30" as="geometry">
            <mxRectangle width="120" height="30" as="alternateBounds" />
          </mxGeometry>
        </mxCell>
        <mxCell id="jJhntovyl3X0jqXpgIId-151" value="" style="shape=tableRow;horizontal=0;startSize=0;swimlaneHead=0;swimlaneBody=0;fillColor=none;collapsible=0;dropTarget=0;points=[[0,0.5],[1,0.5]];portConstraint=eastwest;top=0;left=0;right=0;bottom=1;html=1;" parent="jJhntovyl3X0jqXpgIId-144" vertex="1">
          <mxGeometry y="90" width="180" height="30" as="geometry" />
        </mxCell>
        <mxCell id="jJhntovyl3X0jqXpgIId-152" value="FK2" style="shape=partialRectangle;connectable=0;fillColor=none;top=0;left=0;bottom=0;right=0;fontStyle=1;overflow=hidden;html=1;whiteSpace=wrap;" parent="jJhntovyl3X0jqXpgIId-151" vertex="1">
          <mxGeometry width="60" height="30" as="geometry">
            <mxRectangle width="60" height="30" as="alternateBounds" />
          </mxGeometry>
        </mxCell>
        <mxCell id="jJhntovyl3X0jqXpgIId-153" value="IdEvento" style="shape=partialRectangle;connectable=0;fillColor=none;top=0;left=0;bottom=0;right=0;align=left;spacingLeft=6;fontStyle=5;overflow=hidden;html=1;whiteSpace=wrap;" parent="jJhntovyl3X0jqXpgIId-151" vertex="1">
          <mxGeometry x="60" width="120" height="30" as="geometry">
            <mxRectangle width="120" height="30" as="alternateBounds" />
          </mxGeometry>
        </mxCell>
        <mxCell id="jJhntovyl3X0jqXpgIId-154" value="" style="shape=tableRow;horizontal=0;startSize=0;swimlaneHead=0;swimlaneBody=0;fillColor=none;collapsible=0;dropTarget=0;points=[[0,0.5],[1,0.5]];portConstraint=eastwest;top=0;left=0;right=0;bottom=0;html=1;" parent="jJhntovyl3X0jqXpgIId-144" vertex="1">
          <mxGeometry y="120" width="180" height="30" as="geometry" />
        </mxCell>
        <mxCell id="jJhntovyl3X0jqXpgIId-155" value="" style="shape=partialRectangle;connectable=0;fillColor=none;top=0;left=0;bottom=0;right=0;editable=1;overflow=hidden;html=1;whiteSpace=wrap;" parent="jJhntovyl3X0jqXpgIId-154" vertex="1">
          <mxGeometry width="60" height="30" as="geometry">
            <mxRectangle width="60" height="30" as="alternateBounds" />
          </mxGeometry>
        </mxCell>
        <mxCell id="jJhntovyl3X0jqXpgIId-156" value="DescriÃ§Ã£o" style="shape=partialRectangle;connectable=0;fillColor=none;top=0;left=0;bottom=0;right=0;align=left;spacingLeft=6;overflow=hidden;html=1;whiteSpace=wrap;" parent="jJhntovyl3X0jqXpgIId-154" vertex="1">
          <mxGeometry x="60" width="120" height="30" as="geometry">
            <mxRectangle width="120" height="30" as="alternateBounds" />
          </mxGeometry>
        </mxCell>
        <mxCell id="8qa00k0YXP2A5S4Td834-118" style="shape=tableRow;horizontal=0;startSize=0;swimlaneHead=0;swimlaneBody=0;fillColor=none;collapsible=0;dropTarget=0;points=[[0,0.5],[1,0.5]];portConstraint=eastwest;top=0;left=0;right=0;bottom=0;html=1;" vertex="1" parent="jJhntovyl3X0jqXpgIId-144">
          <mxGeometry y="150" width="180" height="30" as="geometry" />
        </mxCell>
        <mxCell id="8qa00k0YXP2A5S4Td834-119" style="shape=partialRectangle;connectable=0;fillColor=none;top=0;left=0;bottom=0;right=0;editable=1;overflow=hidden;html=1;whiteSpace=wrap;" vertex="1" parent="8qa00k0YXP2A5S4Td834-118">
          <mxGeometry width="60" height="30" as="geometry">
            <mxRectangle width="60" height="30" as="alternateBounds" />
          </mxGeometry>
        </mxCell>
        <mxCell id="8qa00k0YXP2A5S4Td834-120" value="Exibe" style="shape=partialRectangle;connectable=0;fillColor=none;top=0;left=0;bottom=0;right=0;align=left;spacingLeft=6;overflow=hidden;html=1;whiteSpace=wrap;" vertex="1" parent="8qa00k0YXP2A5S4Td834-118">
          <mxGeometry x="60" width="120" height="30" as="geometry">
            <mxRectangle width="120" height="30" as="alternateBounds" />
          </mxGeometry>
        </mxCell>
        <mxCell id="jJhntovyl3X0jqXpgIId-157" value="" style="edgeStyle=entityRelationEdgeStyle;fontSize=12;html=1;endArrow=ERoneToMany;rounded=0;" parent="1" source="jJhntovyl3X0jqXpgIId-126" target="jJhntovyl3X0jqXpgIId-151" edge="1">
          <mxGeometry width="100" height="100" relative="1" as="geometry">
            <mxPoint x="1688" y="455" as="sourcePoint" />
            <mxPoint x="1618" y="455" as="targetPoint" />
            <Array as="points">
              <mxPoint x="1418" y="430" />
              <mxPoint x="1218" y="530" />
              <mxPoint x="1218" y="475" />
            </Array>
          </mxGeometry>
        </mxCell>
        <mxCell id="jJhntovyl3X0jqXpgIId-158" value="" style="edgeStyle=entityRelationEdgeStyle;fontSize=12;html=1;endArrow=ERoneToMany;rounded=0;" parent="1" source="jJhntovyl3X0jqXpgIId-86" target="jJhntovyl3X0jqXpgIId-148" edge="1">
          <mxGeometry width="100" height="100" relative="1" as="geometry">
            <mxPoint x="1300" y="247.5" as="sourcePoint" />
            <mxPoint x="1366" y="410" as="targetPoint" />
            <Array as="points">
              <mxPoint x="1330" y="250" />
              <mxPoint x="1330" y="340" />
              <mxPoint x="1330" y="248" />
              <mxPoint x="1340" y="250" />
              <mxPoint x="1328" y="410" />
              <mxPoint x="1328" y="330" />
              <mxPoint x="1320" y="260" />
              <mxPoint x="1338" y="410" />
              <mxPoint x="1096" y="497.5" />
              <mxPoint x="1330" y="290" />
              <mxPoint x="1330" y="290" />
              <mxPoint x="1340" y="331" />
              <mxPoint x="1330" y="330" />
              <mxPoint x="1330" y="290" />
              <mxPoint x="896" y="597.5" />
              <mxPoint x="896" y="542.5" />
            </Array>
          </mxGeometry>
        </mxCell>
        <mxCell id="8qa00k0YXP2A5S4Td834-2" value="Fisico" style="rounded=1;whiteSpace=wrap;html=1;fillColor=#f8cecc;strokeColor=#b85450;" vertex="1" parent="1">
          <mxGeometry x="1405" y="570" width="126" height="30" as="geometry" />
        </mxCell>
        <mxCell id="8qa00k0YXP2A5S4Td834-3" value="TipoDeUsuario" style="shape=table;startSize=30;container=1;collapsible=0;childLayout=tableLayout;strokeColor=default;fontSize=16;" vertex="1" parent="1">
          <mxGeometry x="950" y="630" width="250" height="145" as="geometry" />
        </mxCell>
        <mxCell id="8qa00k0YXP2A5S4Td834-4" value="" style="shape=tableRow;horizontal=0;startSize=0;swimlaneHead=0;swimlaneBody=0;strokeColor=inherit;top=0;left=0;bottom=0;right=0;collapsible=0;dropTarget=0;fillColor=none;points=[[0,0.5],[1,0.5]];portConstraint=eastwest;fontSize=16;" vertex="1" parent="8qa00k0YXP2A5S4Td834-3">
          <mxGeometry y="30" width="250" height="35" as="geometry" />
        </mxCell>
        <mxCell id="8qa00k0YXP2A5S4Td834-5" value="IdTipoUsuario" style="shape=partialRectangle;html=1;whiteSpace=wrap;connectable=0;strokeColor=inherit;overflow=hidden;fillColor=none;top=0;left=0;bottom=0;right=0;pointerEvents=1;fontSize=16;" vertex="1" parent="8qa00k0YXP2A5S4Td834-4">
          <mxGeometry width="110" height="35" as="geometry">
            <mxRectangle width="110" height="35" as="alternateBounds" />
          </mxGeometry>
        </mxCell>
        <mxCell id="8qa00k0YXP2A5S4Td834-6" value="TituloTipoUsuario" style="shape=partialRectangle;html=1;whiteSpace=wrap;connectable=0;strokeColor=inherit;overflow=hidden;fillColor=none;top=0;left=0;bottom=0;right=0;pointerEvents=1;fontSize=16;" vertex="1" parent="8qa00k0YXP2A5S4Td834-4">
          <mxGeometry x="110" width="140" height="35" as="geometry">
            <mxRectangle width="140" height="35" as="alternateBounds" />
          </mxGeometry>
        </mxCell>
        <mxCell id="8qa00k0YXP2A5S4Td834-8" value="" style="shape=tableRow;horizontal=0;startSize=0;swimlaneHead=0;swimlaneBody=0;strokeColor=inherit;top=0;left=0;bottom=0;right=0;collapsible=0;dropTarget=0;fillColor=none;points=[[0,0.5],[1,0.5]];portConstraint=eastwest;fontSize=16;" vertex="1" parent="8qa00k0YXP2A5S4Td834-3">
          <mxGeometry y="65" width="250" height="40" as="geometry" />
        </mxCell>
        <mxCell id="8qa00k0YXP2A5S4Td834-9" value="" style="shape=partialRectangle;html=1;whiteSpace=wrap;connectable=0;strokeColor=inherit;overflow=hidden;fillColor=none;top=0;left=0;bottom=0;right=0;pointerEvents=1;fontSize=16;" vertex="1" parent="8qa00k0YXP2A5S4Td834-8">
          <mxGeometry width="110" height="40" as="geometry">
            <mxRectangle width="110" height="40" as="alternateBounds" />
          </mxGeometry>
        </mxCell>
        <mxCell id="8qa00k0YXP2A5S4Td834-10" value="" style="shape=partialRectangle;html=1;whiteSpace=wrap;connectable=0;strokeColor=inherit;overflow=hidden;fillColor=none;top=0;left=0;bottom=0;right=0;pointerEvents=1;fontSize=16;" vertex="1" parent="8qa00k0YXP2A5S4Td834-8">
          <mxGeometry x="110" width="140" height="40" as="geometry">
            <mxRectangle width="140" height="40" as="alternateBounds" />
          </mxGeometry>
        </mxCell>
        <mxCell id="8qa00k0YXP2A5S4Td834-12" value="" style="shape=tableRow;horizontal=0;startSize=0;swimlaneHead=0;swimlaneBody=0;strokeColor=inherit;top=0;left=0;bottom=0;right=0;collapsible=0;dropTarget=0;fillColor=none;points=[[0,0.5],[1,0.5]];portConstraint=eastwest;fontSize=16;" vertex="1" parent="8qa00k0YXP2A5S4Td834-3">
          <mxGeometry y="105" width="250" height="40" as="geometry" />
        </mxCell>
        <mxCell id="8qa00k0YXP2A5S4Td834-13" value="" style="shape=partialRectangle;html=1;whiteSpace=wrap;connectable=0;strokeColor=inherit;overflow=hidden;fillColor=none;top=0;left=0;bottom=0;right=0;pointerEvents=1;fontSize=16;" vertex="1" parent="8qa00k0YXP2A5S4Td834-12">
          <mxGeometry width="110" height="40" as="geometry">
            <mxRectangle width="110" height="40" as="alternateBounds" />
          </mxGeometry>
        </mxCell>
        <mxCell id="8qa00k0YXP2A5S4Td834-14" value="" style="shape=partialRectangle;html=1;whiteSpace=wrap;connectable=0;strokeColor=inherit;overflow=hidden;fillColor=none;top=0;left=0;bottom=0;right=0;pointerEvents=1;fontSize=16;" vertex="1" parent="8qa00k0YXP2A5S4Td834-12">
          <mxGeometry x="110" width="140" height="40" as="geometry">
            <mxRectangle width="140" height="40" as="alternateBounds" />
          </mxGeometry>
        </mxCell>
        <mxCell id="8qa00k0YXP2A5S4Td834-16" value="TipoDeEvento" style="shape=table;startSize=30;container=1;collapsible=0;childLayout=tableLayout;strokeColor=default;fontSize=16;" vertex="1" parent="1">
          <mxGeometry x="1716" y="630" width="230" height="145" as="geometry" />
        </mxCell>
        <mxCell id="8qa00k0YXP2A5S4Td834-17" value="" style="shape=tableRow;horizontal=0;startSize=0;swimlaneHead=0;swimlaneBody=0;strokeColor=inherit;top=0;left=0;bottom=0;right=0;collapsible=0;dropTarget=0;fillColor=none;points=[[0,0.5],[1,0.5]];portConstraint=eastwest;fontSize=16;" vertex="1" parent="8qa00k0YXP2A5S4Td834-16">
          <mxGeometry y="30" width="230" height="35" as="geometry" />
        </mxCell>
        <mxCell id="8qa00k0YXP2A5S4Td834-18" value="IdTipoEvento" style="shape=partialRectangle;html=1;whiteSpace=wrap;connectable=0;strokeColor=inherit;overflow=hidden;fillColor=none;top=0;left=0;bottom=0;right=0;pointerEvents=1;fontSize=16;" vertex="1" parent="8qa00k0YXP2A5S4Td834-17">
          <mxGeometry width="102" height="35" as="geometry">
            <mxRectangle width="102" height="35" as="alternateBounds" />
          </mxGeometry>
        </mxCell>
        <mxCell id="8qa00k0YXP2A5S4Td834-19" value="TituloTipoEvento" style="shape=partialRectangle;html=1;whiteSpace=wrap;connectable=0;strokeColor=inherit;overflow=hidden;fillColor=none;top=0;left=0;bottom=0;right=0;pointerEvents=1;fontSize=16;" vertex="1" parent="8qa00k0YXP2A5S4Td834-17">
          <mxGeometry x="102" width="128" height="35" as="geometry">
            <mxRectangle width="128" height="35" as="alternateBounds" />
          </mxGeometry>
        </mxCell>
        <mxCell id="8qa00k0YXP2A5S4Td834-20" value="" style="shape=tableRow;horizontal=0;startSize=0;swimlaneHead=0;swimlaneBody=0;strokeColor=inherit;top=0;left=0;bottom=0;right=0;collapsible=0;dropTarget=0;fillColor=none;points=[[0,0.5],[1,0.5]];portConstraint=eastwest;fontSize=16;" vertex="1" parent="8qa00k0YXP2A5S4Td834-16">
          <mxGeometry y="65" width="230" height="40" as="geometry" />
        </mxCell>
        <mxCell id="8qa00k0YXP2A5S4Td834-21" value="" style="shape=partialRectangle;html=1;whiteSpace=wrap;connectable=0;strokeColor=inherit;overflow=hidden;fillColor=none;top=0;left=0;bottom=0;right=0;pointerEvents=1;fontSize=16;" vertex="1" parent="8qa00k0YXP2A5S4Td834-20">
          <mxGeometry width="102" height="40" as="geometry">
            <mxRectangle width="102" height="40" as="alternateBounds" />
          </mxGeometry>
        </mxCell>
        <mxCell id="8qa00k0YXP2A5S4Td834-22" value="" style="shape=partialRectangle;html=1;whiteSpace=wrap;connectable=0;strokeColor=inherit;overflow=hidden;fillColor=none;top=0;left=0;bottom=0;right=0;pointerEvents=1;fontSize=16;" vertex="1" parent="8qa00k0YXP2A5S4Td834-20">
          <mxGeometry x="102" width="128" height="40" as="geometry">
            <mxRectangle width="128" height="40" as="alternateBounds" />
          </mxGeometry>
        </mxCell>
        <mxCell id="8qa00k0YXP2A5S4Td834-23" value="" style="shape=tableRow;horizontal=0;startSize=0;swimlaneHead=0;swimlaneBody=0;strokeColor=inherit;top=0;left=0;bottom=0;right=0;collapsible=0;dropTarget=0;fillColor=none;points=[[0,0.5],[1,0.5]];portConstraint=eastwest;fontSize=16;" vertex="1" parent="8qa00k0YXP2A5S4Td834-16">
          <mxGeometry y="105" width="230" height="40" as="geometry" />
        </mxCell>
        <mxCell id="8qa00k0YXP2A5S4Td834-24" value="" style="shape=partialRectangle;html=1;whiteSpace=wrap;connectable=0;strokeColor=inherit;overflow=hidden;fillColor=none;top=0;left=0;bottom=0;right=0;pointerEvents=1;fontSize=16;" vertex="1" parent="8qa00k0YXP2A5S4Td834-23">
          <mxGeometry width="102" height="40" as="geometry">
            <mxRectangle width="102" height="40" as="alternateBounds" />
          </mxGeometry>
        </mxCell>
        <mxCell id="8qa00k0YXP2A5S4Td834-25" value="" style="shape=partialRectangle;html=1;whiteSpace=wrap;connectable=0;strokeColor=inherit;overflow=hidden;fillColor=none;top=0;left=0;bottom=0;right=0;pointerEvents=1;fontSize=16;" vertex="1" parent="8qa00k0YXP2A5S4Td834-23">
          <mxGeometry x="102" width="128" height="40" as="geometry">
            <mxRectangle width="128" height="40" as="alternateBounds" />
          </mxGeometry>
        </mxCell>
        <mxCell id="8qa00k0YXP2A5S4Td834-26" value="Usuario" style="shape=table;startSize=30;container=1;collapsible=0;childLayout=tableLayout;strokeColor=default;fontSize=16;" vertex="1" parent="1">
          <mxGeometry x="1208" y="630" width="490" height="145" as="geometry" />
        </mxCell>
        <mxCell id="8qa00k0YXP2A5S4Td834-27" value="" style="shape=tableRow;horizontal=0;startSize=0;swimlaneHead=0;swimlaneBody=0;strokeColor=inherit;top=0;left=0;bottom=0;right=0;collapsible=0;dropTarget=0;fillColor=none;points=[[0,0.5],[1,0.5]];portConstraint=eastwest;fontSize=16;" vertex="1" parent="8qa00k0YXP2A5S4Td834-26">
          <mxGeometry y="30" width="490" height="35" as="geometry" />
        </mxCell>
        <mxCell id="8qa00k0YXP2A5S4Td834-28" value="IdUsuario" style="shape=partialRectangle;html=1;whiteSpace=wrap;connectable=0;strokeColor=inherit;overflow=hidden;fillColor=none;top=0;left=0;bottom=0;right=0;pointerEvents=1;fontSize=16;" vertex="1" parent="8qa00k0YXP2A5S4Td834-27">
          <mxGeometry width="80" height="35" as="geometry">
            <mxRectangle width="80" height="35" as="alternateBounds" />
          </mxGeometry>
        </mxCell>
        <mxCell id="8qa00k0YXP2A5S4Td834-29" value="IdTipoUsuario" style="shape=partialRectangle;html=1;whiteSpace=wrap;connectable=0;strokeColor=inherit;overflow=hidden;fillColor=none;top=0;left=0;bottom=0;right=0;pointerEvents=1;fontSize=16;" vertex="1" parent="8qa00k0YXP2A5S4Td834-27">
          <mxGeometry x="80" width="110" height="35" as="geometry">
            <mxRectangle width="110" height="35" as="alternateBounds" />
          </mxGeometry>
        </mxCell>
        <mxCell id="8qa00k0YXP2A5S4Td834-42" value="Nome" style="shape=partialRectangle;html=1;whiteSpace=wrap;connectable=0;strokeColor=inherit;overflow=hidden;fillColor=none;top=0;left=0;bottom=0;right=0;pointerEvents=1;fontSize=16;" vertex="1" parent="8qa00k0YXP2A5S4Td834-27">
          <mxGeometry x="190" width="65" height="35" as="geometry">
            <mxRectangle width="65" height="35" as="alternateBounds" />
          </mxGeometry>
        </mxCell>
        <mxCell id="8qa00k0YXP2A5S4Td834-39" value="Email" style="shape=partialRectangle;html=1;whiteSpace=wrap;connectable=0;strokeColor=inherit;overflow=hidden;fillColor=none;top=0;left=0;bottom=0;right=0;pointerEvents=1;fontSize=16;" vertex="1" parent="8qa00k0YXP2A5S4Td834-27">
          <mxGeometry x="255" width="133" height="35" as="geometry">
            <mxRectangle width="133" height="35" as="alternateBounds" />
          </mxGeometry>
        </mxCell>
        <mxCell id="8qa00k0YXP2A5S4Td834-36" value="Senha" style="shape=partialRectangle;html=1;whiteSpace=wrap;connectable=0;strokeColor=inherit;overflow=hidden;fillColor=none;top=0;left=0;bottom=0;right=0;pointerEvents=1;fontSize=16;" vertex="1" parent="8qa00k0YXP2A5S4Td834-27">
          <mxGeometry x="388" width="102" height="35" as="geometry">
            <mxRectangle width="102" height="35" as="alternateBounds" />
          </mxGeometry>
        </mxCell>
        <mxCell id="8qa00k0YXP2A5S4Td834-30" value="" style="shape=tableRow;horizontal=0;startSize=0;swimlaneHead=0;swimlaneBody=0;strokeColor=inherit;top=0;left=0;bottom=0;right=0;collapsible=0;dropTarget=0;fillColor=none;points=[[0,0.5],[1,0.5]];portConstraint=eastwest;fontSize=16;" vertex="1" parent="8qa00k0YXP2A5S4Td834-26">
          <mxGeometry y="65" width="490" height="40" as="geometry" />
        </mxCell>
        <mxCell id="8qa00k0YXP2A5S4Td834-31" value="" style="shape=partialRectangle;html=1;whiteSpace=wrap;connectable=0;strokeColor=inherit;overflow=hidden;fillColor=none;top=0;left=0;bottom=0;right=0;pointerEvents=1;fontSize=16;" vertex="1" parent="8qa00k0YXP2A5S4Td834-30">
          <mxGeometry width="80" height="40" as="geometry">
            <mxRectangle width="80" height="40" as="alternateBounds" />
          </mxGeometry>
        </mxCell>
        <mxCell id="8qa00k0YXP2A5S4Td834-32" value="" style="shape=partialRectangle;html=1;whiteSpace=wrap;connectable=0;strokeColor=inherit;overflow=hidden;fillColor=none;top=0;left=0;bottom=0;right=0;pointerEvents=1;fontSize=16;" vertex="1" parent="8qa00k0YXP2A5S4Td834-30">
          <mxGeometry x="80" width="110" height="40" as="geometry">
            <mxRectangle width="110" height="40" as="alternateBounds" />
          </mxGeometry>
        </mxCell>
        <mxCell id="8qa00k0YXP2A5S4Td834-43" style="shape=partialRectangle;html=1;whiteSpace=wrap;connectable=0;strokeColor=inherit;overflow=hidden;fillColor=none;top=0;left=0;bottom=0;right=0;pointerEvents=1;fontSize=16;" vertex="1" parent="8qa00k0YXP2A5S4Td834-30">
          <mxGeometry x="190" width="65" height="40" as="geometry">
            <mxRectangle width="65" height="40" as="alternateBounds" />
          </mxGeometry>
        </mxCell>
        <mxCell id="8qa00k0YXP2A5S4Td834-40" style="shape=partialRectangle;html=1;whiteSpace=wrap;connectable=0;strokeColor=inherit;overflow=hidden;fillColor=none;top=0;left=0;bottom=0;right=0;pointerEvents=1;fontSize=16;" vertex="1" parent="8qa00k0YXP2A5S4Td834-30">
          <mxGeometry x="255" width="133" height="40" as="geometry">
            <mxRectangle width="133" height="40" as="alternateBounds" />
          </mxGeometry>
        </mxCell>
        <mxCell id="8qa00k0YXP2A5S4Td834-37" style="shape=partialRectangle;html=1;whiteSpace=wrap;connectable=0;strokeColor=inherit;overflow=hidden;fillColor=none;top=0;left=0;bottom=0;right=0;pointerEvents=1;fontSize=16;" vertex="1" parent="8qa00k0YXP2A5S4Td834-30">
          <mxGeometry x="388" width="102" height="40" as="geometry">
            <mxRectangle width="102" height="40" as="alternateBounds" />
          </mxGeometry>
        </mxCell>
        <mxCell id="8qa00k0YXP2A5S4Td834-33" value="" style="shape=tableRow;horizontal=0;startSize=0;swimlaneHead=0;swimlaneBody=0;strokeColor=inherit;top=0;left=0;bottom=0;right=0;collapsible=0;dropTarget=0;fillColor=none;points=[[0,0.5],[1,0.5]];portConstraint=eastwest;fontSize=16;" vertex="1" parent="8qa00k0YXP2A5S4Td834-26">
          <mxGeometry y="105" width="490" height="40" as="geometry" />
        </mxCell>
        <mxCell id="8qa00k0YXP2A5S4Td834-34" value="" style="shape=partialRectangle;html=1;whiteSpace=wrap;connectable=0;strokeColor=inherit;overflow=hidden;fillColor=none;top=0;left=0;bottom=0;right=0;pointerEvents=1;fontSize=16;" vertex="1" parent="8qa00k0YXP2A5S4Td834-33">
          <mxGeometry width="80" height="40" as="geometry">
            <mxRectangle width="80" height="40" as="alternateBounds" />
          </mxGeometry>
        </mxCell>
        <mxCell id="8qa00k0YXP2A5S4Td834-35" value="" style="shape=partialRectangle;html=1;whiteSpace=wrap;connectable=0;strokeColor=inherit;overflow=hidden;fillColor=none;top=0;left=0;bottom=0;right=0;pointerEvents=1;fontSize=16;" vertex="1" parent="8qa00k0YXP2A5S4Td834-33">
          <mxGeometry x="80" width="110" height="40" as="geometry">
            <mxRectangle width="110" height="40" as="alternateBounds" />
          </mxGeometry>
        </mxCell>
        <mxCell id="8qa00k0YXP2A5S4Td834-44" style="shape=partialRectangle;html=1;whiteSpace=wrap;connectable=0;strokeColor=inherit;overflow=hidden;fillColor=none;top=0;left=0;bottom=0;right=0;pointerEvents=1;fontSize=16;" vertex="1" parent="8qa00k0YXP2A5S4Td834-33">
          <mxGeometry x="190" width="65" height="40" as="geometry">
            <mxRectangle width="65" height="40" as="alternateBounds" />
          </mxGeometry>
        </mxCell>
        <mxCell id="8qa00k0YXP2A5S4Td834-41" style="shape=partialRectangle;html=1;whiteSpace=wrap;connectable=0;strokeColor=inherit;overflow=hidden;fillColor=none;top=0;left=0;bottom=0;right=0;pointerEvents=1;fontSize=16;" vertex="1" parent="8qa00k0YXP2A5S4Td834-33">
          <mxGeometry x="255" width="133" height="40" as="geometry">
            <mxRectangle width="133" height="40" as="alternateBounds" />
          </mxGeometry>
        </mxCell>
        <mxCell id="8qa00k0YXP2A5S4Td834-38" style="shape=partialRectangle;html=1;whiteSpace=wrap;connectable=0;strokeColor=inherit;overflow=hidden;fillColor=none;top=0;left=0;bottom=0;right=0;pointerEvents=1;fontSize=16;" vertex="1" parent="8qa00k0YXP2A5S4Td834-33">
          <mxGeometry x="388" width="102" height="40" as="geometry">
            <mxRectangle width="102" height="40" as="alternateBounds" />
          </mxGeometry>
        </mxCell>
        <mxCell id="8qa00k0YXP2A5S4Td834-45" value="Evento" style="shape=table;startSize=30;container=1;collapsible=0;childLayout=tableLayout;strokeColor=default;fontSize=16;" vertex="1" parent="1">
          <mxGeometry x="950" y="955" width="592" height="145" as="geometry" />
        </mxCell>
        <mxCell id="8qa00k0YXP2A5S4Td834-46" value="" style="shape=tableRow;horizontal=0;startSize=0;swimlaneHead=0;swimlaneBody=0;strokeColor=inherit;top=0;left=0;bottom=0;right=0;collapsible=0;dropTarget=0;fillColor=none;points=[[0,0.5],[1,0.5]];portConstraint=eastwest;fontSize=16;" vertex="1" parent="8qa00k0YXP2A5S4Td834-45">
          <mxGeometry y="30" width="592" height="35" as="geometry" />
        </mxCell>
        <mxCell id="8qa00k0YXP2A5S4Td834-47" value="IdEvento" style="shape=partialRectangle;html=1;whiteSpace=wrap;connectable=0;strokeColor=inherit;overflow=hidden;fillColor=none;top=0;left=0;bottom=0;right=0;pointerEvents=1;fontSize=16;" vertex="1" parent="8qa00k0YXP2A5S4Td834-46">
          <mxGeometry width="70" height="35" as="geometry">
            <mxRectangle width="70" height="35" as="alternateBounds" />
          </mxGeometry>
        </mxCell>
        <mxCell id="8qa00k0YXP2A5S4Td834-48" value="IdInstituicao" style="shape=partialRectangle;html=1;whiteSpace=wrap;connectable=0;strokeColor=inherit;overflow=hidden;fillColor=none;top=0;left=0;bottom=0;right=0;pointerEvents=1;fontSize=16;" vertex="1" parent="8qa00k0YXP2A5S4Td834-46">
          <mxGeometry x="70" width="100" height="35" as="geometry">
            <mxRectangle width="100" height="35" as="alternateBounds" />
          </mxGeometry>
        </mxCell>
        <mxCell id="8qa00k0YXP2A5S4Td834-49" value="IdTipoEvento" style="shape=partialRectangle;html=1;whiteSpace=wrap;connectable=0;strokeColor=inherit;overflow=hidden;fillColor=none;top=0;left=0;bottom=0;right=0;pointerEvents=1;fontSize=16;" vertex="1" parent="8qa00k0YXP2A5S4Td834-46">
          <mxGeometry x="170" width="90" height="35" as="geometry">
            <mxRectangle width="90" height="35" as="alternateBounds" />
          </mxGeometry>
        </mxCell>
        <mxCell id="8qa00k0YXP2A5S4Td834-50" value="NomeEvento" style="shape=partialRectangle;html=1;whiteSpace=wrap;connectable=0;strokeColor=inherit;overflow=hidden;fillColor=none;top=0;left=0;bottom=0;right=0;pointerEvents=1;fontSize=16;" vertex="1" parent="8qa00k0YXP2A5S4Td834-46">
          <mxGeometry x="260" width="128" height="35" as="geometry">
            <mxRectangle width="128" height="35" as="alternateBounds" />
          </mxGeometry>
        </mxCell>
        <mxCell id="8qa00k0YXP2A5S4Td834-51" value="Descricao" style="shape=partialRectangle;html=1;whiteSpace=wrap;connectable=0;strokeColor=inherit;overflow=hidden;fillColor=none;top=0;left=0;bottom=0;right=0;pointerEvents=1;fontSize=16;" vertex="1" parent="8qa00k0YXP2A5S4Td834-46">
          <mxGeometry x="388" width="102" height="35" as="geometry">
            <mxRectangle width="102" height="35" as="alternateBounds" />
          </mxGeometry>
        </mxCell>
        <mxCell id="8qa00k0YXP2A5S4Td834-64" value="DataEvento" style="shape=partialRectangle;html=1;whiteSpace=wrap;connectable=0;strokeColor=inherit;overflow=hidden;fillColor=none;top=0;left=0;bottom=0;right=0;pointerEvents=1;fontSize=16;" vertex="1" parent="8qa00k0YXP2A5S4Td834-46">
          <mxGeometry x="490" width="102" height="35" as="geometry">
            <mxRectangle width="102" height="35" as="alternateBounds" />
          </mxGeometry>
        </mxCell>
        <mxCell id="8qa00k0YXP2A5S4Td834-52" value="" style="shape=tableRow;horizontal=0;startSize=0;swimlaneHead=0;swimlaneBody=0;strokeColor=inherit;top=0;left=0;bottom=0;right=0;collapsible=0;dropTarget=0;fillColor=none;points=[[0,0.5],[1,0.5]];portConstraint=eastwest;fontSize=16;" vertex="1" parent="8qa00k0YXP2A5S4Td834-45">
          <mxGeometry y="65" width="592" height="40" as="geometry" />
        </mxCell>
        <mxCell id="8qa00k0YXP2A5S4Td834-53" value="" style="shape=partialRectangle;html=1;whiteSpace=wrap;connectable=0;strokeColor=inherit;overflow=hidden;fillColor=none;top=0;left=0;bottom=0;right=0;pointerEvents=1;fontSize=16;" vertex="1" parent="8qa00k0YXP2A5S4Td834-52">
          <mxGeometry width="70" height="40" as="geometry">
            <mxRectangle width="70" height="40" as="alternateBounds" />
          </mxGeometry>
        </mxCell>
        <mxCell id="8qa00k0YXP2A5S4Td834-54" value="" style="shape=partialRectangle;html=1;whiteSpace=wrap;connectable=0;strokeColor=inherit;overflow=hidden;fillColor=none;top=0;left=0;bottom=0;right=0;pointerEvents=1;fontSize=16;" vertex="1" parent="8qa00k0YXP2A5S4Td834-52">
          <mxGeometry x="70" width="100" height="40" as="geometry">
            <mxRectangle width="100" height="40" as="alternateBounds" />
          </mxGeometry>
        </mxCell>
        <mxCell id="8qa00k0YXP2A5S4Td834-55" style="shape=partialRectangle;html=1;whiteSpace=wrap;connectable=0;strokeColor=inherit;overflow=hidden;fillColor=none;top=0;left=0;bottom=0;right=0;pointerEvents=1;fontSize=16;" vertex="1" parent="8qa00k0YXP2A5S4Td834-52">
          <mxGeometry x="170" width="90" height="40" as="geometry">
            <mxRectangle width="90" height="40" as="alternateBounds" />
          </mxGeometry>
        </mxCell>
        <mxCell id="8qa00k0YXP2A5S4Td834-56" style="shape=partialRectangle;html=1;whiteSpace=wrap;connectable=0;strokeColor=inherit;overflow=hidden;fillColor=none;top=0;left=0;bottom=0;right=0;pointerEvents=1;fontSize=16;" vertex="1" parent="8qa00k0YXP2A5S4Td834-52">
          <mxGeometry x="260" width="128" height="40" as="geometry">
            <mxRectangle width="128" height="40" as="alternateBounds" />
          </mxGeometry>
        </mxCell>
        <mxCell id="8qa00k0YXP2A5S4Td834-57" style="shape=partialRectangle;html=1;whiteSpace=wrap;connectable=0;strokeColor=inherit;overflow=hidden;fillColor=none;top=0;left=0;bottom=0;right=0;pointerEvents=1;fontSize=16;" vertex="1" parent="8qa00k0YXP2A5S4Td834-52">
          <mxGeometry x="388" width="102" height="40" as="geometry">
            <mxRectangle width="102" height="40" as="alternateBounds" />
          </mxGeometry>
        </mxCell>
        <mxCell id="8qa00k0YXP2A5S4Td834-65" style="shape=partialRectangle;html=1;whiteSpace=wrap;connectable=0;strokeColor=inherit;overflow=hidden;fillColor=none;top=0;left=0;bottom=0;right=0;pointerEvents=1;fontSize=16;" vertex="1" parent="8qa00k0YXP2A5S4Td834-52">
          <mxGeometry x="490" width="102" height="40" as="geometry">
            <mxRectangle width="102" height="40" as="alternateBounds" />
          </mxGeometry>
        </mxCell>
        <mxCell id="8qa00k0YXP2A5S4Td834-58" value="" style="shape=tableRow;horizontal=0;startSize=0;swimlaneHead=0;swimlaneBody=0;strokeColor=inherit;top=0;left=0;bottom=0;right=0;collapsible=0;dropTarget=0;fillColor=none;points=[[0,0.5],[1,0.5]];portConstraint=eastwest;fontSize=16;" vertex="1" parent="8qa00k0YXP2A5S4Td834-45">
          <mxGeometry y="105" width="592" height="40" as="geometry" />
        </mxCell>
        <mxCell id="8qa00k0YXP2A5S4Td834-59" value="" style="shape=partialRectangle;html=1;whiteSpace=wrap;connectable=0;strokeColor=inherit;overflow=hidden;fillColor=none;top=0;left=0;bottom=0;right=0;pointerEvents=1;fontSize=16;" vertex="1" parent="8qa00k0YXP2A5S4Td834-58">
          <mxGeometry width="70" height="40" as="geometry">
            <mxRectangle width="70" height="40" as="alternateBounds" />
          </mxGeometry>
        </mxCell>
        <mxCell id="8qa00k0YXP2A5S4Td834-60" value="" style="shape=partialRectangle;html=1;whiteSpace=wrap;connectable=0;strokeColor=inherit;overflow=hidden;fillColor=none;top=0;left=0;bottom=0;right=0;pointerEvents=1;fontSize=16;" vertex="1" parent="8qa00k0YXP2A5S4Td834-58">
          <mxGeometry x="70" width="100" height="40" as="geometry">
            <mxRectangle width="100" height="40" as="alternateBounds" />
          </mxGeometry>
        </mxCell>
        <mxCell id="8qa00k0YXP2A5S4Td834-61" style="shape=partialRectangle;html=1;whiteSpace=wrap;connectable=0;strokeColor=inherit;overflow=hidden;fillColor=none;top=0;left=0;bottom=0;right=0;pointerEvents=1;fontSize=16;" vertex="1" parent="8qa00k0YXP2A5S4Td834-58">
          <mxGeometry x="170" width="90" height="40" as="geometry">
            <mxRectangle width="90" height="40" as="alternateBounds" />
          </mxGeometry>
        </mxCell>
        <mxCell id="8qa00k0YXP2A5S4Td834-62" style="shape=partialRectangle;html=1;whiteSpace=wrap;connectable=0;strokeColor=inherit;overflow=hidden;fillColor=none;top=0;left=0;bottom=0;right=0;pointerEvents=1;fontSize=16;" vertex="1" parent="8qa00k0YXP2A5S4Td834-58">
          <mxGeometry x="260" width="128" height="40" as="geometry">
            <mxRectangle width="128" height="40" as="alternateBounds" />
          </mxGeometry>
        </mxCell>
        <mxCell id="8qa00k0YXP2A5S4Td834-63" style="shape=partialRectangle;html=1;whiteSpace=wrap;connectable=0;strokeColor=inherit;overflow=hidden;fillColor=none;top=0;left=0;bottom=0;right=0;pointerEvents=1;fontSize=16;" vertex="1" parent="8qa00k0YXP2A5S4Td834-58">
          <mxGeometry x="388" width="102" height="40" as="geometry">
            <mxRectangle width="102" height="40" as="alternateBounds" />
          </mxGeometry>
        </mxCell>
        <mxCell id="8qa00k0YXP2A5S4Td834-66" style="shape=partialRectangle;html=1;whiteSpace=wrap;connectable=0;strokeColor=inherit;overflow=hidden;fillColor=none;top=0;left=0;bottom=0;right=0;pointerEvents=1;fontSize=16;" vertex="1" parent="8qa00k0YXP2A5S4Td834-58">
          <mxGeometry x="490" width="102" height="40" as="geometry">
            <mxRectangle width="102" height="40" as="alternateBounds" />
          </mxGeometry>
        </mxCell>
        <mxCell id="8qa00k0YXP2A5S4Td834-67" value="Instituicao" style="shape=table;startSize=30;container=1;collapsible=0;childLayout=tableLayout;strokeColor=default;fontSize=16;" vertex="1" parent="1">
          <mxGeometry x="950" y="795" width="430" height="145" as="geometry" />
        </mxCell>
        <mxCell id="8qa00k0YXP2A5S4Td834-68" value="" style="shape=tableRow;horizontal=0;startSize=0;swimlaneHead=0;swimlaneBody=0;strokeColor=inherit;top=0;left=0;bottom=0;right=0;collapsible=0;dropTarget=0;fillColor=none;points=[[0,0.5],[1,0.5]];portConstraint=eastwest;fontSize=16;" vertex="1" parent="8qa00k0YXP2A5S4Td834-67">
          <mxGeometry y="30" width="430" height="35" as="geometry" />
        </mxCell>
        <mxCell id="8qa00k0YXP2A5S4Td834-69" value="IdInstituicao" style="shape=partialRectangle;html=1;whiteSpace=wrap;connectable=0;strokeColor=inherit;overflow=hidden;fillColor=none;top=0;left=0;bottom=0;right=0;pointerEvents=1;fontSize=16;" vertex="1" parent="8qa00k0YXP2A5S4Td834-68">
          <mxGeometry width="100" height="35" as="geometry">
            <mxRectangle width="100" height="35" as="alternateBounds" />
          </mxGeometry>
        </mxCell>
        <mxCell id="8qa00k0YXP2A5S4Td834-70" value="CNPJ" style="shape=partialRectangle;html=1;whiteSpace=wrap;connectable=0;strokeColor=inherit;overflow=hidden;fillColor=none;top=0;left=0;bottom=0;right=0;pointerEvents=1;fontSize=16;" vertex="1" parent="8qa00k0YXP2A5S4Td834-68">
          <mxGeometry x="100" width="100" height="35" as="geometry">
            <mxRectangle width="100" height="35" as="alternateBounds" />
          </mxGeometry>
        </mxCell>
        <mxCell id="8qa00k0YXP2A5S4Td834-71" value="Nome fantasia" style="shape=partialRectangle;html=1;whiteSpace=wrap;connectable=0;strokeColor=inherit;overflow=hidden;fillColor=none;top=0;left=0;bottom=0;right=0;pointerEvents=1;fontSize=16;" vertex="1" parent="8qa00k0YXP2A5S4Td834-68">
          <mxGeometry x="200" width="120" height="35" as="geometry">
            <mxRectangle width="120" height="35" as="alternateBounds" />
          </mxGeometry>
        </mxCell>
        <mxCell id="8qa00k0YXP2A5S4Td834-72" value="Endereco" style="shape=partialRectangle;html=1;whiteSpace=wrap;connectable=0;strokeColor=inherit;overflow=hidden;fillColor=none;top=0;left=0;bottom=0;right=0;pointerEvents=1;fontSize=16;" vertex="1" parent="8qa00k0YXP2A5S4Td834-68">
          <mxGeometry x="320" width="110" height="35" as="geometry">
            <mxRectangle width="110" height="35" as="alternateBounds" />
          </mxGeometry>
        </mxCell>
        <mxCell id="8qa00k0YXP2A5S4Td834-74" value="" style="shape=tableRow;horizontal=0;startSize=0;swimlaneHead=0;swimlaneBody=0;strokeColor=inherit;top=0;left=0;bottom=0;right=0;collapsible=0;dropTarget=0;fillColor=none;points=[[0,0.5],[1,0.5]];portConstraint=eastwest;fontSize=16;" vertex="1" parent="8qa00k0YXP2A5S4Td834-67">
          <mxGeometry y="65" width="430" height="40" as="geometry" />
        </mxCell>
        <mxCell id="8qa00k0YXP2A5S4Td834-75" value="" style="shape=partialRectangle;html=1;whiteSpace=wrap;connectable=0;strokeColor=inherit;overflow=hidden;fillColor=none;top=0;left=0;bottom=0;right=0;pointerEvents=1;fontSize=16;" vertex="1" parent="8qa00k0YXP2A5S4Td834-74">
          <mxGeometry width="100" height="40" as="geometry">
            <mxRectangle width="100" height="40" as="alternateBounds" />
          </mxGeometry>
        </mxCell>
        <mxCell id="8qa00k0YXP2A5S4Td834-76" value="" style="shape=partialRectangle;html=1;whiteSpace=wrap;connectable=0;strokeColor=inherit;overflow=hidden;fillColor=none;top=0;left=0;bottom=0;right=0;pointerEvents=1;fontSize=16;" vertex="1" parent="8qa00k0YXP2A5S4Td834-74">
          <mxGeometry x="100" width="100" height="40" as="geometry">
            <mxRectangle width="100" height="40" as="alternateBounds" />
          </mxGeometry>
        </mxCell>
        <mxCell id="8qa00k0YXP2A5S4Td834-77" style="shape=partialRectangle;html=1;whiteSpace=wrap;connectable=0;strokeColor=inherit;overflow=hidden;fillColor=none;top=0;left=0;bottom=0;right=0;pointerEvents=1;fontSize=16;" vertex="1" parent="8qa00k0YXP2A5S4Td834-74">
          <mxGeometry x="200" width="120" height="40" as="geometry">
            <mxRectangle width="120" height="40" as="alternateBounds" />
          </mxGeometry>
        </mxCell>
        <mxCell id="8qa00k0YXP2A5S4Td834-78" style="shape=partialRectangle;html=1;whiteSpace=wrap;connectable=0;strokeColor=inherit;overflow=hidden;fillColor=none;top=0;left=0;bottom=0;right=0;pointerEvents=1;fontSize=16;" vertex="1" parent="8qa00k0YXP2A5S4Td834-74">
          <mxGeometry x="320" width="110" height="40" as="geometry">
            <mxRectangle width="110" height="40" as="alternateBounds" />
          </mxGeometry>
        </mxCell>
        <mxCell id="8qa00k0YXP2A5S4Td834-80" value="" style="shape=tableRow;horizontal=0;startSize=0;swimlaneHead=0;swimlaneBody=0;strokeColor=inherit;top=0;left=0;bottom=0;right=0;collapsible=0;dropTarget=0;fillColor=none;points=[[0,0.5],[1,0.5]];portConstraint=eastwest;fontSize=16;" vertex="1" parent="8qa00k0YXP2A5S4Td834-67">
          <mxGeometry y="105" width="430" height="40" as="geometry" />
        </mxCell>
        <mxCell id="8qa00k0YXP2A5S4Td834-81" value="" style="shape=partialRectangle;html=1;whiteSpace=wrap;connectable=0;strokeColor=inherit;overflow=hidden;fillColor=none;top=0;left=0;bottom=0;right=0;pointerEvents=1;fontSize=16;" vertex="1" parent="8qa00k0YXP2A5S4Td834-80">
          <mxGeometry width="100" height="40" as="geometry">
            <mxRectangle width="100" height="40" as="alternateBounds" />
          </mxGeometry>
        </mxCell>
        <mxCell id="8qa00k0YXP2A5S4Td834-82" value="" style="shape=partialRectangle;html=1;whiteSpace=wrap;connectable=0;strokeColor=inherit;overflow=hidden;fillColor=none;top=0;left=0;bottom=0;right=0;pointerEvents=1;fontSize=16;" vertex="1" parent="8qa00k0YXP2A5S4Td834-80">
          <mxGeometry x="100" width="100" height="40" as="geometry">
            <mxRectangle width="100" height="40" as="alternateBounds" />
          </mxGeometry>
        </mxCell>
        <mxCell id="8qa00k0YXP2A5S4Td834-83" style="shape=partialRectangle;html=1;whiteSpace=wrap;connectable=0;strokeColor=inherit;overflow=hidden;fillColor=none;top=0;left=0;bottom=0;right=0;pointerEvents=1;fontSize=16;" vertex="1" parent="8qa00k0YXP2A5S4Td834-80">
          <mxGeometry x="200" width="120" height="40" as="geometry">
            <mxRectangle width="120" height="40" as="alternateBounds" />
          </mxGeometry>
        </mxCell>
        <mxCell id="8qa00k0YXP2A5S4Td834-84" style="shape=partialRectangle;html=1;whiteSpace=wrap;connectable=0;strokeColor=inherit;overflow=hidden;fillColor=none;top=0;left=0;bottom=0;right=0;pointerEvents=1;fontSize=16;" vertex="1" parent="8qa00k0YXP2A5S4Td834-80">
          <mxGeometry x="320" width="110" height="40" as="geometry">
            <mxRectangle width="110" height="40" as="alternateBounds" />
          </mxGeometry>
        </mxCell>
        <mxCell id="8qa00k0YXP2A5S4Td834-86" value="PresencaEvento" style="shape=table;startSize=30;container=1;collapsible=0;childLayout=tableLayout;strokeColor=default;fontSize=16;" vertex="1" parent="1">
          <mxGeometry x="1556" y="955" width="430" height="145" as="geometry" />
        </mxCell>
        <mxCell id="8qa00k0YXP2A5S4Td834-87" value="" style="shape=tableRow;horizontal=0;startSize=0;swimlaneHead=0;swimlaneBody=0;strokeColor=inherit;top=0;left=0;bottom=0;right=0;collapsible=0;dropTarget=0;fillColor=none;points=[[0,0.5],[1,0.5]];portConstraint=eastwest;fontSize=16;" vertex="1" parent="8qa00k0YXP2A5S4Td834-86">
          <mxGeometry y="30" width="430" height="35" as="geometry" />
        </mxCell>
        <mxCell id="8qa00k0YXP2A5S4Td834-88" value="IdPresencaEvento" style="shape=partialRectangle;html=1;whiteSpace=wrap;connectable=0;strokeColor=inherit;overflow=hidden;fillColor=none;top=0;left=0;bottom=0;right=0;pointerEvents=1;fontSize=16;" vertex="1" parent="8qa00k0YXP2A5S4Td834-87">
          <mxGeometry width="140" height="35" as="geometry">
            <mxRectangle width="140" height="35" as="alternateBounds" />
          </mxGeometry>
        </mxCell>
        <mxCell id="8qa00k0YXP2A5S4Td834-89" value="IdUsuario" style="shape=partialRectangle;html=1;whiteSpace=wrap;connectable=0;strokeColor=inherit;overflow=hidden;fillColor=none;top=0;left=0;bottom=0;right=0;pointerEvents=1;fontSize=16;" vertex="1" parent="8qa00k0YXP2A5S4Td834-87">
          <mxGeometry x="140" width="80" height="35" as="geometry">
            <mxRectangle width="80" height="35" as="alternateBounds" />
          </mxGeometry>
        </mxCell>
        <mxCell id="8qa00k0YXP2A5S4Td834-90" value="IdEvento" style="shape=partialRectangle;html=1;whiteSpace=wrap;connectable=0;strokeColor=inherit;overflow=hidden;fillColor=none;top=0;left=0;bottom=0;right=0;pointerEvents=1;fontSize=16;" vertex="1" parent="8qa00k0YXP2A5S4Td834-87">
          <mxGeometry x="220" width="80" height="35" as="geometry">
            <mxRectangle width="80" height="35" as="alternateBounds" />
          </mxGeometry>
        </mxCell>
        <mxCell id="8qa00k0YXP2A5S4Td834-91" value="Situacao" style="shape=partialRectangle;html=1;whiteSpace=wrap;connectable=0;strokeColor=inherit;overflow=hidden;fillColor=none;top=0;left=0;bottom=0;right=0;pointerEvents=1;fontSize=16;" vertex="1" parent="8qa00k0YXP2A5S4Td834-87">
          <mxGeometry x="300" width="130" height="35" as="geometry">
            <mxRectangle width="130" height="35" as="alternateBounds" />
          </mxGeometry>
        </mxCell>
        <mxCell id="8qa00k0YXP2A5S4Td834-92" value="" style="shape=tableRow;horizontal=0;startSize=0;swimlaneHead=0;swimlaneBody=0;strokeColor=inherit;top=0;left=0;bottom=0;right=0;collapsible=0;dropTarget=0;fillColor=none;points=[[0,0.5],[1,0.5]];portConstraint=eastwest;fontSize=16;" vertex="1" parent="8qa00k0YXP2A5S4Td834-86">
          <mxGeometry y="65" width="430" height="40" as="geometry" />
        </mxCell>
        <mxCell id="8qa00k0YXP2A5S4Td834-93" value="" style="shape=partialRectangle;html=1;whiteSpace=wrap;connectable=0;strokeColor=inherit;overflow=hidden;fillColor=none;top=0;left=0;bottom=0;right=0;pointerEvents=1;fontSize=16;" vertex="1" parent="8qa00k0YXP2A5S4Td834-92">
          <mxGeometry width="140" height="40" as="geometry">
            <mxRectangle width="140" height="40" as="alternateBounds" />
          </mxGeometry>
        </mxCell>
        <mxCell id="8qa00k0YXP2A5S4Td834-94" value="" style="shape=partialRectangle;html=1;whiteSpace=wrap;connectable=0;strokeColor=inherit;overflow=hidden;fillColor=none;top=0;left=0;bottom=0;right=0;pointerEvents=1;fontSize=16;" vertex="1" parent="8qa00k0YXP2A5S4Td834-92">
          <mxGeometry x="140" width="80" height="40" as="geometry">
            <mxRectangle width="80" height="40" as="alternateBounds" />
          </mxGeometry>
        </mxCell>
        <mxCell id="8qa00k0YXP2A5S4Td834-95" style="shape=partialRectangle;html=1;whiteSpace=wrap;connectable=0;strokeColor=inherit;overflow=hidden;fillColor=none;top=0;left=0;bottom=0;right=0;pointerEvents=1;fontSize=16;" vertex="1" parent="8qa00k0YXP2A5S4Td834-92">
          <mxGeometry x="220" width="80" height="40" as="geometry">
            <mxRectangle width="80" height="40" as="alternateBounds" />
          </mxGeometry>
        </mxCell>
        <mxCell id="8qa00k0YXP2A5S4Td834-96" style="shape=partialRectangle;html=1;whiteSpace=wrap;connectable=0;strokeColor=inherit;overflow=hidden;fillColor=none;top=0;left=0;bottom=0;right=0;pointerEvents=1;fontSize=16;" vertex="1" parent="8qa00k0YXP2A5S4Td834-92">
          <mxGeometry x="300" width="130" height="40" as="geometry">
            <mxRectangle width="130" height="40" as="alternateBounds" />
          </mxGeometry>
        </mxCell>
        <mxCell id="8qa00k0YXP2A5S4Td834-97" value="" style="shape=tableRow;horizontal=0;startSize=0;swimlaneHead=0;swimlaneBody=0;strokeColor=inherit;top=0;left=0;bottom=0;right=0;collapsible=0;dropTarget=0;fillColor=none;points=[[0,0.5],[1,0.5]];portConstraint=eastwest;fontSize=16;" vertex="1" parent="8qa00k0YXP2A5S4Td834-86">
          <mxGeometry y="105" width="430" height="40" as="geometry" />
        </mxCell>
        <mxCell id="8qa00k0YXP2A5S4Td834-98" value="" style="shape=partialRectangle;html=1;whiteSpace=wrap;connectable=0;strokeColor=inherit;overflow=hidden;fillColor=none;top=0;left=0;bottom=0;right=0;pointerEvents=1;fontSize=16;" vertex="1" parent="8qa00k0YXP2A5S4Td834-97">
          <mxGeometry width="140" height="40" as="geometry">
            <mxRectangle width="140" height="40" as="alternateBounds" />
          </mxGeometry>
        </mxCell>
        <mxCell id="8qa00k0YXP2A5S4Td834-99" value="" style="shape=partialRectangle;html=1;whiteSpace=wrap;connectable=0;strokeColor=inherit;overflow=hidden;fillColor=none;top=0;left=0;bottom=0;right=0;pointerEvents=1;fontSize=16;" vertex="1" parent="8qa00k0YXP2A5S4Td834-97">
          <mxGeometry x="140" width="80" height="40" as="geometry">
            <mxRectangle width="80" height="40" as="alternateBounds" />
          </mxGeometry>
        </mxCell>
        <mxCell id="8qa00k0YXP2A5S4Td834-100" style="shape=partialRectangle;html=1;whiteSpace=wrap;connectable=0;strokeColor=inherit;overflow=hidden;fillColor=none;top=0;left=0;bottom=0;right=0;pointerEvents=1;fontSize=16;" vertex="1" parent="8qa00k0YXP2A5S4Td834-97">
          <mxGeometry x="220" width="80" height="40" as="geometry">
            <mxRectangle width="80" height="40" as="alternateBounds" />
          </mxGeometry>
        </mxCell>
        <mxCell id="8qa00k0YXP2A5S4Td834-101" style="shape=partialRectangle;html=1;whiteSpace=wrap;connectable=0;strokeColor=inherit;overflow=hidden;fillColor=none;top=0;left=0;bottom=0;right=0;pointerEvents=1;fontSize=16;" vertex="1" parent="8qa00k0YXP2A5S4Td834-97">
          <mxGeometry x="300" width="130" height="40" as="geometry">
            <mxRectangle width="130" height="40" as="alternateBounds" />
          </mxGeometry>
        </mxCell>
        <mxCell id="8qa00k0YXP2A5S4Td834-102" value="Comentario" style="shape=table;startSize=30;container=1;collapsible=0;childLayout=tableLayout;strokeColor=default;fontSize=16;" vertex="1" parent="1">
          <mxGeometry x="1396" y="795" width="570" height="145" as="geometry" />
        </mxCell>
        <mxCell id="8qa00k0YXP2A5S4Td834-103" value="" style="shape=tableRow;horizontal=0;startSize=0;swimlaneHead=0;swimlaneBody=0;strokeColor=inherit;top=0;left=0;bottom=0;right=0;collapsible=0;dropTarget=0;fillColor=none;points=[[0,0.5],[1,0.5]];portConstraint=eastwest;fontSize=16;" vertex="1" parent="8qa00k0YXP2A5S4Td834-102">
          <mxGeometry y="30" width="570" height="35" as="geometry" />
        </mxCell>
        <mxCell id="8qa00k0YXP2A5S4Td834-104" value="IdComentario" style="shape=partialRectangle;html=1;whiteSpace=wrap;connectable=0;strokeColor=inherit;overflow=hidden;fillColor=none;top=0;left=0;bottom=0;right=0;pointerEvents=1;fontSize=16;" vertex="1" parent="8qa00k0YXP2A5S4Td834-103">
          <mxGeometry width="130" height="35" as="geometry">
            <mxRectangle width="130" height="35" as="alternateBounds" />
          </mxGeometry>
        </mxCell>
        <mxCell id="8qa00k0YXP2A5S4Td834-105" value="IdUsuario" style="shape=partialRectangle;html=1;whiteSpace=wrap;connectable=0;strokeColor=inherit;overflow=hidden;fillColor=none;top=0;left=0;bottom=0;right=0;pointerEvents=1;fontSize=16;" vertex="1" parent="8qa00k0YXP2A5S4Td834-103">
          <mxGeometry x="130" width="80" height="35" as="geometry">
            <mxRectangle width="80" height="35" as="alternateBounds" />
          </mxGeometry>
        </mxCell>
        <mxCell id="8qa00k0YXP2A5S4Td834-106" value="IdEvento" style="shape=partialRectangle;html=1;whiteSpace=wrap;connectable=0;strokeColor=inherit;overflow=hidden;fillColor=none;top=0;left=0;bottom=0;right=0;pointerEvents=1;fontSize=16;" vertex="1" parent="8qa00k0YXP2A5S4Td834-103">
          <mxGeometry x="210" width="80" height="35" as="geometry">
            <mxRectangle width="80" height="35" as="alternateBounds" />
          </mxGeometry>
        </mxCell>
        <mxCell id="8qa00k0YXP2A5S4Td834-107" value="DescriÃ§Ã£o" style="shape=partialRectangle;html=1;whiteSpace=wrap;connectable=0;strokeColor=inherit;overflow=hidden;fillColor=none;top=0;left=0;bottom=0;right=0;pointerEvents=1;fontSize=16;" vertex="1" parent="8qa00k0YXP2A5S4Td834-103">
          <mxGeometry x="290" width="140" height="35" as="geometry">
            <mxRectangle width="140" height="35" as="alternateBounds" />
          </mxGeometry>
        </mxCell>
        <mxCell id="8qa00k0YXP2A5S4Td834-121" value="Exibe" style="shape=partialRectangle;html=1;whiteSpace=wrap;connectable=0;strokeColor=inherit;overflow=hidden;fillColor=none;top=0;left=0;bottom=0;right=0;pointerEvents=1;fontSize=16;" vertex="1" parent="8qa00k0YXP2A5S4Td834-103">
          <mxGeometry x="430" width="140" height="35" as="geometry">
            <mxRectangle width="140" height="35" as="alternateBounds" />
          </mxGeometry>
        </mxCell>
        <mxCell id="8qa00k0YXP2A5S4Td834-108" value="" style="shape=tableRow;horizontal=0;startSize=0;swimlaneHead=0;swimlaneBody=0;strokeColor=inherit;top=0;left=0;bottom=0;right=0;collapsible=0;dropTarget=0;fillColor=none;points=[[0,0.5],[1,0.5]];portConstraint=eastwest;fontSize=16;" vertex="1" parent="8qa00k0YXP2A5S4Td834-102">
          <mxGeometry y="65" width="570" height="40" as="geometry" />
        </mxCell>
        <mxCell id="8qa00k0YXP2A5S4Td834-109" value="" style="shape=partialRectangle;html=1;whiteSpace=wrap;connectable=0;strokeColor=inherit;overflow=hidden;fillColor=none;top=0;left=0;bottom=0;right=0;pointerEvents=1;fontSize=16;" vertex="1" parent="8qa00k0YXP2A5S4Td834-108">
          <mxGeometry width="130" height="40" as="geometry">
            <mxRectangle width="130" height="40" as="alternateBounds" />
          </mxGeometry>
        </mxCell>
        <mxCell id="8qa00k0YXP2A5S4Td834-110" value="" style="shape=partialRectangle;html=1;whiteSpace=wrap;connectable=0;strokeColor=inherit;overflow=hidden;fillColor=none;top=0;left=0;bottom=0;right=0;pointerEvents=1;fontSize=16;" vertex="1" parent="8qa00k0YXP2A5S4Td834-108">
          <mxGeometry x="130" width="80" height="40" as="geometry">
            <mxRectangle width="80" height="40" as="alternateBounds" />
          </mxGeometry>
        </mxCell>
        <mxCell id="8qa00k0YXP2A5S4Td834-111" style="shape=partialRectangle;html=1;whiteSpace=wrap;connectable=0;strokeColor=inherit;overflow=hidden;fillColor=none;top=0;left=0;bottom=0;right=0;pointerEvents=1;fontSize=16;" vertex="1" parent="8qa00k0YXP2A5S4Td834-108">
          <mxGeometry x="210" width="80" height="40" as="geometry">
            <mxRectangle width="80" height="40" as="alternateBounds" />
          </mxGeometry>
        </mxCell>
        <mxCell id="8qa00k0YXP2A5S4Td834-112" style="shape=partialRectangle;html=1;whiteSpace=wrap;connectable=0;strokeColor=inherit;overflow=hidden;fillColor=none;top=0;left=0;bottom=0;right=0;pointerEvents=1;fontSize=16;" vertex="1" parent="8qa00k0YXP2A5S4Td834-108">
          <mxGeometry x="290" width="140" height="40" as="geometry">
            <mxRectangle width="140" height="40" as="alternateBounds" />
          </mxGeometry>
        </mxCell>
        <mxCell id="8qa00k0YXP2A5S4Td834-122" style="shape=partialRectangle;html=1;whiteSpace=wrap;connectable=0;strokeColor=inherit;overflow=hidden;fillColor=none;top=0;left=0;bottom=0;right=0;pointerEvents=1;fontSize=16;" vertex="1" parent="8qa00k0YXP2A5S4Td834-108">
          <mxGeometry x="430" width="140" height="40" as="geometry">
            <mxRectangle width="140" height="40" as="alternateBounds" />
          </mxGeometry>
        </mxCell>
        <mxCell id="8qa00k0YXP2A5S4Td834-113" value="" style="shape=tableRow;horizontal=0;startSize=0;swimlaneHead=0;swimlaneBody=0;strokeColor=inherit;top=0;left=0;bottom=0;right=0;collapsible=0;dropTarget=0;fillColor=none;points=[[0,0.5],[1,0.5]];portConstraint=eastwest;fontSize=16;" vertex="1" parent="8qa00k0YXP2A5S4Td834-102">
          <mxGeometry y="105" width="570" height="40" as="geometry" />
        </mxCell>
        <mxCell id="8qa00k0YXP2A5S4Td834-114" value="" style="shape=partialRectangle;html=1;whiteSpace=wrap;connectable=0;strokeColor=inherit;overflow=hidden;fillColor=none;top=0;left=0;bottom=0;right=0;pointerEvents=1;fontSize=16;" vertex="1" parent="8qa00k0YXP2A5S4Td834-113">
          <mxGeometry width="130" height="40" as="geometry">
            <mxRectangle width="130" height="40" as="alternateBounds" />
          </mxGeometry>
        </mxCell>
        <mxCell id="8qa00k0YXP2A5S4Td834-115" value="" style="shape=partialRectangle;html=1;whiteSpace=wrap;connectable=0;strokeColor=inherit;overflow=hidden;fillColor=none;top=0;left=0;bottom=0;right=0;pointerEvents=1;fontSize=16;" vertex="1" parent="8qa00k0YXP2A5S4Td834-113">
          <mxGeometry x="130" width="80" height="40" as="geometry">
            <mxRectangle width="80" height="40" as="alternateBounds" />
          </mxGeometry>
        </mxCell>
        <mxCell id="8qa00k0YXP2A5S4Td834-116" style="shape=partialRectangle;html=1;whiteSpace=wrap;connectable=0;strokeColor=inherit;overflow=hidden;fillColor=none;top=0;left=0;bottom=0;right=0;pointerEvents=1;fontSize=16;" vertex="1" parent="8qa00k0YXP2A5S4Td834-113">
          <mxGeometry x="210" width="80" height="40" as="geometry">
            <mxRectangle width="80" height="40" as="alternateBounds" />
          </mxGeometry>
        </mxCell>
        <mxCell id="8qa00k0YXP2A5S4Td834-117" style="shape=partialRectangle;html=1;whiteSpace=wrap;connectable=0;strokeColor=inherit;overflow=hidden;fillColor=none;top=0;left=0;bottom=0;right=0;pointerEvents=1;fontSize=16;" vertex="1" parent="8qa00k0YXP2A5S4Td834-113">
          <mxGeometry x="290" width="140" height="40" as="geometry">
            <mxRectangle width="140" height="40" as="alternateBounds" />
          </mxGeometry>
        </mxCell>
        <mxCell id="8qa00k0YXP2A5S4Td834-123" style="shape=partialRectangle;html=1;whiteSpace=wrap;connectable=0;strokeColor=inherit;overflow=hidden;fillColor=none;top=0;left=0;bottom=0;right=0;pointerEvents=1;fontSize=16;" vertex="1" parent="8qa00k0YXP2A5S4Td834-113">
          <mxGeometry x="430" width="140" height="40" as="geometry">
            <mxRectangle width="140" height="40" as="alternateBounds" />
          </mxGeometry>
        </mxCell>
      </root>
    </mxGraphModel>
  </diagram>
</mxfile>
